<?xml version="1.0" standalone="no"?>
<!DOCTYPE svg PUBLIC "-//W3C//DTD SVG 1.1//EN" "http://www.w3.org/Graphics/SVG/1.1/DTD/svg11.dtd" >
<svg xmlns="http://www.w3.org/2000/svg" xmlns:xlink="http://www.w3.org/1999/xlink" version="1.1">
<metadata>
Created by FontForge 20170731 at Wed Apr 27 23:33:34 2011
 By Aleksey,,,
Copyright (c) 1991-99, 2006 Apple Computer, Inc. Copyright (c) 1991-92 Type Solutions, Inc. All rights reserved.
</metadata>
<defs>
<font id="Palatino-Bold" horiz-adv-x="1251" >
  <font-face 
    font-family="Palatino"
    font-weight="700"
    font-stretch="normal"
    units-per-em="2048"
    panose-1="2 0 8 3 0 0 0 0 0 0"
    ascent="1638"
    descent="-410"
    x-height="940"
    cap-height="1411"
    bbox="-1048 -949 3919 2445"
    underline-thickness="122"
    underline-position="-394"
    unicode-range="U+0008-FFFC"
  />
<missing-glyph horiz-adv-x="1536" 
d="M256 0v1280h1024v-1280h-1024zM288 32h960v1216h-960v-1216z" />
    <glyph glyph-name="fi" unicode="fi" 
d="M679 0v74l90 9q20 3 29 9.5t14 18.5q9 21 11 95q4 152 4 221v253q0 74 -7 93q-5 13 -16 19q-21 12 -56 12h-67l-12 -39h-228v-374l2 -155q0 -105 9 -127q4 -9 13 -14q28 -14 134 -17v-78l-272 4l-275 -4v74l88 9q21 3 30 9t14 17q9 19 11 63l2 149v319l-4 125
q-36 -2 -137 -6v45l95 62q20 12 40 30l-3 126q0 54 13.5 94.5t47.5 81.5t105.5 100.5t110.5 97.5q51 51 81 65q41 20 83 20q70 0 122 -21q-11 -22 -17 -52q-5 -32 -7 -53t-6 -69l-1 -33l-39 -16q-6 6 -20 19.5t-28 19.5q-34 15 -68 15q-37 0 -65 -16.5t-40.5 -40.5
t-13.5 -74q-5 -132 -5 -157v-119l230 4q98 2 170.5 17.5t215.5 65.5l24 -13q-9 -109 -10 -173q-3 -99 -3 -358q0 -220 5 -283q2 -32 10 -41.5t29 -14.5q16 -3 100 -10v-78q-312 4 -345 4q-110 0 -188 -4zM816 1293q0 64 44.5 109t108.5 45t109 -44.5t45 -107.5
q0 -64 -45 -109t-109 -45q-62 0 -107.5 46t-45.5 106z" />
    <glyph glyph-name="fl" unicode="fl" 
d="M1215 78v-78q-138 7 -267 7q-127 0 -268 -7v78q89 5 99 7q16 4 23.5 12t11.5 22q7 30 10 184t3 287v329q0 15 -5 211q-3 133 -11 156q-3 10 -12 15q-22 12 -89 13l-1 -61l-32 -12q-30 31 -54.5 42t-54.5 11q-41 0 -66.5 -14.5t-36.5 -37.5t-13 -70q-4 -90 -3 -145l2 -137
q44 -3 63 -3q121 0 180 10l7 -8l-20 -123l-232 -1v-374l2 -155q0 -105 8 -127q4 -9 14 -14q27 -14 133 -17v-78q-121 4 -256 4q-146 0 -291 -4v74l88 9q21 3 30 9t14 17q9 19 11 63l2 149v319l-4 125q-36 -2 -137 -6v45l95 62q20 12 40 30q0 35 -2 121q5 90 9 105t16 32
q24 37 59 73q14 14 87 78q38 33 84.5 82t76.5 65q50 29 103 29q38 0 63 -7q8 -2 17 -12v-67q84 8 147 22l207 57l18 -11l-9 -202q-5 -170 -5 -417v-257q-1 -145 1 -212q4 -209 8 -244q2 -20 8.5 -28t22 -13.5t106.5 -11.5z" />
    <glyph glyph-name=".notdef" horiz-adv-x="1536" 
d="M256 0v1280h1024v-1280h-1024zM288 32h960v1216h-960v-1216z" />
    <glyph glyph-name="uni0000" horiz-adv-x="0" 
 />
    <glyph glyph-name="uni0000" horiz-adv-x="0" 
 />
    <glyph glyph-name="uni0000" horiz-adv-x="0" 
 />
    <glyph glyph-name="nonmarkingreturn" unicode="&#x9;" horiz-adv-x="512" 
 />
    <glyph glyph-name="nonmarkingreturn" unicode="&#xd;" horiz-adv-x="512" 
 />
    <glyph glyph-name="nonmarkingreturn" unicode="&#xa;" horiz-adv-x="512" 
 />
    <glyph glyph-name="space" unicode=" " horiz-adv-x="512" 
 />
    <glyph glyph-name="exclam" unicode="!" horiz-adv-x="569" 
d="M246 415q-8 41 -17 123q-16 158 -33 270q-42 282 -46 322q-12 105 -12 142q0 14 2 41q28 16 55 28l150 63l103 -1q1 -30 1 -45q0 -66 -22 -220l-46 -334l-50 -355l-76 -42zM290 289q64 0 109.5 -45.5t45.5 -110.5q0 -64 -45.5 -110t-109.5 -46q-65 0 -110.5 46t-45.5 110
q0 65 45.5 110.5t110.5 45.5z" />
    <glyph glyph-name="quotedbl" unicode="&#x22;" horiz-adv-x="823" 
d="M113 787l-74 440l-5 30q-5 30 -5 48q0 37 16.5 72.5t50 55t66.5 19.5t66 -19.5t50 -55t17 -72.5q0 -22 -7 -53q-4 -16 -5 -25l-72 -440h-98zM611 787l-72 438l-6 32q-5 28 -5 48q0 37 18.5 72.5t49.5 55t65 19.5q33 0 65.5 -19.5t50 -55t17.5 -72.5q0 -23 -6 -57
q-4 -14 -6 -23l-72 -438h-99z" />
    <glyph glyph-name="numbersign" unicode="#" horiz-adv-x="1241" 
d="M332 336l-58 -336h-74l58 336h-179l32 170h176l72 418h-175l32 170h172l53 305h74l-53 -305h211l53 305h74l-53 -305h180l-32 -170h-177l-72 -418h176l-32 -170h-173l-58 -336h-74l58 336h-211zM644 924h-211l-72 -418h211z" />
    <glyph glyph-name="dollar" unicode="$" horiz-adv-x="1024" 
d="M66 53l-6 12q19 122 22 313h82q3 -109 4 -118q2 -25 12 -53q88 -117 279 -125v492q-133 17 -201.5 43.5t-114 76t-65 112t-19.5 135.5q0 131 38 209t133 142t229 79v109h86q0 -15 -2 -37t-3 -68q213 -7 347 -76v-13q-11 -49 -15 -93l-12 -190h-81q-3 51 -3 82q0 35 -3 53
q-1 11 -8 29q-29 39 -85 66.5t-140 31.5v-442q152 -22 242.5 -62.5t137.5 -115.5t47 -195q0 -114 -38 -199t-96 -140.5t-124.5 -86t-168.5 -46.5v-87q5 -103 5 -117h-93q5 94 7 198q-121 1 -202.5 18t-190.5 63zM459 1260q-74 -18 -105 -40q-40 -29 -63 -78t-23 -106
q0 -78 44 -128.5t147 -68.5v421zM540 89q104 26 155 92t51 160q0 57 -21.5 101t-70 73t-114.5 38v-464z" />
    <glyph glyph-name="percent" unicode="%" horiz-adv-x="1821" 
d="M869 199q0 179 134 327t312 148q114 0 184 -71t70 -170q0 -76 -26.5 -161t-78 -159t-133.5 -124.5t-187 -50.5q-129 0 -202 71t-73 190zM288 -260h-98l971 1611q-53 -60 -121 -95t-133 -35q-66 0 -108.5 18t-71.5 48q12 -21 18 -49t6 -55q0 -102 -30.5 -193.5
t-119.5 -190t-264 -98.5q-119 0 -193 70t-74 200q0 173 130 320.5t313 147.5q59 0 112.5 -24.5t83.5 -69.5q30 -32 77 -51.5t116 -19.5q87 0 185 72t158 167q11 -4 23.5 -7t21.5 -3q12 0 23 -1l22 -2q10 0 14 1q-17 -21 -44.5 -62t-61.5 -98t-314 -526t-418.5 -701
t-222.5 -374zM1117 419q-36 -80 -51.5 -142t-15.5 -120q0 -83 33 -129t95 -46q66 0 124 57t96 136.5t60 156t22 130.5q0 74 -36 118t-102 44q-71 0 -127.5 -59t-97.5 -146zM668 1214q0 75 -34.5 125.5t-98.5 50.5q-69 0 -126 -49.5t-99.5 -153.5t-54.5 -158t-12 -109
q0 -81 35 -124t99 -43q63 0 112 41.5t92 123t65 159.5t22 137z" />
    <glyph glyph-name="ampersand" unicode="&#x26;" horiz-adv-x="1706" 
d="M1646 254l29 -65q-32 -29 -97.5 -100t-93.5 -107q-72 -16 -118 -16q-86 0 -159 26q-105 36 -218 119q-92 -73 -194.5 -109.5t-231.5 -36.5q-230 0 -349 124.5t-119 281.5q0 115 58 201q80 118 264 205q-38 85 -53 147t-15 126q0 87 34 126l96 111q67 78 91 91
q84 45 176 45q68 0 122 -27t82 -79t28 -115q0 -90 -63 -182.5t-263 -217.5q92 -139 206.5 -265.5t220.5 -206.5q34 56 49 101.5t15 91.5q0 36 -10 77.5t-29 72.5h-180l-9 12q21 33 31 52l34 74q194 -5 227 -5q272 0 418 16l9 -8q-22 -61 -27.5 -86t-8.5 -60l-9 -11
q-125 10 -141 10q-40 2 -152 4q10 -48 10 -84q0 -75 -29.5 -145t-107.5 -166q68 -48 154 -74t163 -26q23 0 38 4.5t35 16.5zM609 886q97 68 142.5 132.5t45.5 136.5q0 64 -36 102.5t-90 38.5q-57 0 -95.5 -41t-38.5 -110q0 -109 72 -259zM457 692q-53 -32 -84.5 -82.5
t-31.5 -116.5q0 -98 53.5 -190.5t137 -143t171.5 -50.5q101 0 200 64q-146 123 -246.5 240t-199.5 279z" />
    <glyph glyph-name="quotesingle" unicode="'" horiz-adv-x="465" 
d="M182 787l-72 442l-9 42q-3 22 -3 34q0 37 16 72.5t50 55t67 19.5t66.5 -19.5t50 -54t16.5 -73.5q0 -22 -7 -53q-3 -16 -5 -27l-72 -438h-98z" />
    <glyph glyph-name="parenleft" unicode="(" horiz-adv-x="682" 
d="M570 -217q-95 56 -197 173.5t-161 244.5q-44 94 -64 191.5t-20 226.5q0 183 44.5 330.5t152 292t241.5 236.5l53 -47q-88 -107 -126 -184t-62 -213q-32 -180 -32 -429q0 -313 53.5 -481t166.5 -289z" />
    <glyph glyph-name="parenright" unicode=")" horiz-adv-x="682" 
d="M107 1478q96 -56 197.5 -173.5t160.5 -244.5q45 -94 64.5 -191.5t19.5 -226.5q0 -183 -44.5 -330.5t-152 -292t-241.5 -236.5l-53 47q89 107 126.5 184t61.5 213q33 180 33 429q0 313 -54 481t-167 289z" />
    <glyph glyph-name="asterisk" unicode="*" horiz-adv-x="909" 
d="M402 1110l-115 -242l-42 -3l-76 57l-16 38l198 186l-262 34l-19 43l28 90l33 22l238 -129l-53 264l35 25h96l34 -25l-51 -265l233 130l35 -22l30 -92l-19 -41l-259 -35l196 -185l-11 -38l-78 -57l-42 3z" />
    <glyph glyph-name="plus" unicode="+" horiz-adv-x="1241" 
d="M698 666h444v-147h-444v-443h-150v443h-444v147h444v447h150v-447z" />
    <glyph glyph-name="comma" unicode="," horiz-adv-x="512" 
d="M0 -315q71 136 110.5 261.5t57.5 269.5q152 31 163 34q44 12 107 38l36 -34q-40 -95 -132.5 -260t-168.5 -272l-143 -62z" />
    <glyph glyph-name="hyphen" unicode="-" horiz-adv-x="682" 
d="M581 395h-532l-15 15q16 29 32 78q24 78 35 130h527l19 -20q-20 -35 -34.5 -77.5t-31.5 -125.5z" />
    <glyph glyph-name="period" unicode="." horiz-adv-x="512" 
d="M255 290q65 0 110.5 -45.5t45.5 -110.5t-46 -111t-110 -46q-65 0 -111 46t-46 111t45.5 110.5t111.5 45.5z" />
    <glyph glyph-name="slash" unicode="/" horiz-adv-x="606" 
d="M-19 -238l493 1835h157l-493 -1835h-157z" />
    <glyph glyph-name="zero" unicode="0" horiz-adv-x="1024" 
d="M69 633q0 174 25 318q16 93 58 171t96 127t125.5 75t153.5 26q165 0 257 -71.5t133 -203t41 -365.5q0 -165 -16.5 -288.5t-59.5 -211.5t-97 -140t-122 -78.5t-164 -26.5q-114 0 -199 43.5t-138.5 128.5t-73 211.5t-19.5 284.5zM312 772q0 -225 23 -406t73.5 -240
t116.5 -59q81 0 134 83t53 403q0 209 -26 416q-14 111 -38.5 166.5t-61 81.5t-84.5 26q-54 0 -95 -32.5t-63 -109.5q-32 -108 -32 -329z" />
    <glyph glyph-name="one" unicode="1" horiz-adv-x="1024" 
d="M155 0v81l189 20q30 4 44 17.5t21 54.5q13 78 13 347v240q0 124 -3 268l-3 86q0 32 -6 41t-15 9q-6 0 -44 -17q-195 -86 -248 -114l-12 7q-4 20 -10 64q-5 33 -11 61l1 7q179 52 284.5 87t329.5 119l22 -15q0 -16 -6 -94t-6 -100q-3 -87 -8 -445v-148q0 -217 2 -301
q3 -128 13 -150q6 -13 20 -20q24 -13 144 -18q34 -1 65 -6v-81q-217 10 -352 10q-92 0 -424 -10z" />
    <glyph glyph-name="two" unicode="2" horiz-adv-x="1024" 
d="M54 0v103l185 184q144 146 214 227t109 150t54.5 124.5t15.5 113.5q0 115 -59 175t-160 60q-57 0 -107.5 -23t-86.5 -69q-18 -61 -41 -158h-77l26 229q6 53 12 111q65 63 150.5 94t190.5 31q148 0 239.5 -48.5t136.5 -135t45 -177.5q0 -59 -17 -115.5t-59.5 -124
t-89.5 -119.5l-113 -115l-105 -103q-83 -82 -179 -169l3 -13h176q40 0 265 5q72 2 176 8l8 -13q-10 -88 -10 -138q0 -32 7 -83l-5 -11l-295 8q-100 3 -143 3z" />
    <glyph glyph-name="three" unicode="3" horiz-adv-x="1024" 
d="M99 18q-5 40 -23.5 151t-27.5 152l67 20q38 -91 83.5 -148t107.5 -84t129 -27q112 0 181 72t69 194q0 130 -75.5 194.5t-190.5 64.5q-55 0 -118 -17l-12 12l2 13l17 59l19 78l9 1l73 -1q54 0 107 28.5t82 78.5t29 106q0 78 -56 131t-147 53q-59 0 -108 -18.5t-71.5 -46.5
t-46.5 -98q-10 -28 -16 -42l-73 5l44 203q9 44 16 103q65 49 146.5 73t179.5 24q175 0 268 -82.5t93 -204.5q0 -93 -55 -165.5t-168 -132.5q22 0 61 -8q50 -11 96.5 -36.5t80 -63t49.5 -84.5t16 -114q0 -193 -154 -331q-185 -165 -438 -165q-72 0 -125.5 12t-119.5 41z" />
    <glyph glyph-name="four" unicode="4" horiz-adv-x="1024" 
d="M291 0v82q160 11 183 16t32 16q12 14 18 59q2 17 7 175h-132q-181 0 -359 -4l-14 82q26 75 127 270q139 269 235 423t139 206l118 23q115 24 133 26l18 -17q-7 -70 -12 -211q-3 -92 -6 -409v-226l36 -1l142 6l6 -11l-3 -86q0 -22 3 -72l-63 1h-121q-2 -151 5 -202
q3 -22 15.5 -34.5t40.5 -18.5l129 -14v-79q-47 0 -79 1l-255 7zM173 511h359l4 364l2 130l5 187q-141 -226 -201.5 -337t-168.5 -344z" />
    <glyph glyph-name="five" unicode="5" horiz-adv-x="1024" 
d="M186 564l-39 21q6 53 8 151l5 160v131l-4 110q-1 74 -2 88q-1 26 -3 51t-6 57l13 10q241 -10 416 -10q67 0 106 1l189 9l9 -16q-12 -109 -12 -141q0 -26 3 -68l-10 -13q-39 2 -88 3q-161 3 -207 3q-212 0 -296 -7l-8 -317q85 40 143.5 54t127.5 14q185 0 291 -101.5
t106 -268.5q0 -133 -76 -258t-234 -203q-119 -59 -277 -59q-67 0 -113 9t-117 37q-6 44 -16 88.5t-51 198.5l66 23q34 -76 78.5 -126.5t110.5 -80.5t135 -30q110 0 181 74.5t71 203.5q0 134 -73 209t-198 75q-50 0 -89 -10.5t-66 -24.5q-15 -7 -74 -47z" />
    <glyph glyph-name="six" unicode="6" horiz-adv-x="1024" 
d="M813 1352l79 -64l-31 -33q-38 5 -68 5q-95 0 -181 -47t-142.5 -126t-86.5 -180q-22 -74 -37 -232q123 113 146 127q16 10 66.5 22t99.5 12q115 0 208.5 -92t93.5 -288q0 -224 -125.5 -357.5t-317.5 -133.5q-152 0 -248.5 75t-143 192.5t-46.5 297.5q0 214 62 360
t168.5 249.5t232.5 158t271 54.5zM340 427q0 -170 51 -264.5t150 -94.5q78 0 128 64t50 216q0 111 -27.5 179.5t-75 100t-100.5 31.5q-50 0 -93 -26t-63 -72t-20 -134z" />
    <glyph glyph-name="seven" unicode="7" horiz-adv-x="1024" 
d="M191 0l-10 22q237 409 282 484q171 286 187 315l139 256l-7 18h-253l-159 -3q-101 -1 -124 -7q-14 -4 -21 -12q-11 -10 -16 -32q-10 -35 -28 -186l-83 3q6 131 6 221q0 95 -6 253l13 11l262 -8q94 -2 205 -2q74 0 429 5v-91q-149 -271 -186 -343q-103 -201 -165.5 -334.5
t-140.5 -319.5q-60 -147 -97 -250q-63 5 -109 5q-43 0 -118 -5z" />
    <glyph glyph-name="eight" unicode="8" horiz-adv-x="1024" 
d="M311 657q-81 47 -118.5 85.5t-60 98t-22.5 130.5q0 115 57.5 202.5t149 133t228.5 45.5q167 0 259 -85t92 -208q0 -66 -26.5 -122t-74.5 -102q-27 -26 -90 -66q85 -36 129.5 -70.5t70.5 -76t38.5 -92t12.5 -108.5q0 -143 -70.5 -252t-199.5 -166q-89 -39 -212 -39
q-116 0 -193 36q-54 25 -102.5 71t-77 107t-28.5 147q0 67 19 121t54 94.5t72 64.5q8 5 93 51zM605 805q57 38 89 97.5t32 127.5q0 98 -59 156.5t-158 58.5q-86 0 -139 -52t-53 -130q0 -31 9.5 -58t29.5 -53t49 -47t74 -43l72 -34zM397 618q-71 -54 -106.5 -121.5
t-35.5 -147.5q0 -122 74 -199.5t181 -77.5q96 0 159.5 66t63.5 165q0 72 -25 119.5t-84.5 86.5t-199.5 98z" />
    <glyph glyph-name="nine" unicode="9" horiz-adv-x="1024" 
d="M209 -35l-78 64l24 38q34 -11 72 -11q100 0 186 48.5t141.5 128t85.5 178.5q21 74 37 231q-97 -89 -132 -116q-13 -11 -34 -21q-71 -24 -143 -24q-129 0 -217.5 98.5t-88.5 281.5q0 224 125.5 357.5t318.5 133.5q151 0 247.5 -75t143 -192.5t46.5 -298.5
q0 -213 -61.5 -359t-168.5 -249.5t-232.5 -158t-271.5 -54.5zM682 890q0 170 -51 264.5t-150 94.5q-77 0 -127.5 -64t-50.5 -216q0 -111 28 -179.5t75.5 -100.5t100.5 -32q49 0 92.5 26.5t63 72.5t19.5 134z" />
    <glyph glyph-name="colon" unicode=":" horiz-adv-x="512" 
d="M256 929q65 0 110.5 -45.5t45.5 -110.5t-46 -111t-110 -46q-65 0 -111 46t-46 111t45.5 110.5t111.5 45.5zM256 290q65 0 110.5 -45.5t45.5 -110.5t-46 -111t-110 -46q-65 0 -111 46t-46 111t45.5 110.5t111.5 45.5z" />
    <glyph glyph-name="semicolon" unicode=";" horiz-adv-x="512" 
d="M266 929q65 0 110.5 -45.5t45.5 -110.5t-46 -111t-110 -46q-65 0 -111 45.5t-46 111.5q0 65 45.5 110.5t111.5 45.5zM-53 -315q71 136 110.5 261.5t57.5 269.5q152 31 163 34q44 12 107 38l36 -34q-40 -95 -132.5 -260t-168.5 -272l-143 -62z" />
    <glyph glyph-name="less" unicode="&#x3c;" horiz-adv-x="1241" 
d="M40 470v121l1062 447l73 -137l-881 -368l881 -334l-107 -139z" />
    <glyph glyph-name="equal" unicode="=" horiz-adv-x="1241" 
d="M72 847h1101v-152h-1101v152zM72 484h1101v-152h-1101v152z" />
    <glyph glyph-name="greater" unicode="&#x3e;" horiz-adv-x="1241" 
d="M1200 625v-121l-1062 -447l-73 137l881 368l-881 334l107 139z" />
    <glyph glyph-name="question" unicode="?" horiz-adv-x="909" 
d="M365 389q-24 27 -39.5 67.5t-15.5 79.5q0 51 22 101t80 119l54 64q46 54 73.5 113t27.5 107q0 73 -51.5 122.5t-132.5 49.5q-62 0 -110 -16q-31 -10 -45 -30q-29 -42 -66 -146l-74 12q3 18 27 101.5t29 104.5q7 32 12 73q57 49 138 73.5t171 24.5q189 0 283 -95t94 -219
q0 -87 -43 -163.5t-142 -152.5l-68 -53q-111 -86 -154 -150q-25 -38 -25 -72q0 -33 23 -86zM400 289q65 0 110 -45.5t45 -110.5q0 -64 -45.5 -109.5t-109.5 -45.5q-65 0 -110.5 45.5t-45.5 109.5q0 65 45.5 110.5t110.5 45.5z" />
    <glyph glyph-name="at" unicode="@" horiz-adv-x="1530" 
d="M1266 254l-14 -72q-82 -61 -157.5 -102t-171.5 -66t-215 -25q-283 0 -481.5 169.5t-198.5 463.5q0 339 225 573.5t599 234.5q315 0 482.5 -165.5t167.5 -424.5q0 -199 -117.5 -347.5t-278.5 -148.5q-76 0 -137 51t-61 153q-73 -113 -144.5 -154.5t-163.5 -41.5
q-99 0 -161.5 73.5t-62.5 200.5q0 235 105.5 393.5t274.5 158.5q73 0 129.5 -32t98.5 -110l44 108l192 10l-108 -512q-8 -43 -12 -76t-4 -70q0 -41 21.5 -60.5t54.5 -19.5q90 0 161 112.5t71 309.5q0 226 -141.5 376t-414.5 150q-282 0 -462 -205.5t-180 -502.5
q0 -274 166.5 -430t395.5 -156q152 0 264.5 46t233.5 138zM688 454q78 0 130.5 71.5t72.5 135.5t36.5 151t16.5 142q0 65 -33 105.5t-93 40.5q-70 1 -112.5 -72t-71 -152.5t-41.5 -147.5t-13 -130q4 -71 30 -107.5t78 -36.5z" />
    <glyph glyph-name="A" unicode="A" horiz-adv-x="1593" 
d="M49 0v83q81 6 96.5 10.5t26.5 14t22.5 30t68.5 152.5q26 62 100 245l261 644l88 227h142l447 -1044l62 -137l40 -92q10 -18 19 -26t20.5 -12t58.5 -7q15 -2 44 -5v-83l-278 6l-351 -6v83q121 5 136.5 13.5t15.5 28.5q0 25 -23 82l-86 220h-514l-44 -120
q-50 -138 -50 -172q0 -24 16 -34q24 -14 143 -18v-83l-231 6zM491 541q94 -3 213 -3q115 0 206 3l-214 516z" />
    <glyph glyph-name="B" unicode="B" horiz-adv-x="1366" 
d="M160 0v47q53 31 88 62q6 49 8 120q4 146 4 531q0 103 -5 321q-3 168 -11 192q-5 15 -15 21q-21 14 -150 22v83q22 0 46 -1l138 -4q68 -1 169 -1q100 0 157 2q144 6 188 6q165 0 254.5 -34t131 -98.5t41.5 -144.5q0 -86 -47.5 -160t-121.5 -115q-44 -25 -196 -67
q182 -22 253.5 -58t114.5 -112.5t43 -170.5q0 -99 -44 -179.5t-113.5 -137.5t-159.5 -90.5t-225 -33.5l-336 6q-81 0 -212 -6zM539 822l58 -1q68 0 126 11t94 38.5t60.5 82t24.5 125.5q0 72 -28 122.5t-73 72t-135 21.5q-65 0 -118 -8q-6 -72 -7 -166l-2 -155v-143zM543 112
q33 -7 124 -7q124 0 200.5 81.5t76.5 233.5q0 108 -40 175t-106 94.5t-182 27.5q-41 0 -77 -4v-456l2 -119q0 -5 2 -26z" />
    <glyph glyph-name="C" unicode="C" horiz-adv-x="1479" 
d="M1427 181l-46 -101q-125 -66 -224.5 -90.5t-248.5 -24.5q-212 0 -375 67q-128 54 -217 143t-137 193q-73 157 -73 341q0 315 215.5 514.5t608.5 199.5q135 0 242.5 -20t249.5 -71l5 -13q-16 -47 -25 -118q-15 -113 -19 -209h-78q-2 110 -10 176q-67 70 -150.5 104.5
t-213.5 34.5q-235 0 -376 -148.5t-141 -414.5q0 -161 47.5 -281t126.5 -198.5t159 -114.5q109 -48 264 -48q102 0 193 23t198 79z" />
    <glyph glyph-name="D" unicode="D" horiz-adv-x="1706" 
d="M131 0v48q8 5 28 16q38 21 70 44q11 134 11 435v164q0 132 -5 387q-3 141 -13 180q-3 9 -8 14q-8 8 -25 12t-126 18v81l363 -6q64 0 241 5q128 3 205 3q177 0 283.5 -21.5t185.5 -69t133.5 -112.5t82.5 -140q47 -126 47 -276q0 -191 -70 -341t-192.5 -251t-265.5 -145.5
t-345 -44.5l-297 6zM531 122q93 -14 178 -14q133 0 236 28q76 21 133 61t109.5 118t81.5 186t29 233q0 114 -29 220.5t-95 186.5t-167 116t-306 36q-77 0 -170 -13q-10 -142 -10 -535v-230q0 -298 10 -393z" />
    <glyph glyph-name="E" unicode="E" 
d="M123 0v54q60 28 98 58q6 42 10 136q8 172 8 250v450q0 26 -3 195q-3 113 -14 138q-5 10 -15 15q-27 12 -144 18v85l232 -5q69 -1 132 -1q137 0 305 3l203 5q36 0 146 -4q10 0 33 -6l7 -13l-19 -144q-1 -15 -10 -144h-78q-2 118 -9 145q-4 14 -12 20q-13 9 -80 16
q-99 11 -194 11q-89 0 -182 -7q-14 -113 -14 -287v-205q68 -5 142 -5q23 0 166 4q54 1 63.5 7t14.5 21q12 38 14 127h81l-4 -220l4 -219h-86q1 116 -15 143q-12 20 -43 25q-69 11 -177 11q-97 0 -160 -6v-424q0 -71 3 -122q81 -6 192 -6q108 0 199.5 7t112.5 20q7 4 13 18
q18 48 38 182h82q-22 -198 -22 -326l-13 -13q-64 -7 -182 -7l-161 3q-238 3 -328 3q-24 0 -334 -6z" />
    <glyph glyph-name="F" unicode="F" horiz-adv-x="1139" 
d="M970 486h-80q-3 125 -17 151q-7 13 -36 19q-74 13 -234 13q-23 0 -80 -1v-111q0 -237 5.5 -332.5t15.5 -111.5q7 -11 25 -17.5t157 -16.5v-79l-392 7q-85 0 -269 -7v83q115 2 133 9q9 3 15 11q9 12 14 52q3 23 8 144.5t5 174.5v414q0 14 -9 280q-2 77 -11 109
q-3 11 -9.5 16.5t-28 10.5t-117.5 11v84l355 -6l481 8q101 0 191 -10l9 -14q-11 -57 -19 -145t-9 -154h-82q0 24 -5 108q-2 44 -6 53q-3 7 -9 10q-18 12 -83.5 23.5t-153.5 11.5q-17 0 -94.5 -3t-105.5 -5q-11 -100 -11 -361v-140q128 -4 173 -4q130 0 164 12q13 4 19 23
q9 25 11 114h87q-7 -170 -7 -434z" />
    <glyph glyph-name="G" unicode="G" horiz-adv-x="1706" 
d="M1465 994h-80q0 32 -4 95q-3 44 -10 75q-25 30 -54 49q-65 44 -150 69t-192 25q-250 0 -400.5 -155t-150.5 -426q0 -296 158.5 -470.5t388.5 -174.5q67 0 130.5 14t124.5 41q3 27 5 104t2 93q0 96 -8 114q-6 12 -27 17q-35 10 -190 19v81l299 -4l301 4v-66
q-58 -12 -76 -33q-9 -10 -11 -55q-5 -115 -5 -165q0 -76 9 -156q-186 -68 -324.5 -96t-276.5 -28q-225 0 -398 76q-121 54 -207 139t-131 183q-71 152 -71 338q0 157 46.5 274t129.5 204.5t188.5 142t221 78t253.5 23.5q170 0 316.5 -31t228.5 -68l8 -19q-24 -88 -44 -311z
" />
    <glyph glyph-name="H" unicode="H" horiz-adv-x="1706" 
d="M71 0v88q95 2 116 6t31 11.5t14 21.5q10 30 11 139l4 199v468l-4 197q-1 111 -11 141q-4 14 -13.5 21.5t-30.5 12t-117 6.5v88q164 -6 346 -6q163 0 289 6v-88q-107 -4 -126 -8.5t-27 -14.5t-12 -70q-9 -102 -9 -294v-115q72 -6 302 -6q290 0 358 6v115q0 155 -2 199
q-8 133 -12 150q-3 12 -9.5 18.5t-24 11t-125.5 8.5v88q126 -6 289 -6q182 0 346 6v-88q-95 -2 -116 -6t-31 -11.5t-14 -21.5q-10 -31 -11 -139l-4 -200v-468l4 -196q1 -112 10 -141q5 -14 14.5 -22t30.5 -12t117 -6v-88q-164 6 -346 6q-163 0 -289 -6v88q107 4 126 8.5
t27 14.5t12 70q8 102 8 294v209q-50 7 -291 7q-231 0 -308 -2q-31 -1 -61 -5v-209q0 -156 3 -199q8 -133 12 -151q3 -11 9.5 -17.5t24 -11t125.5 -8.5v-88q-126 6 -289 6q-182 0 -346 -6z" />
    <glyph glyph-name="I" unicode="I" horiz-adv-x="797" 
d="M732 1399v-88q-101 -3 -120 -7.5t-27 -11t-11 -16.5q-7 -17 -10 -65q-2 -26 -3 -98q-4 -246 -4 -265v-403l3 -183q0 -103 10 -134q4 -14 13.5 -21.5t30 -12t118.5 -6.5v-88q-163 6 -348 6q-161 0 -287 -6v88q104 4 120 7q21 4 28.5 11t9.5 16q3 12 8 94q8 120 8 222v418
q0 199 -2 256q-5 127 -12 159q-3 13 -9.5 20t-24 11.5t-126.5 8.5v88q126 -6 289 -6q183 0 346 6z" />
    <glyph glyph-name="J" unicode="J" horiz-adv-x="797" 
d="M5 -239l23 13q48 -43 79 -57.5t64 -14.5q39 0 60 17t30.5 49t12.5 139q6 211 6 234v783q0 129 -3.5 232.5t-11.5 122.5q-4 10 -13 16q-13 9 -39 11l-136 5v88q193 -7 390 -7q165 0 283 7v-87q-102 -3 -122 -6q-26 -5 -38.5 -19t-15.5 -51q-7 -82 -7 -229v-364l2 -427
q0 -162 -29.5 -258t-97.5 -181q-47 -58 -113.5 -109.5t-130 -78t-117.5 -26.5q-39 0 -81 15q5 69 5 183z" />
    <glyph glyph-name="K" unicode="K" horiz-adv-x="1593" 
d="M1559 87v-87q-145 4 -250 4q-81 0 -156 -4q-25 51 -78 114l-195 224q-221 261 -235 275q-37 41 -58 51q-14 7 -24 7q-8 0 -14 -4q-5 -3 -6.5 -7t-1.5 -23v-225l3 -198q1 -79 13 -98q7 -11 27 -18t131 -11v-87q-164 6 -346 6q-162 0 -289 -6v87q104 5 134 14q11 4 18.5 13
t12 27.5t7.5 79.5q9 148 9 214v363l-7 310q-2 114 -9 151q-5 22 -11.5 29t-20.5 11q-22 6 -133 12v88q127 -6 290 -6q182 0 345 6v-88q-116 -3 -141 -16q-15 -9 -21 -38q-12 -65 -12 -247v-276l16 -7q94 75 258 244l142 145q69 71 97 102l88 103q1 21 -3 78q101 -2 136 -2
l235 2v-81q-93 -2 -135 -14.5t-104 -61.5t-254 -222l-190 -190q48 -60 143 -171l219 -257q152 -178 206 -236t79 -68.5t85 -10.5z" />
    <glyph glyph-name="L" unicode="L" 
d="M137 0v51q26 11 73 39q21 12 27 20q4 5 5 11q5 25 9 178.5t4 368.5q0 316 -2 390q-4 188 -13 215q-4 12 -15 18q-23 15 -153 20v88q127 -6 290 -6q182 0 345 6v-88q-113 -5 -138 -18q-11 -6 -16 -19.5t-9.5 -123.5t-4.5 -278q0 -18 1 -289q1 -143 1.5 -283.5t1.5 -170.5
q138 -6 188 -6q152 0 265 18q41 6 49 13t17 37q20 76 39 174h83q-3 -28 -3 -33l-25 -202q-8 -95 -9 -114q-29 -8 -58 -11q-61 -5 -189 -5q-18 0 -235 5q-165 4 -230 4q-98 0 -298 -9z" />
    <glyph glyph-name="M" unicode="M" horiz-adv-x="2048" 
d="M72 0v85q113 8 134 16q12 4 19 14q9 13 12 38q7 57 12 249q3 93 3 320q0 203 -3 359.5t-13 186.5q-4 14 -12.5 21.5t-32.5 11.5q-66 11 -119 13v85q206 -6 284 -6q103 0 207 6l88 -198l70 -150l318 -656q102 197 153 306l132 277q110 232 134.5 285.5t55.5 135.5
q131 -7 168 -7l298 7v-85h-14q-101 1 -128 -23.5t-27 -94.5q0 -83 -1 -126l-5 -281v-351q0 -128 1 -150q8 -127 14 -156q3 -14 11 -22.5t23 -13t126 -11.5v-85l-319 6l-312 -6v85q124 4 141.5 14.5t25 47.5t7.5 248v728l-232 -469l-111 -233q-44 -92 -124 -267
q-49 -106 -77 -171h-68q-36 84 -104 230q-116 250 -176 373l-263 537v-491q0 -123 3.5 -292.5t7.5 -192t12.5 -32.5t30 -17t122.5 -13v-85q-112 6 -229 6q-153 0 -243 -6z" />
    <glyph glyph-name="N" unicode="N" horiz-adv-x="1706" 
d="M79 85q118 6 135 11q11 4 18.5 13t12.5 37q6 38 14 184q4 83 4 216v321l-4 291q-1 73 -6 95t-14.5 32.5t-31.5 16.5t-128 13v84q127 -6 187 -6l145 3l92 3q206 -269 499 -620q211 -253 350 -396v231q0 538 -12 633q-4 37 -18 48q-23 18 -156 20v84q122 -6 224 -6
q99 0 255 6v-84q-122 -3 -145 -18q-8 -5 -11 -15q-15 -50 -19.5 -228.5t-4.5 -263.5q0 -665 13 -807l-13 -9q-84 14 -171 26q-323 361 -916 1084v-498q0 -155 6 -323q4 -116 12 -141q4 -12 13.5 -19.5t33.5 -10.5q65 -8 95 -8q6 0 20 1v-81q-190 2 -216 2q-97 0 -263 -6v85z
" />
    <glyph glyph-name="O" unicode="O" horiz-adv-x="1706" 
d="M108 683q0 183 55.5 319t158.5 231t224 137q155 53 338 53q182 0 330 -51q110 -39 194.5 -112.5t128.5 -150.5t66.5 -169t22.5 -203q0 -188 -65 -349q-48 -120 -140.5 -213t-210.5 -143q-162 -67 -370 -67q-225 0 -386.5 81.5t-253.5 240.5t-92 396zM416 742
q0 -233 64 -385.5t164 -215.5t236 -63q126 0 225.5 60t156 203t56.5 347q0 140 -30.5 256t-87.5 197.5t-134.5 124.5t-205.5 43q-146 0 -248.5 -68.5t-149 -202.5t-46.5 -296z" />
    <glyph glyph-name="P" unicode="P" 
d="M64 1316v83l296 -7l447 9q131 0 207 -27t130.5 -98t54.5 -184t-52.5 -210t-164 -159.5t-238.5 -62.5q-32 0 -62.5 3.5t-60.5 10.5q-10 28 -36 71l21 22q22 -7 41.5 -10.5t35.5 -3.5q97 0 160 68.5t63 199.5q0 137 -66 206t-184 69q-56 0 -125 -13q-5 -62 -6 -182l-3 -196
v-379q0 -140 4 -290q3 -87 11 -110q4 -10 13.5 -17.5t34.5 -11.5l135 -9v-88q-256 6 -385 6q-142 0 -271 -6v88q111 2 140 17q9 5 14 15q7 14 11 73q11 160 11 356v353l-4 188q-2 121 -4.5 151t-9.5 43q-4 8 -13.5 14t-34.5 11z" />
    <glyph glyph-name="Q" unicode="Q" horiz-adv-x="1706" 
d="M107 687q0 180 54.5 314.5t155.5 229t215 136.5q154 56 351 56q186 0 316.5 -46t222.5 -132.5t138 -184.5q63 -133 63 -322q0 -357 -207.5 -563t-570.5 -206q-184 0 -319 51t-220 134.5t-130 182.5q-69 152 -69 350zM414 737q0 -303 119 -480.5t348 -177.5
q122 0 222 59.5t156.5 198.5t56.5 342q0 127 -26 244.5t-80.5 205t-137 134.5t-214.5 47q-119 0 -210 -45q-68 -34 -121.5 -102t-83 -178t-29.5 -248zM444 -305l-22 65q27 25 87 66q116 80 151 100t91 42q114 -18 335 -96q152 -53 179 -62q59 -18 113 -28q38 -7 64 -7
q27 0 52 5q17 3 32 9l82 35v-76q-39 -22 -148 -89q-42 -27 -64 -44q-23 0 -100 13q-101 18 -248 62q-199 59 -272 76q-99 21 -133 21q-29 0 -56 -11q-37 -16 -143 -81z" />
    <glyph glyph-name="R" unicode="R" horiz-adv-x="1479" 
d="M82 1316v82q23 0 160 -4q67 -2 190 -2q105 0 180 4q124 5 205 5q157 0 235 -22.5t133 -93.5t55 -173q0 -121 -75 -220t-231 -157q25 -45 57 -92t37.5 -57t11.5 -19l155 -233q62 -93 67 -100q75 -100 92 -118t33 -25t63 -8v-83q-154 4 -223 4q-80 0 -159 -4q-5 22 -24 57
l-214 353q-92 152 -156 239q-32 44 -62 66l11 33q120 -4 181 24.5t103 102t42 164.5q0 92 -44 153t-109 85q-42 15 -150 15q-48 0 -95 -8q-3 -36 -6 -162q-6 -283 -6 -378q0 -150 3 -318q4 -206 6 -234q3 -56 11 -73q4 -8 13 -14.5t29 -10.5t116 -6v-88q-171 6 -346 6
q-156 0 -289 -6v88q114 4 135 11q12 3 17.5 10t8.5 28q7 39 10 118l8 292v371l-4 211q-2 125 -12 150q-5 11 -15 17q-24 12 -148 20z" />
    <glyph glyph-name="S" unicode="S" 
d="M1031 1033h-84q-2 116 -10 164q-31 44 -107.5 78t-171.5 34q-136 0 -210.5 -68.5t-74.5 -160.5q1 -66 22 -107t60 -65t115 -44q58 -12 161.5 -30t134.5 -25q81 -21 131 -50.5t79.5 -68t48.5 -97t19 -131.5q0 -128 -53 -225q-40 -73 -111 -133.5t-146 -90.5
q-120 -48 -288 -48q-123 0 -219 23t-211 79q31 114 32 347h84q-2 -72 11 -179q38 -62 130 -109t201 -47q95 0 169.5 33.5t108 92.5t33.5 134q0 63 -23.5 108t-73.5 72t-176 56q-181 38 -238 55q-86 26 -138.5 75t-78.5 118.5t-26 149.5q0 112 47 206.5t124 146.5t174 74.5
t199 22.5q106 0 205.5 -19t172.5 -55l8 -24q-14 -65 -20.5 -127.5t-9.5 -164.5z" />
    <glyph glyph-name="T" unicode="T" horiz-adv-x="1366" 
d="M360 0v82q120 4 142.5 16t30.5 40q11 43 11 259v599q0 245 -3 274h-143q-108 0 -190 -7q-33 -3 -38 -8q-7 -6 -12 -35q-13 -70 -15 -157h-83q-4 205 -5 231q-3 44 -10 95l9 10q47 -5 100 -7q86 -3 331 -3h404q252 0 337 3q46 2 93 7l10 -10q-9 -61 -11 -107
q-1 -8 -4 -219h-83q-2 78 -13 149q-6 36 -13 43q-6 5 -32 7q-82 8 -197 8h-143q-3 -35 -3 -274v-599q0 -216 11 -260q7 -26 30 -38.5t143 -16.5v-82q-194 9 -327 9q-142 0 -327 -9z" />
    <glyph glyph-name="U" unicode="U" horiz-adv-x="1593" 
d="M55 1316v83l325 -6l135 2l135 3l37 1v-83q-108 0 -137 -19q-15 -9 -20 -35q-14 -62 -14 -273v-232l1 -117q0 -183 4 -226q9 -94 47 -151.5t116.5 -93t199.5 -35.5q139 0 221.5 47.5t117.5 123.5t35 289v204q0 264 -1 322q-3 126 -14 152q-7 16 -23 24q-33 17 -144 20v83
q181 -7 215 -7q9 0 27 1l222 6v-83q-93 0 -117 -15q-12 -8 -19.5 -30.5t-14.5 -202.5t-7 -284v-235q0 -90 -13 -186t-52.5 -164t-111.5 -123t-171 -83t-229 -28q-152 0 -284 41q-96 30 -157 80.5t-93 113t-39 120.5q-5 36 -5 194l1 192v254q0 140 -6 252q-3 44 -12 64
q-5 11 -25 26z" />
    <glyph glyph-name="V" unicode="V" horiz-adv-x="1593" 
d="M743 -7q-85 210 -163 399l-142 339q-167 399 -205.5 475.5t-58.5 87.5q-30 16 -124 18v87q240 -7 292 -7l359 7v-87q-84 -1 -122 -10q-22 -5 -30.5 -14.5t-8.5 -24.5q0 -30 66 -190q38 -92 40.5 -99.5t6.5 -18.5l253 -617l222 550q8 19 71 189q45 120 55 161q2 12 2 24
q0 17 -5.5 25.5t-14.5 12.5q-7 3 -36 5q-65 6 -110 7v87l254 -6l216 6v-87q-97 -9 -113 -21q-27 -21 -113 -227l-71 -166l-135 -322q-172 -412 -233 -583h-152z" />
    <glyph glyph-name="W" unicode="W" horiz-adv-x="2048" 
d="M1078 1416h92q37 -102 73 -193q156 -400 188 -476l120 -296l116 448q67 266 77 326q3 16 3 30q0 21 -9.5 33t-28.5 17q-9 2 -126 11v83q179 -7 217 -7l236 7v-83q-15 -1 -22 -2q-63 -4 -77 -12t-27 -29t-68.5 -206t-163 -593.5t-118.5 -480.5h-153l-108 290l-273 694
q-43 -94 -307 -718l-107 -266h-146l-232 1064q-38 176 -54 211q-11 25 -30 34q-24 12 -104 14v83l279 -6l327 6v-83q-88 -3 -97 -4q-28 -4 -40 -15.5t-12 -34.5q0 -11 1.5 -25.5t20.5 -115.5q37 -199 54 -278l89 -405q11 27 84 202l126 293l159 381q20 48 41 102z" />
    <glyph glyph-name="X" unicode="X" horiz-adv-x="1366" 
d="M39 0v83q77 6 92 10q11 3 18 8q13 9 46 48q44 54 143 185q77 104 101 133l136 185l-76 133l-132 226q-66 113 -131 188q-43 51 -67 63q-16 8 -38 8q-15 0 -73 -4l-11 77l260 55q64 13 113 25q31 -20 52 -40.5t47.5 -59t80.5 -131.5q6 -10 50 -91l113 -208l130 188
l164 238v80q92 -4 134 -4q38 0 139 4v-85q-72 -1 -97 -12q-15 -7 -50 -47q-66 -74 -218 -278l-114 -154l-26 -38q9 -17 82 -148q50 -91 61 -109l128 -218q42 -71 51 -85q49 -77 70 -105q12 -15 22 -21.5t23 -8.5q31 -7 45 -7h23v-83q-204 3 -229 3q-73 0 -161 -3
q-32 41 -98 161l-207 382q-80 -112 -118 -168.5t-83.5 -124.5t-109.5 -171v-79q-79 2 -136 2q-112 0 -149 -2z" />
    <glyph glyph-name="Y" unicode="Y" horiz-adv-x="1366" 
d="M808 735l126 204q32 55 190 335q55 96 69 125h157v-45q-121 -163 -261 -383t-173 -283q-22 -43 -29 -75q-6 -23 -6 -75v-169q0 -127 6.5 -185t15.5 -70t30 -18t132 -8v-88q-191 6 -345 6q-150 0 -304 -6v88q114 4 133.5 9t27 15t10.5 60q6 114 6 194v190q0 23 -38 95
q-94 172 -201 339q-87 136 -162 218q-50 54 -71 65q-13 6 -88 6v75l212 42q54 12 111 27q61 -34 89 -60.5t77 -99.5q73 -108 145 -249q117 -227 141 -279z" />
    <glyph glyph-name="Z" unicode="Z" horiz-adv-x="1366" 
d="M52 0v80q48 59 144 190q162 224 228 320l187 271q90 131 140 207q124 187 138 207h-232q-128 -1 -256 -6q-94 -4 -116 -15q-8 -4 -11 -11q-11 -23 -24 -114q-6 -36 -10 -59h-81q8 141 8 206q0 35 -2 123q182 -5 204 -5q250 -1 443 -1q73 0 154 1l309 5v-70
q-187 -249 -305 -421l-296 -428q-29 -42 -75.5 -113t-114.5 -175q-25 -37 -43 -66l186 -2q283 0 410 10q93 7 106 19q19 18 40 124q12 59 18 84h81q-19 -170 -33 -357h-38l-191 -4l-129 3l-258 2l-263 3z" />
    <glyph glyph-name="bracketleft" unicode="[" horiz-adv-x="682" 
d="M155 1471l6 7q20 1 68 -1q142 -5 149 -5q30 0 249 6v-80q-80 0 -154 -9q-31 -4 -42.5 -12.5t-20 -28t-11.5 -103.5q-5 -120 -5 -247l-1 -183v-369l1 -182q0 -145 6 -300q3 -36 12 -58q11 -20 23.5 -26t44.5 -12q64 -6 147 -5v-80q-221 7 -245 7q-9 0 -142 -6
q-59 -2 -79 -1l-6 7q9 118 11.5 173.5t8.5 287.5l3 231v297q0 128 -8 416q-4 133 -15 276z" />
    <glyph glyph-name="backslash" unicode="\" horiz-adv-x="1241" 
d="M949 -238h-157l-493 1835h157z" />
    <glyph glyph-name="bracketright" unicode="]" horiz-adv-x="682" 
d="M549 -210l4 -7q-20 -1 -78 1q-147 5 -154 5q-30 0 -249 -6v80q80 0 154 9q31 4 42.5 12.5t20 28t11.5 103.5q5 115 5 247l1 194v358l-1 182q0 145 -6 278q-3 58 -14 81q-6 13 -15.5 20t-40.5 12q-74 11 -157 10v80q221 -7 245 -7q9 0 172 6q34 2 54 1l6 -7
q-9 -118 -11.5 -173.5t-8.5 -288.5l-3 -230v-297q0 -129 8 -416q4 -133 15 -276z" />
    <glyph glyph-name="asciicircum" unicode="^" horiz-adv-x="1241" 
d="M95 577l432 842h188l430 -842h-198l-325 615l-328 -615h-199z" />
    <glyph glyph-name="underscore" unicode="_" horiz-adv-x="1024" 
d="M-12 -333v122h1047v-122h-1047z" />
    <glyph glyph-name="grave" unicode="`" horiz-adv-x="682" 
d="M401 1099l-262 149q-73 41 -100 76q-19 25 -19 56q0 43 32 73t86 30q40 0 76 -24q27 -18 73 -75l235 -285h-121z" />
    <glyph glyph-name="a" unicode="a" horiz-adv-x="1024" 
d="M977 75v-75q-115 5 -204 5q-84 0 -163 -5l-9 11l9 131q-36 -23 -212 -158q-45 -10 -86 -10q-109 0 -170.5 64t-61.5 184q0 81 27.5 133t59 76.5t97.5 47.5q158 56 346 88q2 119 -49 181q-52 62 -158 62q-43 0 -82 -11q-17 -5 -40 -20l-42 -101l-68 15l6 129q74 50 141 87
t94 45q37 11 104 11q109 0 179.5 -31.5t104 -74.5t46 -92t12.5 -124q0 -32 -5 -167q-3 -90 -3 -147q0 -178 10 -216q4 -18 16 -24q16 -8 101 -14zM610 483q-85 -18 -155.5 -43.5t-97.5 -63t-27 -94.5q0 -64 32.5 -99t85.5 -35q45 0 90.5 26t71.5 66v243z" />
    <glyph glyph-name="b" unicode="b" 
d="M36 1313v72q227 24 385 88q15 -4 27 -14q-10 -415 -10 -481v-188l121 100q53 43 96.5 59t110.5 16q171 0 275 -106t104 -285q0 -108 -38 -209.5t-102 -166.5q-9 -9 -145.5 -104t-153.5 -103q-58 -26 -149 -26q-61 0 -119 18.5t-131 62.5l-88 -74l-46 17q20 305 20 730
q0 420 -12 532q-5 37 -17 46q-16 11 -128 16zM438 683q-2 -77 -2 -204q0 -170 2 -262q37 -53 80 -77q59 -32 127 -32q73 0 127.5 38.5t85 125.5t30.5 192q0 156 -71 238t-178 82q-67 0 -120.5 -31t-80.5 -70z" />
    <glyph glyph-name="c" unicode="c" horiz-adv-x="909" 
d="M861 132l-44 -97q-86 -43 -139.5 -56.5t-128.5 -13.5q-164 0 -266 64t-155 183q-38 84 -38 224q0 105 20 172t57 118q25 34 67 64l154 97q78 50 107 60q48 18 125 18q64 0 119.5 -10.5t102.5 -31.5l10 -17l-25 -163q-3 -22 -10 -138h-78q-6 89 -15 132q-21 34 -65 55.5
t-108 21.5q-76 0 -121 -28t-66 -94t-21 -160q0 -126 43 -225.5t113.5 -146t173.5 -46.5q47 0 89 10.5t80 30.5z" />
    <glyph glyph-name="d" unicode="d" 
d="M1200 72v-72l-210 3l-180 -3l-9 8l5 79l2 82q-69 -58 -151 -130q-32 -30 -63 -51q-38 -15 -101 -15q-166 0 -275 121.5t-109 332.5q0 117 32 209q24 70 56 108q23 28 134.5 106t160 96.5t125.5 18.5q48 0 79.5 -7t108.5 -37q3 58 3 123q0 76 -5 184q-2 52 -11 65
q-7 10 -20 13t-123 6v74q213 21 395 87l26 -15q-12 -268 -13 -315q-3 -261 -3 -731v-93q0 -68 5 -147q3 -56 10 -68.5t23 -18.5t108 -13zM805 711q-55 66 -90 86q-66 38 -145 38q-69 0 -112.5 -33.5t-65 -108.5t-21.5 -173q0 -182 78 -281q58 -73 156 -73q74 0 129.5 42
t66 81t10.5 238z" />
    <glyph glyph-name="e" unicode="e" horiz-adv-x="1024" 
d="M928 154l-44 -98q-82 -50 -169 -74q-65 -17 -148 -17q-99 0 -174.5 23t-129 63t-94 98t-58.5 134t-18 166q0 131 35 234q24 72 56 104q20 20 104 75t122 72q70 31 165 31q134 0 220 -56t121.5 -143t35.5 -211q0 -28 -2 -54q-25 -8 -76 -18q-68 -13 -92 -14
q-75 -6 -198 -7t-136 -2t-29 -1h-66q8 -158 98 -249.5t222 -91.5q57 0 105 12.5t126 51.5zM690 568q4 159 -43 223q-48 63 -124 63q-78 0 -129 -66q-52 -67 -48 -220q59 -9 197 -9q88 0 147 9z" />
    <glyph glyph-name="f" unicode="f" horiz-adv-x="797" 
d="M72 0v76q118 8 140 22q17 11 20 40q7 52 9 326v300l-28 1l-136 -6v49q133 69 138 73q13 9 13 24q0 47 4.5 116.5t13.5 98.5t29 56q33 44 146 142l121 108q29 25 67 39.5t86 14.5q49 0 105 -18q-16 -108 -14 -200l-40 -18q-30 28 -56 38.5t-66 10.5q-58 0 -92 -22
q-24 -16 -32 -43q-12 -40 -12 -200v-139l118 1q86 2 149 7l13 -10q-5 -17 -8 -35l-16 -89l-101 2q-44 2 -50 2q-18 0 -105 -3v-319q0 -107 2.5 -204t8.5 -117q5 -14 15.5 -23t34.5 -13q6 -1 136 -11v-77l-341 5q-63 0 -272 -5z" />
    <glyph glyph-name="g" unicode="g" horiz-adv-x="1139" 
d="M198 233l139 101q-74 27 -118.5 62.5t-71 93.5t-26.5 128q0 95 49 177.5t153.5 131.5t244.5 49q94 0 173.5 -21.5t133.5 -63.5q58 -3 80 -3q30 0 163 6l-14 -123h-158q13 -50 13 -97q0 -107 -57 -189t-160.5 -126t-219.5 -44q-31 0 -87 5q-31 -18 -47 -42.5t-16 -45.5
q0 -18 13.5 -34t37.5 -21q33 -7 165 -7l246 6q108 0 167 -25t88 -76t29 -135q0 -125 -59 -226t-177 -166q-149 -81 -355 -81q-162 0 -264 45t-143 107t-41 135q0 42 13 76t30 51t67 46q96 54 107 59q-54 6 -97 39q-39 36 -39 82q0 25 10 56q14 44 28 70zM372 664
q0 -138 48 -197t125 -59q85 0 130 69q32 50 32 150q0 140 -45 196t-125 56q-76 0 -120.5 -51t-44.5 -164zM407 -24q-82 -52 -109.5 -95.5t-27.5 -97.5q0 -91 74.5 -152t223.5 -61q156 0 238.5 73t82.5 185q0 54 -16.5 82.5t-46.5 45t-83 19t-245 2.5q-35 0 -91 -1z" />
    <glyph glyph-name="h" unicode="h" 
d="M1199 79v-79q-150 4 -196 4q-31 0 -204 -4l-10 10l14 209q3 55 3 131v194q0 136 -45.5 188.5t-130.5 52.5q-62 0 -108 -31t-70 -84q-9 -19 -9 -82v-126q0 -78 3 -198.5t7 -142.5q3 -12 8 -18t14 -10q15 -7 46 -10l77 -4v-79q-273 7 -304 7l-248 -7v79q89 4 104.5 8
t23 11.5t11.5 21.5q7 31 10 190t3 283v324q0 161 -8 292q-3 67 -9 79q-4 7 -11 11q-11 7 -37 11q-17 3 -87 6v74q141 17 204.5 31t182.5 52l22 -12l-8 -238q-4 -181 -4 -336v-96l176 146q70 27 145 27q79 0 140.5 -25.5t96.5 -67.5t49.5 -91.5t14.5 -129.5q0 -27 -4 -156
q-3 -95 -3 -156q0 -185 7 -217q5 -22 22 -31t112 -11z" />
    <glyph glyph-name="i" unicode="i" horiz-adv-x="682" 
d="M343 1448q64 0 108.5 -45t44.5 -108q0 -64 -44.5 -109t-108.5 -45q-63 0 -108 45t-45 109q0 63 44.5 108t108.5 45zM69 0v74q112 8 128 17.5t20 35.5q10 55 10 283q0 313 -9 356q-4 20 -13 26q-20 13 -136 14v76q151 16 228 34t168 55l24 -13q-12 -156 -12 -293v-340
q0 -174 8 -206q4 -18 16 -24q27 -13 131 -17v-78q-142 4 -309 4q-144 0 -254 -4z" />
    <glyph glyph-name="j" unicode="j" horiz-adv-x="682" 
d="M357 1448q64 0 108.5 -45t44.5 -108q0 -64 -45 -109t-108 -45q-64 0 -109 45t-45 109q0 63 45 108t109 45zM50 -535l-23 75l8 10q19 -3 33 -3q55 0 94 32.5t56.5 118.5t17.5 457v275q0 100 -6 266q-2 73 -8 84.5t-18 16.5q-22 9 -125 9v76q151 17 227.5 35t168.5 55
l24 -13q-8 -97 -10 -159.5t-2 -194.5l3 -413q0 -235 -27 -359.5t-86 -206t-130.5 -123.5t-157.5 -42q-18 0 -39 4z" />
    <glyph glyph-name="k" unicode="k" 
d="M1230 80v-80q-42 3 -175 3q-139 0 -174 -3q-52 88 -211.5 269.5t-180.5 197.5q-7 6 -22 7v-98q0 -73 6 -197q3 -56 8 -68q3 -8 11 -13q11 -8 38 -12q12 -2 94 -6v-80q-122 7 -267 7q-155 0 -288 -7v80q88 4 103.5 7.5t23.5 11t11 19.5q8 30 10 163q4 181 4 312v324
q0 161 -8 292q-3 67 -9 79q-4 7 -11 11q-12 7 -37 11q-17 3 -87 6v74q141 17 204.5 31t182.5 52l22 -12l-7 -217q-4 -180 -4 -362v-364q32 24 74 62q88 80 146 136q21 22 74 74t89 94v56q90 -2 182 -1q40 0 134 1v-78l-105 -7q-17 -2 -33 -10q-30 -15 -93 -65
q-88 -70 -106 -87t-28 -26l-85 -74q88 -104 298 -342q118 -135 155 -156q21 -12 61 -15z" />
    <glyph glyph-name="l" unicode="l" horiz-adv-x="682" 
d="M622 80v-80q-125 8 -261 8t-306 -8v79q95 3 115 8q15 4 22.5 11.5t10.5 23.5q7 30 10 189t3 282v330q0 157 -7 287q-4 70 -10 83q-4 7 -11 11q-12 8 -38 12q-15 2 -90 5v74q124 13 198 28.5t199 54.5l21 -12l-8 -202q-5 -170 -6 -417v-256q0 -145 2 -217q4 -179 6 -216.5
t7 -47.5q3 -7 10 -12q9 -7 31 -11q9 -2 102 -7z" />
    <glyph glyph-name="m" unicode="m" horiz-adv-x="1821" 
d="M62 0v77q78 0 108 11q14 5 21 17q10 19 11 72l4 89q1 28 1 91v131q0 89 -6 216q-3 64 -8.5 72.5t-17.5 12.5q-19 7 -113 10v77q182 31 239 46t129 48l27 -12v-161l182 146q32 13 54.5 17.5t60.5 4.5q120 0 181.5 -38.5t101.5 -129.5l182 146q32 13 54.5 17.5t60.5 4.5
q99 0 153.5 -24.5t90.5 -66.5t51 -90t15 -148q0 -110 -2 -146q-1 -12 -1 -29v-104q0 -160 5.5 -204.5t19 -56t59.5 -14.5q16 -1 56 -5v-77q-137 8 -226 8q-101 0 -172 -8l-14 19l12 181q4 110 4 189v76q0 178 -16 224.5t-53.5 73t-94.5 26.5q-64 0 -109 -32.5t-55.5 -59
t-9.5 -106.5v-242l2 -100l2 -81q1 -37 7 -51t17 -21q9 -5 38 -9q57 -7 82 -10v-77q-89 4 -256 4q-186 0 -275 -4v77q19 3 49 6q44 3 55.5 10.5t18.5 30t7 104.5l2 177v142q0 102 -12.5 144.5t-51 71t-99.5 28.5q-67 0 -113 -34t-58 -68q-6 -19 -5 -157v-175q0 -135 6 -207
q2 -38 10 -48t27 -15q14 -4 93 -10v-77q-108 4 -260 4q-171 0 -271 -4z" />
    <glyph glyph-name="n" unicode="n" 
d="M1209 77v-77q-136 7 -222 7q-99 0 -172 -7l-18 18q2 21 13 173l5 164v79q0 175 -13.5 230t-55.5 88.5t-112 33.5t-116 -33.5t-58 -67.5q-7 -20 -6 -160v-168q0 -73 4 -179q1 -47 8 -62q5 -11 13 -16q12 -8 47 -15q12 -2 84 -8v-77q-109 4 -267 4q-183 0 -284 -4v77
q78 0 108 11q14 5 21 17q10 19 11 72l4 89q1 28 1 91v131q0 89 -6 216q-3 64 -8.5 72.5t-17.5 12.5q-19 7 -113 10v77q182 31 239 46t129 48l27 -12v-161l182 146q33 13 55.5 17.5t62.5 4.5q107 0 160.5 -24t90.5 -67.5t52 -91t15 -148.5q0 -114 -2 -145q-1 -12 -1 -29
l1 -103q1 -169 5.5 -209t18 -51.5t59.5 -14.5q17 -1 56 -5z" />
    <glyph glyph-name="o" unicode="o" horiz-adv-x="1139" 
d="M86 472q0 170 58 281.5t174 168t270 56.5q231 0 351.5 -121t120.5 -355q0 -135 -35 -234t-94 -159.5t-124 -91.5q-111 -52 -250 -52q-226 0 -348.5 128.5t-122.5 378.5zM363 520q0 -266 78 -379q52 -75 148 -75q82 0 130 57q64 76 64 294q0 153 -25.5 262.5t-75 152.5
t-119.5 43q-60 0 -105 -31.5t-70 -106t-25 -217.5z" />
    <glyph glyph-name="p" unicode="p" 
d="M453 7v-370q0 -46 9 -57.5t33 -16.5q10 -2 135 -12v-79l-317 7l-262 -7v79q91 0 112 8q12 4 19.5 14.5t9.5 25.5q5 40 9 172l3 215v463q0 126 -4 220.5t-14 111.5q-7 11 -21 16.5t-114 6.5v78q149 16 225 34t157 54l23 -15l-3 -168q15 12 50 41l100 82q10 9 30 28
q39 16 65.5 21.5t73.5 5.5q106 0 171 -30q93 -43 153 -133.5t60 -220.5q0 -82 -22 -163t-49.5 -129t-58.5 -80q-23 -24 -77.5 -64t-100.5 -78t-66 -51q-32 -20 -61 -28q-40 -12 -93 -12q-42 0 -86 8t-89 23zM453 199q46 -47 96 -70.5t104 -23.5q72 0 127.5 36t87 121
t31.5 196q0 71 -16 134.5t-44 103t-76.5 66t-105.5 26.5q-55 0 -111.5 -28t-92.5 -71v-490z" />
    <glyph glyph-name="q" unicode="q" 
d="M1204 -449v-79l-262 7l-317 -7v79l133 12q25 4 34.5 16.5t9.5 57.5v515q-103 -78 -209 -168q-44 -19 -99 -19q-172 0 -279 116.5t-107 337.5q0 110 28 202q21 67 56 112q19 26 81 70q111 80 225 130q71 32 146 32q69 0 133 -18.5t159 -67.5l105 85l44 -22
q-18 -108 -22 -150t-7 -147q-5 -200 -5 -219v-440l3 -190l6 -159q2 -45 10.5 -59t27.5 -19q13 -4 106 -8zM802 725q-34 47 -95 80t-127 33q-74 0 -120.5 -37.5t-71 -118.5t-24.5 -179q0 -122 35 -203.5t83.5 -114t117.5 -32.5q123 0 202 117v455z" />
    <glyph glyph-name="r" unicode="r" horiz-adv-x="797" 
d="M636 77v-77q-113 5 -252 5q-155 0 -322 -5v77q78 0 108 11q14 5 21 17q10 19 11 72l4 89q1 28 1 91v131q0 89 -6 216q-3 64 -8.5 72.5t-17.5 12.5q-19 7 -113 10v77q182 31 239 46t129 48l27 -12l-2 -202q65 67 100 111q52 62 78 79q36 24 95 24q37 0 67 -12l-6 -142
q-3 -116 -5 -133l-42 -13q-25 33 -48 46q-37 21 -81 21q-59 0 -101.5 -36.5t-50.5 -74.5q-4 -22 -4 -169v-100l2 -136q1 -77 5.5 -94.5t20.5 -27.5t69 -14z" />
    <glyph glyph-name="s" unicode="s" horiz-adv-x="909" 
d="M107 315h80q5 -112 10 -141q45 -55 99 -81.5t124 -26.5q94 0 144 45t50 109q0 42 -16.5 69.5t-66.5 50.5q-39 14 -149.5 38t-167.5 53t-89 86.5t-32 134.5q0 138 104 229.5t299 91.5q81 0 149 -14t123 -42l3 -10q-6 -35 -9 -71t-9 -170l-77 1q-1 11 -3 37q-3 45 -12 87
q-31 40 -76.5 60t-106.5 20q-85 0 -131.5 -38t-46.5 -91q0 -54 21 -80t62 -39t151.5 -33.5t148.5 -34.5q55 -21 88 -53t50.5 -79.5t17.5 -104.5q0 -149 -115.5 -251t-324.5 -102q-70 0 -136 12.5t-161 45.5l-11 15q8 77 10 109z" />
    <glyph glyph-name="t" unicode="t" horiz-adv-x="682" 
d="M46 761v45l90 57q22 14 42 30v134q0 72 -8 178q97 32 126 43q5 2 127 59l26 -20l-10 -104l-7 -115l-9 -175h33q133 0 201 10l-17 -135q-12 -2 -22 -2l-98 2h-97v-334q0 -154 3 -182q4 -47 33.5 -73.5t85.5 -26.5q34 -1 54.5 1.5t52.5 9.5l16 -41l-36 -36q-44 -45 -77 -79
q-39 -17 -69.5 -22.5t-62.5 -5.5q-116 0 -182.5 59.5t-66.5 148.5l4 330v247h-27q-55 0 -105 -3z" />
    <glyph glyph-name="u" unicode="u" 
d="M53 802v76q86 5 173 23t223 64l14 -11q-14 -198 -14 -366v-112q0 -143 7 -191q10 -63 48 -95t101 -32q72 0 121 37.5t68 77.5q12 26 12 108v171l-2 142q0 69 -9 83q-5 9 -20 14t-122 11v76q155 20 211 32t190 55l19 -11l-11 -184q-8 -196 -8 -219v-205q0 -183 9 -226
q4 -18 15 -25q19 -10 123 -15v-80l-206 5l-189 -5l-7 8l6 77q1 19 1 77q-39 -31 -68 -57l-113 -107q-69 -25 -139 -25q-135 0 -212 74t-77 197q0 15 3 111q1 51 1 132l-2 211q0 58 -7.5 72t-24.5 21t-114 11z" />
    <glyph glyph-name="v" unicode="v" horiz-adv-x="1139" 
d="M467 -8q-51 139 -122 318l-132 334q-18 45 -67 155q-16 35 -33 46q-27 16 -88 17v78q142 -3 278 -3q128 0 252 3v-79q-58 0 -103 -8q-13 -3 -19.5 -10.5t-6.5 -17.5l4 -18l39 -121l80 -209l39 -98q35 -90 46 -115l65 150l61 149q60 141 81 211q10 35 10 51t-15 24.5
t-115 12.5v78q103 -3 193 -3q86 0 205 3v-80q-75 -9 -88.5 -15t-24.5 -24q-21 -32 -87 -180l-94 -212l-40 -88q-26 -58 -57 -137q-60 -153 -86 -212h-175z" />
    <glyph glyph-name="w" unicode="w" horiz-adv-x="1706" 
d="M401 -8q-4 13 -18 75q-8 34 -25 95l-84 298q-53 187 -68 238q-36 119 -51 140q-6 9 -19 13q-21 8 -104 10v79q126 -3 270 -3q148 0 284 3v-79q-107 0 -128 -12q-13 -7 -13 -24q0 -19 10 -58l121 -455l174 382l60 130l60 141h102l283 -653l99 294q22 69 44 155
q10 44 10 58q0 24 -15.5 30.5t-124.5 11.5v79q107 -3 199 -3q90 0 212 3v-79q-71 -4 -76 -5q-14 -4 -25.5 -13.5t-18.5 -22.5t-50 -129q-17 -45 -59 -166l-53 -158l-16 -45q-12 -35 -64 -195l-40 -135h-163q-95 228 -110 263l-161 367q-87 -180 -129 -273.5t-74 -168.5
l-76 -188h-163z" />
    <glyph glyph-name="x" unicode="x" horiz-adv-x="1024" 
d="M45 78q71 3 94 20q41 31 272 332l-130 216l-50 84q-27 41 -53 69q-16 17 -30.5 23.5t-33.5 6.5q-17 0 -56 -5l-16 75q160 30 299 66q45 -35 88.5 -93.5t144.5 -237.5q65 82 104 138l115 170q68 -3 81 -3l113 3v-78q-58 -4 -72.5 -9.5t-56.5 -48t-140 -160.5l-86 -104
l145 -250q67 -117 105 -168q19 -27 30.5 -32t74.5 -14v-78q-74 2 -200 2q-72 0 -115 -2q-23 32 -67 106l-60 98l-77 134q-99 -133 -123 -168q-45 -65 -113 -170q-53 1 -87 1q-31 0 -100 -1v78z" />
    <glyph glyph-name="y" unicode="y" horiz-adv-x="1139" 
d="M65 -510q17 73 22 102l15 101l26 5q25 -26 57 -46q39 -17 84 -17q52 0 96 35.5t98 155.5l40 96l-324 831q-29 74 -55 91.5t-99 16.5v79q98 -4 240 -4q168 0 299 4v-79h-23q-62 1 -86 -14q-15 -10 -15 -26q0 -18 10 -44l49 -135l146 -381l88 208q129 308 129 356
q0 10 -5 16q-7 8 -25 12q-36 7 -96 8v79q64 -4 161 -4q118 0 220 4v-79h-16q-27 1 -51 -10q-15 -6 -26.5 -20t-56.5 -110q-59 -126 -95 -208q-112 -254 -142 -326l-161 -393q-74 -179 -157 -255q-83 -77 -202 -77q-39 0 -71.5 6t-73.5 22z" />
    <glyph glyph-name="z" unicode="z" horiz-adv-x="1024" 
d="M867 321h82q-20 -192 -23 -307l-7 -8q-72 -5 -100 -5l-142 -1q-15 0 -144 5q-67 3 -126 3q-24 0 -184 -3t-188 -5v67q26 29 141 183q191 254 416 577h-117q-121 0 -196 -6q-46 -3 -56 -13.5t-15 -47.5q-8 -55 -17 -103h-79q8 199 8 219q0 15 -1 56l9 9l15 1l94 -5l383 -4
q43 0 307 7v-71q-222 -294 -373 -508.5t-172 -247.5l74 -1q162 0 218 3q125 9 139 15q8 3 12 11q11 20 42 180z" />
    <glyph glyph-name="braceleft" unicode="{" horiz-adv-x="635" 
d="M0 633q110 38 129 50q31 20 45 52q20 45 20 130v371q0 144 73.5 211t257.5 67q25 0 43 -1v-34q-45 -1 -81 -15.5t-55.5 -44t-29.5 -73.5q-2 -12 -2 -81v-368q0 -60 -14 -116q-9 -40 -34 -69t-61 -47.5t-97 -31.5q74 -15 120 -45t63 -74q23 -58 23 -145v-368q0 -63 2 -78
q6 -31 18.5 -58t35.5 -46.5t50.5 -27.5t61.5 -5v-34h-43q-98 -2 -169 20q-63 21 -91 47.5t-45 69.5q-26 63 -26 142v370q0 69 -9 102.5t-29 56t-52 36.5q-15 7 -104 37z" />
    <glyph glyph-name="bar" unicode="|" horiz-adv-x="1241" 
d="M541 0v1497h157v-1497h-157z" />
    <glyph glyph-name="braceright" unicode="}" horiz-adv-x="635" 
d="M635 633q-108 -36 -130 -49q-32 -21 -45 -53q-19 -44 -19 -130v-370q0 -144 -73.5 -211.5t-258.5 -67.5h-42v34q49 -2 84 15t55 46t26 74q3 12 3 80v368q0 63 13 118q10 39 35.5 68t65.5 50q31 16 92 28q-73 15 -119 44.5t-63 71.5q-24 57 -24 148v368q0 63 -3 79
q-5 30 -17.5 59t-34.5 46.5t-51 24.5t-69 7v34l50 -1q103 0 180 -24q51 -16 79 -43t46 -70q26 -62 26 -141v-371q0 -69 9 -102.5t29 -56t51 -36.5q13 -5 105 -37z" />
    <glyph glyph-name="asciitilde" unicode="~" horiz-adv-x="1241" 
d="M228 382l-135 58q33 69 69 114.5t78 78.5t78 46.5t74 13.5q96 0 250 -72q92 -43 138 -57.5t74 -14.5q42 0 90 34t105 134l99 -106q-68 -125 -147 -181t-150 -56q-38 0 -76 5t-133 53q-139 66 -188 81q-25 7 -55 7q-38 0 -69 -15.5t-55.5 -46t-46.5 -76.5z" />
    <glyph glyph-name="nonbreakingspace" unicode="&#xa0;" horiz-adv-x="512" 
 />
    <glyph glyph-name="exclamdown" unicode="&#xa1;" horiz-adv-x="569" 
d="M291 968q66 0 111 -45.5t45 -110.5t-45.5 -110.5t-110.5 -45.5q-64 0 -110 45.5t-46 110.5t45.5 110.5t110.5 45.5zM335 525q8 -41 16 -124q17 -156 33 -268q43 -287 47 -325q11 -101 11 -146q0 -16 -2 -36q-27 -16 -54 -28l-150 -63l-103 1q-2 25 -2 41q0 70 22 225
l47 333l50 356l76 41z" />
    <glyph glyph-name="cent" unicode="&#xa2;" horiz-adv-x="1024" 
d="M300 62q-42 35 -77.5 89.5t-54 121.5t-18.5 163q0 99 18.5 170t50.5 114.5t81 78.5q78 57 152 103q58 31 84 42t53 17v175h81v-168q92 -2 138.5 -12t94.5 -29l9 -16l-24 -158q-4 -34 -12 -143h-78q0 70 -7 109t-18 59.5t-35 38.5t-68 29v-764q90 -2 143 6t109 26l-14 -36
l-12 -34q-60 -36 -125 -57t-101 -21v-180h-81v180q-51 0 -88 6t-80 21t-121 69zM589 845q-53 -9 -96 -44t-67 -101.5t-24 -173.5q0 -104 15 -188t56 -149t116 -93v749z" />
    <glyph glyph-name="sterling" unicode="&#xa3;" horiz-adv-x="1024" 
d="M12 14q-1 43 9 80q13 36 38 62q55 36 109 60q31 121 38 182q11 98 8 272q-62 2 -84 2q-57 0 -94 -4v89q52 -4 128 -4h50q0 136 5 185q6 68 22 113.5t48 81.5q52 59 177 139.5t193 103.5t152 23q48 0 77 -6.5t89 -31.5l6 -16l-1 -17l-13 -135q-7 -107 -9 -127h-75
q-1 87 -11 130q-20 33 -61.5 50.5t-93.5 17.5q-59 0 -104.5 -25.5t-70.5 -74.5t-40 -164q-7 -51 -20 -247h95q96 0 251 3q-4 -26 -3 -50q-1 -28 0 -43q-36 5 -113 6l-102 1h-139q-11 -74 -36 -155q-23 -69 -57.5 -133.5t-113.5 -165.5q152 4 189 4q63 0 270 -15
q70 -5 120 -5q20 0 29 9.5t16 53.5q11 71 12 106h81q-8 -102 -10 -166q-1 -22 -2 -189l-86 -33q-28 -3 -43 -3q-92 0 -327 62q-127 34 -208 45q-60 9 -125 7q-7 -8 -28 -37q-28 -37 -37 -47q-13 -15 -34 -31z" />
    <glyph glyph-name="currency" unicode="&#xa4;" horiz-adv-x="1241" 
d="M379 920q51 32 107.5 49t119.5 17q61 0 118 -17t107 -48l198 202l137 -134l-203 -200q33 -51 49.5 -107t16.5 -119q0 -61 -17 -118t-48 -107l199 -203l-131 -134l-204 202q-48 -29 -105.5 -46t-116.5 -17q-121 0 -222 63l-203 -202l-134 134l200 204q-31 51 -47.5 107
t-16.5 117t17 117.5t48 106.5l-204 202l137 134zM367 563q0 -99 70 -169t169 -70t169 70t70 169t-70 169t-169 70t-169 -70t-70 -169z" />
    <glyph glyph-name="yen" unicode="&#xa5;" horiz-adv-x="1024" 
d="M645 520l2 -303q0 -88 23 -115.5t96.5 -34t97.5 -6.5v-61l-359 9l-336 -9v61q11 0 43 3t49 3q78 8 99 37.5t21 110.5l-4 305h-350v80h343l-115 256h-228v80h192l-133 297q-37 81 -91 87l-51 4v75l253 -7l300 7v-70q-32 -5 -53.5 -8t-39 -9t-28.5 -22t-11 -34
q0 -24 4.5 -38.5t19.5 -48.5l101 -233h235l79 177q15 36 25 74.5t10 68.5q0 31 -26 49.5t-57 18.5q-7 0 -29 2t-29 2v71l237 -5l165 5v-75q-30 0 -64 -12.5t-56.5 -34t-56.5 -83.5t-81 -165l-42 -93h224v-80h-260l-115 -256h375v-80h-379zM525 856l82 -189q10 24 30.5 69
t52.5 120h-165z" />
    <glyph glyph-name="brokenbar" unicode="&#xa6;" horiz-adv-x="1241" 
d="M542 906v592h157v-592h-157zM542 0v592h157v-592h-157z" />
    <glyph glyph-name="section" unicode="&#xa7;" horiz-adv-x="1024" 
d="M100 -350q2 16 16 93q14 184 13 226h80q1 -11 2 -51t2 -48q2 -21 12 -75q45 -53 90 -74q79 -36 181 -36q125 0 198 64.5t73 151.5q0 55 -28 93.5t-87 69.5q-39 20 -152 56q-198 62 -278 104t-119 101.5t-39 148.5q0 60 17 108t47 87q20 26 92 95q-45 38 -65 79
q-28 56 -28 127q0 85 45 179.5t125 164.5q57 50 141 79.5t166 29.5q64 0 130 -17t134 -51q-13 -64 -18 -112l-17 -188l-77 1q-4 108 -16 159q-24 26 -79.5 46.5t-126.5 20.5q-81 0 -142.5 -26.5t-92 -73.5t-30.5 -93q0 -49 34 -91t110 -74q57 -24 166 -54.5t143 -43.5
q78 -29 129 -62q38 -26 61.5 -58t37.5 -76t14 -96q0 -92 -42 -168q-28 -51 -103 -126q47 -36 61 -53q22 -27 36 -68.5t14 -97.5q0 -83 -31 -155q-24 -55 -66.5 -107.5t-89.5 -90.5q-70 -56 -146.5 -83t-174.5 -27q-103 0 -194 27q-54 16 -128 65zM753 277q24 25 41.5 62.5
t17.5 78.5q0 37 -14 67t-48 60t-94 58q-42 20 -155.5 55t-165.5 56q-36 14 -50 18q-68 -76 -68 -143q0 -37 23.5 -75t83.5 -73t231 -94z" />
    <glyph glyph-name="dieresis" unicode="&#xa8;" horiz-adv-x="682" 
d="M121 1405q61 0 103 -43t42 -103t-42.5 -102.5t-102.5 -42.5t-102.5 42.5t-42.5 102.5q0 61 42.5 103.5t102.5 42.5zM561 1405q60 0 102.5 -43t42.5 -103t-42.5 -102.5t-102.5 -42.5t-102.5 42.5t-42.5 102.5q0 61 42.5 103.5t102.5 42.5z" />
    <glyph glyph-name="copyright" unicode="&#xa9;" horiz-adv-x="1530" 
d="M765 -35q-302 0 -515.5 213.5t-213.5 515.5t213.5 515.5t515.5 213.5t515.5 -213.5t213.5 -515.5t-213.5 -515.5t-515.5 -213.5zM765 46q269 0 458 189t189 459q0 268 -189 458t-458 190t-458 -189t-189 -459q0 -268 189 -458t458 -190zM1040 497l54 -23q-21 -54 -48 -82
q-49 -51 -123 -81.5t-164 -30.5q-193 0 -301 148q-81 109 -81 254q0 126 56 229.5t149.5 153.5t211.5 50q39 0 79 -7q15 -2 122 -30q49 -13 76 -23v-218h-68q-19 73 -33 100q-24 45 -67 74t-104 29q-100 0 -171.5 -84t-71.5 -237q0 -112 41 -197t100.5 -122.5t128.5 -37.5
q45 0 85.5 15t64.5 37t64 83z" />
    <glyph glyph-name="ordfeminine" unicode="&#xaa;" horiz-adv-x="897" 
d="M747 833v-48l-124 5l-118 -5l-7 12l7 78l-124 -90q-26 -18 -67 -18q-74 0 -112 32q-51 43 -51 122q0 60 23 94.5t74 56.5q70 31 141 43l116 20q-3 73 -39 109.5t-101 36.5q-31 0 -47 -3q-10 -2 -31 -12l-29 -66l-46 11v81l156 78q23 11 86 11q73 0 125 -27t77 -71
q14 -28 14 -83v-292q0 -53 11.5 -62t65.5 -13zM505 1080l-68 -15q-68 -15 -98 -46q-21 -22 -21 -68q0 -40 23 -57t46 -17q24 0 55 13t63 44v146z" />
    <glyph glyph-name="guillemotleft" unicode="&#xab;" horiz-adv-x="1024" 
d="M88 471v51q85 71 193 178q142 142 201 193l54 -41q-42 -62 -223 -353l221 -368l-55 -40l-259 257q-65 63 -132 123zM515 471l1 51q84 71 192 178q143 142 202 193l53 -41q-42 -62 -222 -353l221 -368l-56 -40l-258 257q-65 63 -133 123z" />
    <glyph glyph-name="logicalnot" unicode="&#xac;" horiz-adv-x="1241" 
d="M969 242v407h-875v151h1025v-558h-150z" />
    <glyph glyph-name="softhyphen" unicode="&#xad;" horiz-adv-x="682" 
d="M581 395h-532l-15 15q16 29 32 78q24 78 35 130h527l19 -20q-20 -35 -34.5 -77.5t-31.5 -125.5z" />
    <glyph glyph-name="registered" unicode="&#xae;" horiz-adv-x="1530" 
d="M751 332v41q-49 2 -61.5 5.5t-17.5 12.5q-10 16 -10 60v239q34 3 47 3q41 0 61.5 -11.5t38 -41t58.5 -124.5q65 -146 86 -165t76 -19h119v41q-32 0 -48 16q-28 26 -85 149q-26 56 -32 65q-17 30 -40 57t-39 38t-51 23q76 19 116.5 45t64.5 70.5t24 91.5q0 51 -26 101
t-81.5 75.5t-166.5 25.5h-356v-44q51 0 59 -2q16 -4 24 -16.5t8 -61.5v-565q0 -37 -6 -48q-4 -9 -14 -14q-17 -7 -57 -7l-14 1v-41h323zM662 1034q0 19 9 33q7 10 19 11q38 5 65 5q71 0 114 -43.5t43 -119.5q0 -73 -39.5 -124.5t-156.5 -51.5q-19 0 -54 3v287zM765 -35
q-302 0 -515.5 213.5t-213.5 515.5t213.5 515.5t515.5 213.5t515.5 -213.5t213.5 -515.5t-213.5 -515.5t-515.5 -213.5zM765 46q269 0 458 189t189 459q0 268 -189 458t-458 190t-458 -189t-189 -459q0 -268 189 -458t458 -190z" />
    <glyph glyph-name="macron" unicode="&#xaf;" horiz-adv-x="682" 
d="M-12 1340h706v-164h-706v164z" />
    <glyph glyph-name="degree" unicode="&#xb0;" horiz-adv-x="819" 
d="M576.5 1395.5q80.5 -44.5 125 -125t44.5 -167.5t-44.5 -167.5t-125 -125t-167.5 -44.5t-167.5 44.5t-125 125t-44.5 167.5t44.5 167.5t125 125t167.5 44.5t167.5 -44.5zM302.5 1288q-51.5 -27 -78.5 -78.5t-27 -106.5t27 -106.5t78.5 -78.5t106.5 -27t106.5 27t78.5 78.5
t27 106.5t-27 106.5t-78.5 78.5t-106.5 27t-106.5 -27z" />
    <glyph glyph-name="plusminus" unicode="&#xb1;" horiz-adv-x="1124" 
d="M636 768h446v-150h-446v-412h-146v412h-446v150h446v444h146v-444zM44 0v141h1038v-141h-1038z" />
    <glyph glyph-name="twosuperior" unicode="&#xb2;" horiz-adv-x="614" 
d="M3 548v75q25 25 209 197q77 72 103.5 108.5t43 83t16.5 89.5q0 36 -16 68t-49.5 49.5t-77.5 17.5q-68 0 -96 -34q-20 -24 -43 -118l-60 10l26 209q62 45 103 59q57 20 123 20q132 0 208 -66t76 -156q0 -40 -12 -78t-43 -85t-70 -86q-8 -8 -99.5 -92.5t-115.5 -109.5v-17
l370 17l12 -10q-2 -51 -2 -77q0 -25 2 -74q-147 3 -234 3z" />
    <glyph glyph-name="threesuperior" unicode="&#xb3;" horiz-adv-x="614" 
d="M11 763l45 10q44 -74 58 -90q22 -24 62.5 -41t84.5 -17q85 0 136 62q40 47 40 99t-42.5 102.5t-128.5 50.5q-32 0 -86 -11l-11 7l30 92q85 0 122.5 16t54.5 42q23 38 23 80q0 40 -35.5 70.5t-98.5 30.5q-58 0 -96 -27.5t-62 -92.5h-51l39 193q52 30 86 39q59 17 123 17
q119 0 192 -60q54 -44 54 -114q0 -54 -33 -98.5t-118 -87.5q34 0 75 -13t71.5 -38t45 -56t14.5 -77q0 -75 -43 -143t-140.5 -115t-215.5 -47q-41 0 -74 6t-86 24z" />
    <glyph glyph-name="acute" unicode="&#xb4;" horiz-adv-x="682" 
d="M274 1099h-121l235 285q51 62 81.5 80.5t69.5 18.5q52 0 84 -30.5t32 -73.5q0 -29 -18 -53q-29 -37 -101 -78z" />
    <glyph glyph-name="mu" unicode="&#xb5;" horiz-adv-x="1180" 
d="M260 -394l-182 -62l-32 30q0 91 14.5 204.5t43.5 292.5t41 248t31.5 199t29 245t16.5 183q61 16 138 32t92 16q19 0 19 -7q-1 -23 -7.5 -43.5t-25.5 -125.5t-32.5 -193.5t-20.5 -161.5t-7 -145q0 -133 23.5 -182.5t88.5 -49.5q67 0 113 76t69 173t44 219.5t35.5 217.5
t25.5 171q65 14 142.5 27.5t94.5 13.5q25 0 25 -16q0 -8 -14.5 -58.5t-39.5 -150t-41.5 -189.5t-23 -164t-6.5 -126q0 -59 14 -100.5t50 -41.5q24 0 77.5 38.5t78.5 65.5v-45q-79 -88 -168.5 -148.5t-166.5 -59.5q-54 0 -80 45.5t-26 124.5q0 29 3 48t3 54
q-28 -124 -96.5 -199.5t-174.5 -75.5q-90 3 -140 43.5t-60 136.5q-4 -63 -8 -117t-4 -123q0 -76 9.5 -154t34.5 -166z" />
    <glyph glyph-name="paragraph" unicode="&#xb6;" horiz-adv-x="1313" 
d="M457 -315l34 47l151 16v764q-260 0 -437 126.5t-177 345.5q0 197 122.5 305.5t351.5 108.5l314 -4l376 4l-66 -66l-132 -16v-1568l153 -3q-31 -51 -31 -63t-256 -12h-35q-160 0 -225 3t-143 12zM882 -252v1569l-128 1v-1570h128zM642 1318q-130 0 -206 -86t-76 -266
q0 -172 59 -264t116.5 -108.5t106.5 -11.5v736z" />
    <glyph glyph-name="periodcentered" unicode="&#xb7;" horiz-adv-x="512" 
d="M253 778q66 0 111.5 -46t45.5 -111t-46 -111t-111 -46t-111 46t-46 111t46 111t111 46z" />
    <glyph glyph-name="cedilla" unicode="&#xb8;" horiz-adv-x="682" 
d="M333 0h88l-55 -128q35 5 59 5q96 0 145.5 -43t49.5 -104q0 -71 -70 -126.5t-212 -55.5q-105 0 -199 36l35 80q79 -25 135 -25q50 0 75 22.5t25 54.5q0 30 -23.5 51.5t-64.5 21.5q-23 0 -55 -10l-25 18z" />
    <glyph glyph-name="onesuperior" unicode="&#xb9;" horiz-adv-x="614" 
d="M78 547v61l91 6q28 3 45 15.5t23 27.5q10 23 10 76v463q0 29 -1.5 35.5t-10.5 12.5q-5 0 -36 -14l-156 -68q-13 35 -16.5 54t-2.5 45l202 58q183 60 215 70l16 -10q-16 -128 -16 -189v-469q0 -35 7 -55.5t21.5 -34t30.5 -17.5q6 -2 65 -4q10 0 31 -2v-61q-105 3 -256 5
q-130 -2 -262 -5z" />
    <glyph glyph-name="ordmasculine" unicode="&#xba;" horiz-adv-x="999" 
d="M174 1071q0 146 84.5 228t246.5 82t241 -77t79 -219q0 -100 -41 -172.5t-123.5 -108t-178.5 -35.5q-149 0 -228.5 78.5t-79.5 223.5zM361 1103q0 -141 39 -207t111 -66q58 0 93.5 44.5t35.5 160.5q0 165 -49 236q-33 47 -96 47q-41 0 -73 -20.5t-46.5 -60t-14.5 -134.5z
" />
    <glyph glyph-name="guillemotright" unicode="&#xbb;" horiz-adv-x="1024" 
d="M945 512v-51q-85 -71 -193 -178q-142 -142 -201 -192l-54 40q42 62 223 353l-221 368l55 41l259 -257q65 -63 132 -124zM496 513v-49q-120 -119 -182.5 -185t-169.5 -187l-55 38q14 30 45 86q121 213 152 269l-111 210q-32 59 -87 157l55 41q54 -63 176 -194t177 -186z
" />
    <glyph glyph-name="onequarter" unicode="&#xbc;" horiz-adv-x="1536" 
d="M110 547v61l91 6q28 3 45 15.5t23 27.5q10 23 10 76v463q0 29 -1.5 35.5t-10.5 12.5q-5 0 -36 -14l-156 -68q-13 35 -16.5 54t-2.5 45l202 58q183 60 215 70l16 -10q-16 -128 -16 -189v-469q0 -35 7 -55.5t21.5 -34t30.5 -17.5q6 -2 65 -4q10 0 31 -2v-61q-105 3 -213 3
q-173 0 -305 -3zM355 -2l841 1379h144l-842 -1379h-143zM1051 0v61q78 3 99.5 10t34.5 27q18 28 18 62v48h-317l-8 48q39 108 156 299.5t169 245.5l159 33l16 -15v-501h113v-110h-113v-48q0 -32 14 -58q11 -20 31 -29q9 -4 68 -12v-61l-244 3q-34 0 -196 -3zM990 318h216
v362z" />
    <glyph glyph-name="onehalf" unicode="&#xbd;" horiz-adv-x="1536" 
d="M38 547v61l91 6q28 3 45 15.5t23 27.5q10 23 10 76v463q0 29 -1.5 35.5t-10.5 12.5q-5 0 -36 -14l-156 -68q-13 35 -16.5 54t-2.5 45l202 58q183 60 215 70l16 -10q-16 -128 -16 -189v-469q0 -35 7 -55.5t21.5 -34t30.5 -17.5q6 -2 65 -4q10 0 31 -2v-61q-105 3 -213 3
q-173 0 -305 -3zM283 -2l841 1379h144l-842 -1379h-143zM955 0v76q24 24 208 196q77 72 103.5 109t43 83.5t16.5 88.5q0 37 -15.5 69t-49.5 49t-77 17q-68 0 -96 -34q-20 -23 -44 -118l-59 10l25 209q62 45 103 59q58 20 124 20q131 0 207 -66t76 -156q0 -40 -12 -78
t-43 -85t-70 -86q-7 -8 -99 -92t-116 -110v-17l371 17l11 -9q-2 -52 -2 -78q0 -24 2 -74q-146 3 -233 3z" />
    <glyph glyph-name="threequarters" unicode="&#xbe;" horiz-adv-x="1536" 
d="M78 763l45 10q44 -74 58 -90q22 -24 62.5 -41t84.5 -17q85 0 136 62q40 47 40 99t-42.5 102.5t-128.5 50.5q-32 0 -86 -11l-11 7l30 92q85 0 122.5 16t54.5 42q23 38 23 80q0 40 -35.5 70.5t-98.5 30.5q-58 0 -96 -27.5t-62 -92.5h-51l39 193q52 30 86 39q59 17 123 17
q119 0 192 -60q54 -44 54 -114q0 -54 -33 -98.5t-118 -87.5q34 0 75 -13t71.5 -38t45 -56t14.5 -77q0 -75 -43 -143t-140.5 -115t-215.5 -47q-41 0 -74 6t-86 24zM323 -2l840 1379h145l-843 -1379h-142zM1018 0v61q79 3 100.5 10t34.5 27q18 28 18 62v48h-317l-8 48
q39 108 156 299.5t169 245.5l159 33l16 -15v-501h113v-110h-113v-48q0 -32 14 -58q11 -20 31 -29q9 -4 68 -12v-61l-245 3q-33 0 -196 -3zM957 318h216v362z" />
    <glyph glyph-name="questiondown" unicode="&#xbf;" horiz-adv-x="909" 
d="M514 965q65 0 110 -45t45 -110t-45.5 -110.5t-109.5 -45.5q-65 0 -110.5 45.5t-45.5 110.5q0 64 45.5 109.5t110.5 45.5zM549 554q23 -27 38.5 -67.5t15.5 -79.5q0 -51 -21 -100t-80 -120l-55 -66q-101 -122 -101 -219q0 -73 52.5 -122t141.5 -49q101 0 149 51
q32 54 63 141l74 -12q-4 -18 -27.5 -100t-27.5 -100q-7 -34 -13 -79q-57 -49 -138 -73.5t-172 -24.5q-189 0 -282.5 95t-93.5 219q0 87 43 163.5t141 152.5l69 53q111 86 153 150q26 38 26 72q0 33 -23 86z" />
    <glyph glyph-name="Agrave" unicode="&#xc0;" horiz-adv-x="1593" 
d="M49 0v83q81 6 96.5 10.5t26.5 14t22.5 30t68.5 152.5q26 62 100 245l261 644l88 227h142l447 -1044l62 -137l40 -92q10 -18 19 -26t20.5 -12t58.5 -7q15 -2 44 -5v-83l-278 6l-351 -6v83q121 5 136.5 13.5t15.5 28.5q0 25 -23 82l-86 220h-514l-44 -120
q-50 -138 -50 -172q0 -24 16 -34q24 -14 143 -18v-83l-231 6zM491 541q94 -3 213 -3q115 0 206 3l-214 516zM841 1494l-262 149q-73 41 -100 76q-19 25 -19 56q0 43 32 73t86 30q40 0 76 -24q27 -18 73 -75l235 -285h-121z" />
    <glyph glyph-name="Aacute" unicode="&#xc1;" horiz-adv-x="1593" 
d="M49 0v83q81 6 96.5 10.5t26.5 14t22.5 30t68.5 152.5q26 62 100 245l261 644l88 227h142l447 -1044l62 -137l40 -92q10 -18 19 -26t20.5 -12t58.5 -7q15 -2 44 -5v-83l-278 6l-351 -6v83q121 5 136.5 13.5t15.5 28.5q0 25 -23 82l-86 220h-514l-44 -120
q-50 -138 -50 -172q0 -24 16 -34q24 -14 143 -18v-83l-231 6zM491 541q94 -3 213 -3q115 0 206 3l-214 516zM714 1494h-121l235 285q51 62 81.5 80.5t69.5 18.5q52 0 84 -30.5t32 -73.5q0 -29 -18 -53q-29 -37 -101 -78z" />
    <glyph glyph-name="Acircumflex" unicode="&#xc2;" horiz-adv-x="1593" 
d="M49 0v83q81 6 96.5 10.5t26.5 14t22.5 30t68.5 152.5q26 62 100 245l261 644l88 227h142l447 -1044l62 -137l40 -92q10 -18 19 -26t20.5 -12t58.5 -7q15 -2 44 -5v-83l-278 6l-351 -6v83q121 5 136.5 13.5t15.5 28.5q0 25 -23 82l-86 220h-514l-44 -120
q-50 -138 -50 -172q0 -24 16 -34q24 -14 143 -18v-83l-231 6zM491 541q94 -3 213 -3q115 0 206 3l-214 516zM674 1850h213l249 -356h-134l-226 190l-219 -190h-131z" />
    <glyph glyph-name="Atilde" unicode="&#xc3;" horiz-adv-x="1593" 
d="M49 0v83q81 6 96.5 10.5t26.5 14t22.5 30t68.5 152.5q26 62 100 245l261 644l88 227h142l447 -1044l62 -137l40 -92q10 -18 19 -26t20.5 -12t58.5 -7q15 -2 44 -5v-83l-278 6l-351 -6v83q121 5 136.5 13.5t15.5 28.5q0 25 -23 82l-86 220h-514l-44 -120
q-50 -138 -50 -172q0 -24 16 -34q24 -14 143 -18v-83l-231 6zM491 541q94 -3 213 -3q115 0 206 3l-214 516zM472 1537h-86q34 149 98.5 211.5t145.5 62.5q77 0 199 -55q77 -34 108 -44q17 -5 34 -5q29 0 48 17q26 22 49 82h88q-38 -154 -102 -215t-147 -61q-42 0 -82 10.5
t-113.5 44.5t-98 41.5t-42.5 7.5q-29 0 -54 -21.5t-45 -75.5z" />
    <glyph glyph-name="Adieresis" unicode="&#xc4;" horiz-adv-x="1593" 
d="M49 0v83q81 6 96.5 10.5t26.5 14t22.5 30t68.5 152.5q26 62 100 245l261 644l88 227h142l447 -1044l62 -137l40 -92q10 -18 19 -26t20.5 -12t58.5 -7q15 -2 44 -5v-83l-278 6l-351 -6v83q121 5 136.5 13.5t15.5 28.5q0 25 -23 82l-86 220h-514l-44 -120
q-50 -138 -50 -172q0 -24 16 -34q24 -14 143 -18v-83l-231 6zM491 541q94 -3 213 -3q115 0 206 3l-214 516zM561 1800q61 0 103 -43t42 -103t-42.5 -102.5t-102.5 -42.5t-102.5 42.5t-42.5 102.5q0 61 42.5 103.5t102.5 42.5zM1001 1800q60 0 102.5 -43t42.5 -103
t-42.5 -102.5t-102.5 -42.5t-102.5 42.5t-42.5 102.5q0 61 42.5 103.5t102.5 42.5z" />
    <glyph glyph-name="Aring" unicode="&#xc5;" horiz-adv-x="1593" 
d="M49 0v83q81 6 96.5 10.5t26.5 14t22.5 30t68.5 152.5q26 62 100 245l261 644l88 227h142l447 -1044l62 -137l40 -92q10 -18 19 -26t20.5 -12t58.5 -7q15 -2 44 -5v-83l-278 6l-351 -6v83q121 5 136.5 13.5t15.5 28.5q0 25 -23 82l-86 220h-514l-44 -120
q-50 -138 -50 -172q0 -24 16 -34q24 -14 143 -18v-83l-231 6zM491 541q94 -3 213 -3q115 0 206 3l-214 516zM830 1884q116 0 181 -65.5t65 -160.5q0 -93 -65 -159t-181 -66q-117 0 -181 66t-64 159q0 95 64 160.5t181 65.5zM830 1822q-65 0 -94.5 -45t-29.5 -119
q-1 -73 27.5 -118.5t96.5 -45.5q66 0 95.5 45.5t28.5 118.5q0 74 -28.5 119t-95.5 45z" />
    <glyph glyph-name="AE" unicode="&#xc6;" horiz-adv-x="2048" 
d="M8 0v80q77 8 90 12t23 14q19 17 61 86l126 206l315 520q115 190 177 307q21 41 21 53q0 8 -5 13q-9 9 -35 12q-82 9 -158 12v80l523 -5q82 0 297 4l248 5q74 0 192 -8q-2 -15 -17 -148q-4 -34 -12 -152h-75q-12 133 -19 152q-3 8 -10 12q-24 14 -99 21t-220 7
q-82 0 -133 -9q-7 -66 -9 -123l-3 -275v-96q75 -2 163 -2q141 0 187 8q19 3 26 11.5t10 31.5l12 111h83l-4 -98v-344h-81q-1 7 -5.5 69t-7.5 70.5t-10 13.5q-11 9 -25.5 12.5t-91 7.5t-194.5 4q-32 0 -62 -3v-273q0 -18 4 -274q111 -5 169 -5q181 0 251.5 7t84.5 17
q9 6 16.5 25t44.5 178h80q-18 -127 -22 -189q-8 -119 -11 -145q-72 -13 -150 -13q-16 0 -210 3q-130 2 -268 2q-283 0 -390 -5v55q46 16 79 40q13 10 20 22t9 34q1 11 5.5 93.5t4.5 113.5v82h-534l-31 -51q-10 -18 -68 -124q-44 -81 -56 -117q-5 -13 -5 -23q0 -14 8.5 -24
t29.5 -13q12 -3 125 -8v-80q-159 5 -252 5q-72 0 -212 -5zM537 550h466v687q0 22 -6 31q-4 6 -12 6l-8 -2q-7 -4 -23 -29l-234 -376q-30 -49 -183 -317z" />
    <glyph glyph-name="Ccedilla" unicode="&#xc7;" horiz-adv-x="1479" 
d="M855 -33l-40 -95q34 5 58 5q96 0 145.5 -43t49.5 -104q0 -71 -69.5 -126.5t-211.5 -55.5q-105 0 -200 36l35 80q80 -25 136 -25q49 0 74.5 22.5t25.5 54.5q0 30 -24 51.5t-65 21.5q-23 0 -54 -10l-25 18l79 177q-158 21 -274 76.5t-197.5 143t-126.5 191.5
q-65 152 -65 324q0 315 215.5 514.5t608.5 199.5q135 0 242.5 -20t249.5 -71l5 -13q-16 -47 -25 -118q-15 -113 -19 -209h-78q-2 110 -10 176q-67 70 -150.5 104.5t-213.5 34.5q-235 0 -376 -148.5t-141 -414.5q0 -161 47.5 -281t126.5 -198.5t159 -114.5q109 -48 264 -48
q102 0 193 23t198 79l25 -23l-46 -101q-126 -66 -225.5 -90.5t-249.5 -24.5q-23 0 -51 2z" />
    <glyph glyph-name="Egrave" unicode="&#xc8;" 
d="M123 0v54q60 28 98 58q6 42 10 136q8 172 8 250v450q0 26 -3 195q-3 113 -14 138q-5 10 -15 15q-27 12 -144 18v85l232 -5q69 -1 132 -1q137 0 305 3l203 5q36 0 146 -4q10 0 33 -6l7 -13l-19 -144q-1 -15 -10 -144h-78q-2 118 -9 145q-4 14 -12 20q-13 9 -80 16
q-99 11 -194 11q-89 0 -182 -7q-14 -113 -14 -287v-205q68 -5 142 -5q23 0 166 4q54 1 63.5 7t14.5 21q12 38 14 127h81l-4 -220l4 -219h-86q1 116 -15 143q-12 20 -43 25q-69 11 -177 11q-97 0 -160 -6v-424q0 -71 3 -122q81 -6 192 -6q108 0 199.5 7t112.5 20q7 4 13 18
q18 48 38 182h82q-22 -198 -22 -326l-13 -13q-64 -7 -182 -7l-161 3q-238 3 -328 3q-24 0 -334 -6zM685 1494l-262 149q-73 41 -100 76q-19 25 -19 56q0 43 32 73t86 30q40 0 76 -24q27 -18 73 -75l235 -285h-121z" />
    <glyph glyph-name="Eacute" unicode="&#xc9;" 
d="M123 0v54q60 28 98 58q6 42 10 136q8 172 8 250v450q0 26 -3 195q-3 113 -14 138q-5 10 -15 15q-27 12 -144 18v85l232 -5q69 -1 132 -1q137 0 305 3l203 5q36 0 146 -4q10 0 33 -6l7 -13l-19 -144q-1 -15 -10 -144h-78q-2 118 -9 145q-4 14 -12 20q-13 9 -80 16
q-99 11 -194 11q-89 0 -182 -7q-14 -113 -14 -287v-205q68 -5 142 -5q23 0 166 4q54 1 63.5 7t14.5 21q12 38 14 127h81l-4 -220l4 -219h-86q1 116 -15 143q-12 20 -43 25q-69 11 -177 11q-97 0 -160 -6v-424q0 -71 3 -122q81 -6 192 -6q108 0 199.5 7t112.5 20q7 4 13 18
q18 48 38 182h82q-22 -198 -22 -326l-13 -13q-64 -7 -182 -7l-161 3q-238 3 -328 3q-24 0 -334 -6zM558 1494h-121l235 285q51 62 81.5 80.5t69.5 18.5q52 0 84 -30.5t32 -73.5q0 -29 -18 -53q-29 -37 -101 -78z" />
    <glyph glyph-name="Ecircumflex" unicode="&#xca;" 
d="M123 0v54q60 28 98 58q6 42 10 136q8 172 8 250v450q0 26 -3 195q-3 113 -14 138q-5 10 -15 15q-27 12 -144 18v85l232 -5q69 -1 132 -1q137 0 305 3l203 5q36 0 146 -4q10 0 33 -6l7 -13l-19 -144q-1 -15 -10 -144h-78q-2 118 -9 145q-4 14 -12 20q-13 9 -80 16
q-99 11 -194 11q-89 0 -182 -7q-14 -113 -14 -287v-205q68 -5 142 -5q23 0 166 4q54 1 63.5 7t14.5 21q12 38 14 127h81l-4 -220l4 -219h-86q1 116 -15 143q-12 20 -43 25q-69 11 -177 11q-97 0 -160 -6v-424q0 -71 3 -122q81 -6 192 -6q108 0 199.5 7t112.5 20q7 4 13 18
q18 48 38 182h82q-22 -198 -22 -326l-13 -13q-64 -7 -182 -7l-161 3q-238 3 -328 3q-24 0 -334 -6zM518 1850h213l249 -356h-134l-226 190l-219 -190h-131z" />
    <glyph glyph-name="Edieresis" unicode="&#xcb;" 
d="M123 0v54q60 28 98 58q6 42 10 136q8 172 8 250v450q0 26 -3 195q-3 113 -14 138q-5 10 -15 15q-27 12 -144 18v85l232 -5q69 -1 132 -1q137 0 305 3l203 5q36 0 146 -4q10 0 33 -6l7 -13l-19 -144q-1 -15 -10 -144h-78q-2 118 -9 145q-4 14 -12 20q-13 9 -80 16
q-99 11 -194 11q-89 0 -182 -7q-14 -113 -14 -287v-205q68 -5 142 -5q23 0 166 4q54 1 63.5 7t14.5 21q12 38 14 127h81l-4 -220l4 -219h-86q1 116 -15 143q-12 20 -43 25q-69 11 -177 11q-97 0 -160 -6v-424q0 -71 3 -122q81 -6 192 -6q108 0 199.5 7t112.5 20q7 4 13 18
q18 48 38 182h82q-22 -198 -22 -326l-13 -13q-64 -7 -182 -7l-161 3q-238 3 -328 3q-24 0 -334 -6zM405 1800q61 0 103 -43t42 -103t-42.5 -102.5t-102.5 -42.5t-102.5 42.5t-42.5 102.5q0 61 42.5 103.5t102.5 42.5zM845 1800q60 0 102.5 -43t42.5 -103t-42.5 -102.5
t-102.5 -42.5t-102.5 42.5t-42.5 102.5q0 61 42.5 103.5t102.5 42.5z" />
    <glyph glyph-name="Igrave" unicode="&#xcc;" horiz-adv-x="797" 
d="M732 1399v-88q-101 -3 -120 -7.5t-27 -11t-11 -16.5q-7 -17 -10 -65q-2 -26 -3 -98q-4 -246 -4 -265v-403l3 -183q0 -103 10 -134q4 -14 13.5 -21.5t30 -12t118.5 -6.5v-88q-163 6 -348 6q-161 0 -287 -6v88q104 4 120 7q21 4 28.5 11t9.5 16q3 12 8 94q8 120 8 222v418
q0 199 -2 256q-5 127 -12 159q-3 13 -9.5 20t-24 11.5t-126.5 8.5v88q126 -6 289 -6q183 0 346 6zM457 1494l-262 149q-73 41 -100 76q-19 25 -19 56q0 43 32 73t86 30q40 0 76 -24q27 -18 73 -75l235 -285h-121z" />
    <glyph glyph-name="Iacute" unicode="&#xcd;" horiz-adv-x="797" 
d="M732 1399v-88q-101 -3 -120 -7.5t-27 -11t-11 -16.5q-7 -17 -10 -65q-2 -26 -3 -98q-4 -246 -4 -265v-403l3 -183q0 -103 10 -134q4 -14 13.5 -21.5t30 -12t118.5 -6.5v-88q-163 6 -348 6q-161 0 -287 -6v88q104 4 120 7q21 4 28.5 11t9.5 16q3 12 8 94q8 120 8 222v418
q0 199 -2 256q-5 127 -12 159q-3 13 -9.5 20t-24 11.5t-126.5 8.5v88q126 -6 289 -6q183 0 346 6zM330 1494h-121l235 285q51 62 81.5 80.5t69.5 18.5q52 0 84 -30.5t32 -73.5q0 -29 -18 -53q-29 -37 -101 -78z" />
    <glyph glyph-name="Icircumflex" unicode="&#xce;" horiz-adv-x="797" 
d="M732 1399v-88q-101 -3 -120 -7.5t-27 -11t-11 -16.5q-7 -17 -10 -65q-2 -26 -3 -98q-4 -246 -4 -265v-403l3 -183q0 -103 10 -134q4 -14 13.5 -21.5t30 -12t118.5 -6.5v-88q-163 6 -348 6q-161 0 -287 -6v88q104 4 120 7q21 4 28.5 11t9.5 16q3 12 8 94q8 120 8 222v418
q0 199 -2 256q-5 127 -12 159q-3 13 -9.5 20t-24 11.5t-126.5 8.5v88q126 -6 289 -6q183 0 346 6zM290 1850h213l249 -356h-134l-226 190l-219 -190h-131z" />
    <glyph glyph-name="Idieresis" unicode="&#xcf;" horiz-adv-x="797" 
d="M732 1399v-88q-101 -3 -120 -7.5t-27 -11t-11 -16.5q-7 -17 -10 -65q-2 -26 -3 -98q-4 -246 -4 -265v-403l3 -183q0 -103 10 -134q4 -14 13.5 -21.5t30 -12t118.5 -6.5v-88q-163 6 -348 6q-161 0 -287 -6v88q104 4 120 7q21 4 28.5 11t9.5 16q3 12 8 94q8 120 8 222v418
q0 199 -2 256q-5 127 -12 159q-3 13 -9.5 20t-24 11.5t-126.5 8.5v88q126 -6 289 -6q183 0 346 6zM177 1800q61 0 103 -43t42 -103t-42.5 -102.5t-102.5 -42.5t-102.5 42.5t-42.5 102.5q0 61 42.5 103.5t102.5 42.5zM617 1800q60 0 102.5 -43t42.5 -103t-42.5 -102.5
t-102.5 -42.5t-102.5 42.5t-42.5 102.5q0 61 42.5 103.5t102.5 42.5z" />
    <glyph glyph-name="Eth" unicode="&#xd0;" horiz-adv-x="1706" 
d="M131 0v48q8 5 28 16q38 21 70 44q11 134 11 435v145h-172v106h172l-4 290q-4 146 -14 187q-3 12 -8 17q-8 8 -27 12q-10 3 -124 18v81l362 -6q64 0 242 5q127 3 205 3q176 0 283 -21.5t186 -69t133.5 -112.5t82.5 -141q47 -125 47 -275q0 -191 -70 -341t-192.5 -251
t-265.5 -145.5t-345 -44.5l-297 6zM531 122q93 -14 178 -14q133 0 235 28q77 21 134 61t109.5 118t81 186t28.5 233q0 114 -28.5 220.5t-95 186.5t-167 116t-305.5 36q-77 0 -170 -13q-5 -70 -6 -154l-4 -332h333v-106h-333v-173q0 -298 10 -393z" />
    <glyph glyph-name="Ntilde" unicode="&#xd1;" horiz-adv-x="1706" 
d="M79 85q118 6 135 11q11 4 18.5 13t12.5 37q6 38 14 184q4 83 4 216v321l-4 291q-1 73 -6 95t-14.5 32.5t-31.5 16.5t-128 13v84q127 -6 187 -6l145 3l92 3q206 -269 499 -620q211 -253 350 -396v231q0 538 -12 633q-4 37 -18 48q-23 18 -156 20v84q122 -6 224 -6
q99 0 255 6v-84q-122 -3 -145 -18q-8 -5 -11 -15q-15 -50 -19.5 -228.5t-4.5 -263.5q0 -665 13 -807l-13 -9q-84 14 -171 26q-323 361 -916 1084v-498q0 -155 6 -323q4 -116 12 -141q4 -12 13.5 -19.5t33.5 -10.5q65 -8 95 -8q6 0 20 1v-81q-190 2 -216 2q-97 0 -263 -6v85z
M543 1537h-86q34 149 98.5 211.5t145.5 62.5q77 0 199 -55q77 -34 108 -44q17 -5 34 -5q29 0 48 17q26 22 49 82h88q-38 -154 -102 -215t-147 -61q-42 0 -82 10.5t-113.5 44.5t-98 41.5t-42.5 7.5q-29 0 -54 -21.5t-45 -75.5z" />
    <glyph glyph-name="Ograve" unicode="&#xd2;" horiz-adv-x="1706" 
d="M108 683q0 183 55.5 319t158.5 231t224 137q155 53 338 53q182 0 330 -51q110 -39 194.5 -112.5t128.5 -150.5t66.5 -169t22.5 -203q0 -188 -65 -349q-48 -120 -140.5 -213t-210.5 -143q-162 -67 -370 -67q-225 0 -386.5 81.5t-253.5 240.5t-92 396zM416 742
q0 -233 64 -385.5t164 -215.5t236 -63q126 0 225.5 60t156 203t56.5 347q0 140 -30.5 256t-87.5 197.5t-134.5 124.5t-205.5 43q-146 0 -248.5 -68.5t-149 -202.5t-46.5 -296zM912 1494l-262 149q-73 41 -100 76q-19 25 -19 56q0 43 32 73t86 30q40 0 76 -24q27 -18 73 -75
l235 -285h-121z" />
    <glyph glyph-name="Oacute" unicode="&#xd3;" horiz-adv-x="1706" 
d="M108 683q0 183 55.5 319t158.5 231t224 137q155 53 338 53q182 0 330 -51q110 -39 194.5 -112.5t128.5 -150.5t66.5 -169t22.5 -203q0 -188 -65 -349q-48 -120 -140.5 -213t-210.5 -143q-162 -67 -370 -67q-225 0 -386.5 81.5t-253.5 240.5t-92 396zM416 742
q0 -233 64 -385.5t164 -215.5t236 -63q126 0 225.5 60t156 203t56.5 347q0 140 -30.5 256t-87.5 197.5t-134.5 124.5t-205.5 43q-146 0 -248.5 -68.5t-149 -202.5t-46.5 -296zM785 1494h-121l235 285q51 62 81.5 80.5t69.5 18.5q52 0 84 -30.5t32 -73.5q0 -29 -18 -53
q-29 -37 -101 -78z" />
    <glyph glyph-name="Ocircumflex" unicode="&#xd4;" horiz-adv-x="1706" 
d="M108 683q0 183 55.5 319t158.5 231t224 137q155 53 338 53q182 0 330 -51q110 -39 194.5 -112.5t128.5 -150.5t66.5 -169t22.5 -203q0 -188 -65 -349q-48 -120 -140.5 -213t-210.5 -143q-162 -67 -370 -67q-225 0 -386.5 81.5t-253.5 240.5t-92 396zM416 742
q0 -233 64 -385.5t164 -215.5t236 -63q126 0 225.5 60t156 203t56.5 347q0 140 -30.5 256t-87.5 197.5t-134.5 124.5t-205.5 43q-146 0 -248.5 -68.5t-149 -202.5t-46.5 -296zM745 1850h213l249 -356h-134l-226 190l-219 -190h-131z" />
    <glyph glyph-name="Otilde" unicode="&#xd5;" horiz-adv-x="1706" 
d="M108 683q0 183 55.5 319t158.5 231t224 137q155 53 338 53q182 0 330 -51q110 -39 194.5 -112.5t128.5 -150.5t66.5 -169t22.5 -203q0 -188 -65 -349q-48 -120 -140.5 -213t-210.5 -143q-162 -67 -370 -67q-225 0 -386.5 81.5t-253.5 240.5t-92 396zM416 742
q0 -233 64 -385.5t164 -215.5t236 -63q126 0 225.5 60t156 203t56.5 347q0 140 -30.5 256t-87.5 197.5t-134.5 124.5t-205.5 43q-146 0 -248.5 -68.5t-149 -202.5t-46.5 -296zM543 1537h-86q34 149 98.5 211.5t145.5 62.5q77 0 199 -55q77 -34 108 -44q17 -5 34 -5
q29 0 48 17q26 22 49 82h88q-38 -154 -102 -215t-147 -61q-42 0 -82 10.5t-113.5 44.5t-98 41.5t-42.5 7.5q-29 0 -54 -21.5t-45 -75.5z" />
    <glyph glyph-name="Odieresis" unicode="&#xd6;" horiz-adv-x="1706" 
d="M108 683q0 183 55.5 319t158.5 231t224 137q155 53 338 53q182 0 330 -51q110 -39 194.5 -112.5t128.5 -150.5t66.5 -169t22.5 -203q0 -188 -65 -349q-48 -120 -140.5 -213t-210.5 -143q-162 -67 -370 -67q-225 0 -386.5 81.5t-253.5 240.5t-92 396zM416 742
q0 -233 64 -385.5t164 -215.5t236 -63q126 0 225.5 60t156 203t56.5 347q0 140 -30.5 256t-87.5 197.5t-134.5 124.5t-205.5 43q-146 0 -248.5 -68.5t-149 -202.5t-46.5 -296zM632 1800q61 0 103 -43t42 -103t-42.5 -102.5t-102.5 -42.5t-102.5 42.5t-42.5 102.5
q0 61 42.5 103.5t102.5 42.5zM1072 1800q60 0 102.5 -43t42.5 -103t-42.5 -102.5t-102.5 -42.5t-102.5 42.5t-42.5 102.5q0 61 42.5 103.5t102.5 42.5z" />
    <glyph glyph-name="multiply" unicode="&#xd7;" horiz-adv-x="1241" 
d="M149 246l355 355l-355 356l116 115l355 -355l356 355l116 -115l-356 -356l356 -355l-116 -116l-356 355l-355 -355z" />
    <glyph glyph-name="Oslash" unicode="&#xd8;" horiz-adv-x="1706" 
d="M70 38l187 174q-72 93 -104 185q-47 132 -47 291q0 142 35 258.5t102 207t160.5 153t215 91.5t262.5 29q179 0 319 -45q99 -32 207 -115l179 164l71 -80l-175 -163q71 -88 100 -171q42 -123 42 -274q0 -146 -38 -274.5t-112.5 -227t-183.5 -164.5q-82 -50 -199.5 -77.5
t-239.5 -27.5q-179 0 -286.5 34.5t-231.5 126.5l-189 -172zM1229 1104q-48 82 -92.5 122.5t-117 65.5t-158.5 25q-143 0 -243 -64t-151 -199.5t-51 -306.5q0 -88 14 -185.5t36 -158.5zM511 297q54 -101 140.5 -156t221.5 -55q130 0 229 57.5t156 198.5t57 349q0 175 -42 306
z" />
    <glyph glyph-name="Ugrave" unicode="&#xd9;" horiz-adv-x="1593" 
d="M55 1316v83l325 -6l135 2l135 3l37 1v-83q-108 0 -137 -19q-15 -9 -20 -35q-14 -62 -14 -273v-232l1 -117q0 -183 4 -226q9 -94 47 -151.5t116.5 -93t199.5 -35.5q139 0 221.5 47.5t117.5 123.5t35 289v204q0 264 -1 322q-3 126 -14 152q-7 16 -23 24q-33 17 -144 20v83
q181 -7 215 -7q9 0 27 1l222 6v-83q-93 0 -117 -15q-12 -8 -19.5 -30.5t-14.5 -202.5t-7 -284v-235q0 -90 -13 -186t-52.5 -164t-111.5 -123t-171 -83t-229 -28q-152 0 -284 41q-96 30 -157 80.5t-93 113t-39 120.5q-5 36 -5 194l1 192v254q0 140 -6 252q-3 44 -12 64
q-5 11 -25 26zM903 1494l-262 149q-73 41 -100 76q-19 25 -19 56q0 43 32 73t86 30q40 0 76 -24q27 -18 73 -75l235 -285h-121z" />
    <glyph glyph-name="Uacute" unicode="&#xda;" horiz-adv-x="1593" 
d="M55 1316v83l325 -6l135 2l135 3l37 1v-83q-108 0 -137 -19q-15 -9 -20 -35q-14 -62 -14 -273v-232l1 -117q0 -183 4 -226q9 -94 47 -151.5t116.5 -93t199.5 -35.5q139 0 221.5 47.5t117.5 123.5t35 289v204q0 264 -1 322q-3 126 -14 152q-7 16 -23 24q-33 17 -144 20v83
q181 -7 215 -7q9 0 27 1l222 6v-83q-93 0 -117 -15q-12 -8 -19.5 -30.5t-14.5 -202.5t-7 -284v-235q0 -90 -13 -186t-52.5 -164t-111.5 -123t-171 -83t-229 -28q-152 0 -284 41q-96 30 -157 80.5t-93 113t-39 120.5q-5 36 -5 194l1 192v254q0 140 -6 252q-3 44 -12 64
q-5 11 -25 26zM776 1494h-121l235 285q51 62 81.5 80.5t69.5 18.5q52 0 84 -30.5t32 -73.5q0 -29 -18 -53q-29 -37 -101 -78z" />
    <glyph glyph-name="Ucircumflex" unicode="&#xdb;" horiz-adv-x="1593" 
d="M55 1316v83l325 -6l135 2l135 3l37 1v-83q-108 0 -137 -19q-15 -9 -20 -35q-14 -62 -14 -273v-232l1 -117q0 -183 4 -226q9 -94 47 -151.5t116.5 -93t199.5 -35.5q139 0 221.5 47.5t117.5 123.5t35 289v204q0 264 -1 322q-3 126 -14 152q-7 16 -23 24q-33 17 -144 20v83
q181 -7 215 -7q9 0 27 1l222 6v-83q-93 0 -117 -15q-12 -8 -19.5 -30.5t-14.5 -202.5t-7 -284v-235q0 -90 -13 -186t-52.5 -164t-111.5 -123t-171 -83t-229 -28q-152 0 -284 41q-96 30 -157 80.5t-93 113t-39 120.5q-5 36 -5 194l1 192v254q0 140 -6 252q-3 44 -12 64
q-5 11 -25 26zM736 1850h213l249 -356h-134l-226 190l-219 -190h-131z" />
    <glyph glyph-name="Udieresis" unicode="&#xdc;" horiz-adv-x="1593" 
d="M55 1316v83l325 -6l135 2l135 3l37 1v-83q-108 0 -137 -19q-15 -9 -20 -35q-14 -62 -14 -273v-232l1 -117q0 -183 4 -226q9 -94 47 -151.5t116.5 -93t199.5 -35.5q139 0 221.5 47.5t117.5 123.5t35 289v204q0 264 -1 322q-3 126 -14 152q-7 16 -23 24q-33 17 -144 20v83
q181 -7 215 -7q9 0 27 1l222 6v-83q-93 0 -117 -15q-12 -8 -19.5 -30.5t-14.5 -202.5t-7 -284v-235q0 -90 -13 -186t-52.5 -164t-111.5 -123t-171 -83t-229 -28q-152 0 -284 41q-96 30 -157 80.5t-93 113t-39 120.5q-5 36 -5 194l1 192v254q0 140 -6 252q-3 44 -12 64
q-5 11 -25 26zM623 1800q61 0 103 -43t42 -103t-42.5 -102.5t-102.5 -42.5t-102.5 42.5t-42.5 102.5q0 61 42.5 103.5t102.5 42.5zM1063 1800q60 0 102.5 -43t42.5 -103t-42.5 -102.5t-102.5 -42.5t-102.5 42.5t-42.5 102.5q0 61 42.5 103.5t102.5 42.5z" />
    <glyph glyph-name="Yacute" unicode="&#xdd;" horiz-adv-x="1366" 
d="M808 735l126 204q32 55 190 335q55 96 69 125h157v-45q-121 -163 -261 -383t-173 -283q-22 -43 -29 -75q-6 -23 -6 -75v-169q0 -127 6.5 -185t15.5 -70t30 -18t132 -8v-88q-191 6 -345 6q-150 0 -304 -6v88q114 4 133.5 9t27 15t10.5 60q6 114 6 194v190q0 23 -38 95
q-94 172 -201 339q-87 136 -162 218q-50 54 -71 65q-13 6 -88 6v75l212 42q54 12 111 27q61 -34 89 -60.5t77 -99.5q73 -108 145 -249q117 -227 141 -279zM615 1494h-121l235 285q51 62 81.5 80.5t69.5 18.5q52 0 84 -30.5t32 -73.5q0 -29 -18 -53q-29 -37 -101 -78z" />
    <glyph glyph-name="Thorn" unicode="&#xde;" 
d="M83 0v88q111 2 140 17q9 5 14 15q7 14 11 73q11 160 11 356v353l-4 188q-2 121 -4.5 151t-9.5 43q-4 8 -13.5 14t-34.5 11l-110 7v83l295 -6l334 6v-83l-94 -5q-31 -4 -43.5 -9.5t-19 -14.5t-10.5 -38t-4 -117q67 -6 167 -7q153 -2 209 -12q95 -16 150.5 -57t80.5 -94
t25 -130q0 -133 -57 -235.5t-156.5 -158t-196.5 -55.5q-18 0 -50.5 4t-78.5 11l-33 73l20 20q26 -7 47.5 -11t39.5 -4q83 0 121 47q49 60 49 202q0 119 -26.5 187.5t-62.5 89.5t-124 21q-44 0 -69 -4q-19 -2 -55 -14v-479q0 -140 4 -290q3 -87 11 -110q4 -10 13.5 -17.5
t34.5 -11.5l135 -9v-88q-256 6 -385 6q-142 0 -271 -6z" />
    <glyph glyph-name="germandbls" unicode="&#xdf;" 
d="M63 0v79q98 4 121 14q13 4 19.5 16t9.5 71q4 82 4 141v434h-42q-38 0 -76 -2q-21 -1 -29 -1v45q25 13 80 48q37 25 60 44q1 121 6 163q8 57 33 104t65 85q69 66 184 146q57 40 115.5 61.5t136.5 21.5q149 0 232 -79t83 -209q0 -121 -31 -258q-20 -72 -36 -89t-36 -15
q-24 14 -45.5 21t-46.5 7q-46 0 -74 -25t-28 -59q0 -38 34.5 -69t161.5 -102q76 -43 107 -67q46 -36 64.5 -74t18.5 -101q0 -80 -39 -149q-25 -45 -97 -112t-114 -90q-61 -35 -145 -35q-61 0 -108 15q-23 8 -59 36l-8 -16l-241 6zM609 229l65 11l7 -104q32 -28 55 -38
q37 -17 75 -17q31 0 58.5 10.5t42.5 23.5t27.5 38.5t12.5 54.5q0 39 -31 77.5t-125 94.5t-116 74q-47 38 -69 81.5t-22 99.5q0 64 32 119q23 40 81 99t87 75q42 25 112 25q8 35 11.5 69.5t3.5 68.5q0 110 -65 177t-165 67q-57 0 -102 -22t-72.5 -57t-37.5 -84.5t-11 -228.5
v-623q0 -122 4.5 -166t12 -53t22.5 -13q36 -9 88 -9q6 20 10 63q1 23 4.5 46.5t4.5 40.5z" />
    <glyph glyph-name="agrave" unicode="&#xe0;" horiz-adv-x="1024" 
d="M977 75v-75q-115 5 -204 5q-84 0 -163 -5l-9 11l9 131q-36 -23 -212 -158q-45 -10 -86 -10q-109 0 -170.5 64t-61.5 184q0 81 27.5 133t59 76.5t97.5 47.5q158 56 346 88q2 119 -49 181q-52 62 -158 62q-43 0 -82 -11q-17 -5 -40 -20l-42 -101l-68 15l6 129q74 50 141 87
t94 45q37 11 104 11q109 0 179.5 -31.5t104 -74.5t46 -92t12.5 -124q0 -32 -5 -167q-3 -90 -3 -147q0 -178 10 -216q4 -18 16 -24q16 -8 101 -14zM610 483q-85 -18 -155.5 -43.5t-97.5 -63t-27 -94.5q0 -64 32.5 -99t85.5 -35q45 0 90.5 26t71.5 66v243zM571 1099l-262 149
q-73 41 -100 76q-19 25 -19 56q0 43 32 73t86 30q40 0 76 -24q27 -18 73 -75l235 -285h-121z" />
    <glyph glyph-name="aacute" unicode="&#xe1;" horiz-adv-x="1024" 
d="M977 75v-75q-115 5 -204 5q-84 0 -163 -5l-9 11l9 131q-36 -23 -212 -158q-45 -10 -86 -10q-109 0 -170.5 64t-61.5 184q0 81 27.5 133t59 76.5t97.5 47.5q158 56 346 88q2 119 -49 181q-52 62 -158 62q-43 0 -82 -11q-17 -5 -40 -20l-42 -101l-68 15l6 129q74 50 141 87
t94 45q37 11 104 11q109 0 179.5 -31.5t104 -74.5t46 -92t12.5 -124q0 -32 -5 -167q-3 -90 -3 -147q0 -178 10 -216q4 -18 16 -24q16 -8 101 -14zM610 483q-85 -18 -155.5 -43.5t-97.5 -63t-27 -94.5q0 -64 32.5 -99t85.5 -35q45 0 90.5 26t71.5 66v243zM444 1099h-121
l235 285q51 62 81.5 80.5t69.5 18.5q52 0 84 -30.5t32 -73.5q0 -29 -18 -53q-29 -37 -101 -78z" />
    <glyph glyph-name="acircumflex" unicode="&#xe2;" horiz-adv-x="1024" 
d="M977 75v-75q-115 5 -204 5q-84 0 -163 -5l-9 11l9 131q-36 -23 -212 -158q-45 -10 -86 -10q-109 0 -170.5 64t-61.5 184q0 81 27.5 133t59 76.5t97.5 47.5q158 56 346 88q2 119 -49 181q-52 62 -158 62q-43 0 -82 -11q-17 -5 -40 -20l-42 -101l-68 15l6 129q74 50 141 87
t94 45q37 11 104 11q109 0 179.5 -31.5t104 -74.5t46 -92t12.5 -124q0 -32 -5 -167q-3 -90 -3 -147q0 -178 10 -216q4 -18 16 -24q16 -8 101 -14zM610 483q-85 -18 -155.5 -43.5t-97.5 -63t-27 -94.5q0 -64 32.5 -99t85.5 -35q45 0 90.5 26t71.5 66v243zM404 1455h213
l249 -356h-134l-226 190l-219 -190h-131z" />
    <glyph glyph-name="atilde" unicode="&#xe3;" horiz-adv-x="1024" 
d="M977 75v-75q-115 5 -204 5q-84 0 -163 -5l-9 11l9 131q-36 -23 -212 -158q-45 -10 -86 -10q-109 0 -170.5 64t-61.5 184q0 81 27.5 133t59 76.5t97.5 47.5q158 56 346 88q2 119 -49 181q-52 62 -158 62q-43 0 -82 -11q-17 -5 -40 -20l-42 -101l-68 15l6 129q74 50 141 87
t94 45q37 11 104 11q109 0 179.5 -31.5t104 -74.5t46 -92t12.5 -124q0 -32 -5 -167q-3 -90 -3 -147q0 -178 10 -216q4 -18 16 -24q16 -8 101 -14zM610 483q-85 -18 -155.5 -43.5t-97.5 -63t-27 -94.5q0 -64 32.5 -99t85.5 -35q45 0 90.5 26t71.5 66v243zM202 1142h-86
q34 149 98.5 211.5t145.5 62.5q77 0 199 -55q77 -34 108 -44q17 -5 34 -5q29 0 48 17q26 22 49 82h88q-38 -154 -102 -215t-147 -61q-42 0 -82 10.5t-113.5 44.5t-98 41.5t-42.5 7.5q-29 0 -54 -21.5t-45 -75.5z" />
    <glyph glyph-name="adieresis" unicode="&#xe4;" horiz-adv-x="1024" 
d="M977 75v-75q-115 5 -204 5q-84 0 -163 -5l-9 11l9 131q-36 -23 -212 -158q-45 -10 -86 -10q-109 0 -170.5 64t-61.5 184q0 81 27.5 133t59 76.5t97.5 47.5q158 56 346 88q2 119 -49 181q-52 62 -158 62q-43 0 -82 -11q-17 -5 -40 -20l-42 -101l-68 15l6 129q74 50 141 87
t94 45q37 11 104 11q109 0 179.5 -31.5t104 -74.5t46 -92t12.5 -124q0 -32 -5 -167q-3 -90 -3 -147q0 -178 10 -216q4 -18 16 -24q16 -8 101 -14zM610 483q-85 -18 -155.5 -43.5t-97.5 -63t-27 -94.5q0 -64 32.5 -99t85.5 -35q45 0 90.5 26t71.5 66v243zM291 1405
q61 0 103 -43t42 -103t-42.5 -102.5t-102.5 -42.5t-102.5 42.5t-42.5 102.5q0 61 42.5 103.5t102.5 42.5zM731 1405q60 0 102.5 -43t42.5 -103t-42.5 -102.5t-102.5 -42.5t-102.5 42.5t-42.5 102.5q0 61 42.5 103.5t102.5 42.5z" />
    <glyph glyph-name="aring" unicode="&#xe5;" horiz-adv-x="1024" 
d="M977 75v-75q-115 5 -204 5q-84 0 -163 -5l-9 11l9 131q-36 -23 -212 -158q-45 -10 -86 -10q-109 0 -170.5 64t-61.5 184q0 81 27.5 133t59 76.5t97.5 47.5q158 56 346 88q2 119 -49 181q-52 62 -158 62q-43 0 -82 -11q-17 -5 -40 -20l-42 -101l-68 15l6 129q74 50 141 87
t94 45q37 11 104 11q109 0 179.5 -31.5t104 -74.5t46 -92t12.5 -124q0 -32 -5 -167q-3 -90 -3 -147q0 -178 10 -216q4 -18 16 -24q16 -8 101 -14zM610 483q-85 -18 -155.5 -43.5t-97.5 -63t-27 -94.5q0 -64 32.5 -99t85.5 -35q45 0 90.5 26t71.5 66v243zM580 1508
q116 0 181 -65.5t65 -160.5q0 -93 -65 -159t-181 -66q-117 0 -181 66t-64 159q0 95 64 160.5t181 65.5zM580 1446q-65 0 -94.5 -45t-29.5 -119q-1 -73 27.5 -118.5t96.5 -45.5q66 0 95.5 45.5t28.5 118.5q0 74 -28.5 119t-95.5 45z" />
    <glyph glyph-name="ae" unicode="&#xe6;" horiz-adv-x="1593" 
d="M710 164q-78 -46 -223 -165q-62 -31 -136 -31q-117 0 -185.5 67.5t-68.5 178.5q0 69 29 131q20 42 66 89q76 37 175 64.5t286 58.5q2 19 2 29q0 110 -57.5 169t-155.5 59q-41 0 -73 -8.5t-77 -31.5q-12 -26 -23 -62q-6 -20 -9 -29l-68 11l-5 127l124 69q21 12 111 54
q64 21 136 21q86 0 152.5 -26.5t119.5 -82.5q58 55 130 82t159 27q190 0 287.5 -112t97.5 -299q0 -27 -6 -53l-140 -31q-79 -6 -188 -6q-146 0 -162 -1.5t-36 -1.5l-72 1q2 -112 39 -185t115.5 -118.5t168.5 -45.5q54 0 112.5 17.5t107.5 50.5l24 -27q-39 -71 -54 -106
q-70 -40 -147.5 -60.5t-161.5 -20.5q-140 0 -239 50.5t-155 146.5zM901 567q103 -9 221 -9q64 0 117 6q1 20 1 29q0 48 -13 105t-30.5 85.5t-50 48.5t-76.5 20q-50 0 -88.5 -27.5t-60.5 -93.5t-22 -134q0 -10 2 -30zM654 462q-60 -1 -153 -30q-59 -18 -86 -37.5t-43 -56
t-16 -77.5q0 -52 35 -86t92 -34q88 0 163 88q7 29 7 87z" />
    <glyph glyph-name="ccedilla" unicode="&#xe7;" horiz-adv-x="909" 
d="M530 -35l-41 -93q35 5 59 5q96 0 145.5 -43t49.5 -104q0 -71 -69.5 -126.5t-211.5 -55.5q-105 0 -200 36l35 80q80 -25 136 -25q49 0 74.5 22.5t25.5 54.5q0 30 -24 51.5t-65 21.5q-23 0 -54 -10l-25 18l79 176q-93 17 -153.5 52t-107 94.5t-70 130t-23.5 186.5
q0 105 20 172t57 118q25 34 67 64l154 97q78 50 107 60q48 18 125 18q64 0 119.5 -10.5t102.5 -31.5l10 -17l-25 -163q-3 -22 -10 -138h-78q-6 89 -15 132q-21 34 -65 55.5t-108 21.5q-76 0 -121 -28t-66 -94t-21 -160q0 -126 43 -225.5t113.5 -146t173.5 -46.5
q47 0 89 10.5t80 30.5l19 -23l-44 -97q-89 -44 -146 -57q-57 -14 -141 -13z" />
    <glyph glyph-name="egrave" unicode="&#xe8;" horiz-adv-x="1024" 
d="M928 154l-44 -98q-82 -50 -169 -74q-65 -17 -148 -17q-99 0 -174.5 23t-129 63t-94 98t-58.5 134t-18 166q0 131 35 234q24 72 56 104q20 20 104 75t122 72q70 31 165 31q134 0 220 -56t121.5 -143t35.5 -211q0 -28 -2 -54q-25 -8 -76 -18q-68 -13 -92 -14
q-75 -6 -198 -7t-136 -2t-29 -1h-66q8 -158 98 -249.5t222 -91.5q57 0 105 12.5t126 51.5zM690 568q4 159 -43 223q-48 63 -124 63q-78 0 -129 -66q-52 -67 -48 -220q59 -9 197 -9q88 0 147 9zM619 1099l-262 149q-73 41 -100 76q-19 25 -19 56q0 43 32 73t86 30
q40 0 76 -24q27 -18 73 -75l235 -285h-121z" />
    <glyph glyph-name="eacute" unicode="&#xe9;" horiz-adv-x="1024" 
d="M928 154l-44 -98q-82 -50 -169 -74q-65 -17 -148 -17q-99 0 -174.5 23t-129 63t-94 98t-58.5 134t-18 166q0 131 35 234q24 72 56 104q20 20 104 75t122 72q70 31 165 31q134 0 220 -56t121.5 -143t35.5 -211q0 -28 -2 -54q-25 -8 -76 -18q-68 -13 -92 -14
q-75 -6 -198 -7t-136 -2t-29 -1h-66q8 -158 98 -249.5t222 -91.5q57 0 105 12.5t126 51.5zM690 568q4 159 -43 223q-48 63 -124 63q-78 0 -129 -66q-52 -67 -48 -220q59 -9 197 -9q88 0 147 9zM492 1099h-121l235 285q51 62 81.5 80.5t69.5 18.5q52 0 84 -30.5t32 -73.5
q0 -29 -18 -53q-29 -37 -101 -78z" />
    <glyph glyph-name="ecircumflex" unicode="&#xea;" horiz-adv-x="1024" 
d="M928 154l-44 -98q-82 -50 -169 -74q-65 -17 -148 -17q-99 0 -174.5 23t-129 63t-94 98t-58.5 134t-18 166q0 131 35 234q24 72 56 104q20 20 104 75t122 72q70 31 165 31q134 0 220 -56t121.5 -143t35.5 -211q0 -28 -2 -54q-25 -8 -76 -18q-68 -13 -92 -14
q-75 -6 -198 -7t-136 -2t-29 -1h-66q8 -158 98 -249.5t222 -91.5q57 0 105 12.5t126 51.5zM690 568q4 159 -43 223q-48 63 -124 63q-78 0 -129 -66q-52 -67 -48 -220q59 -9 197 -9q88 0 147 9zM452 1455h213l249 -356h-134l-226 190l-219 -190h-131z" />
    <glyph glyph-name="edieresis" unicode="&#xeb;" horiz-adv-x="1024" 
d="M928 154l-44 -98q-82 -50 -169 -74q-65 -17 -148 -17q-99 0 -174.5 23t-129 63t-94 98t-58.5 134t-18 166q0 131 35 234q24 72 56 104q20 20 104 75t122 72q70 31 165 31q134 0 220 -56t121.5 -143t35.5 -211q0 -28 -2 -54q-25 -8 -76 -18q-68 -13 -92 -14
q-75 -6 -198 -7t-136 -2t-29 -1h-66q8 -158 98 -249.5t222 -91.5q57 0 105 12.5t126 51.5zM690 568q4 159 -43 223q-48 63 -124 63q-78 0 -129 -66q-52 -67 -48 -220q59 -9 197 -9q88 0 147 9zM339 1405q61 0 103 -43t42 -103t-42.5 -102.5t-102.5 -42.5t-102.5 42.5
t-42.5 102.5q0 61 42.5 103.5t102.5 42.5zM779 1405q60 0 102.5 -43t42.5 -103t-42.5 -102.5t-102.5 -42.5t-102.5 42.5t-42.5 102.5q0 61 42.5 103.5t102.5 42.5z" />
    <glyph glyph-name="igrave" unicode="&#xec;" horiz-adv-x="682" 
d="M69 0v74q112 8 128 17.5t20 35.5q10 55 10 283q0 313 -9 356q-4 20 -13 26q-20 13 -136 14v76q151 16 228 34t168 55l24 -13q-12 -156 -12 -293v-340q0 -174 8 -206q4 -18 16 -24q27 -13 131 -17v-78q-142 4 -309 4q-144 0 -254 -4zM401 1099l-262 149q-73 41 -100 76
q-19 25 -19 56q0 43 32 73t86 30q40 0 76 -24q27 -18 73 -75l235 -285h-121z" />
    <glyph glyph-name="iacute" unicode="&#xed;" horiz-adv-x="682" 
d="M69 0v74q112 8 128 17.5t20 35.5q10 55 10 283q0 313 -9 356q-4 20 -13 26q-20 13 -136 14v76q151 16 228 34t168 55l24 -13q-12 -156 -12 -293v-340q0 -174 8 -206q4 -18 16 -24q27 -13 131 -17v-78q-142 4 -309 4q-144 0 -254 -4zM274 1099h-121l235 285
q51 62 81.5 80.5t69.5 18.5q52 0 84 -30.5t32 -73.5q0 -29 -18 -53q-29 -37 -101 -78z" />
    <glyph glyph-name="icircumflex" unicode="&#xee;" horiz-adv-x="682" 
d="M69 0v74q112 8 128 17.5t20 35.5q10 55 10 283q0 313 -9 356q-4 20 -13 26q-20 13 -136 14v76q151 16 228 34t168 55l24 -13q-12 -156 -12 -293v-340q0 -174 8 -206q4 -18 16 -24q27 -13 131 -17v-78q-142 4 -309 4q-144 0 -254 -4zM234 1455h213l249 -356h-134l-226 190
l-219 -190h-131z" />
    <glyph glyph-name="idieresis" unicode="&#xef;" horiz-adv-x="682" 
d="M69 0v74q112 8 128 17.5t20 35.5q10 55 10 283q0 313 -9 356q-4 20 -13 26q-20 13 -136 14v76q151 16 228 34t168 55l24 -13q-12 -156 -12 -293v-340q0 -174 8 -206q4 -18 16 -24q27 -13 131 -17v-78q-142 4 -309 4q-144 0 -254 -4zM121 1405q61 0 103 -43t42 -103
t-42.5 -102.5t-102.5 -42.5t-102.5 42.5t-42.5 102.5q0 61 42.5 103.5t102.5 42.5zM561 1405q60 0 102.5 -43t42.5 -103t-42.5 -102.5t-102.5 -42.5t-102.5 42.5t-42.5 102.5q0 61 42.5 103.5t102.5 42.5z" />
    <glyph glyph-name="eth" unicode="&#xf0;" horiz-adv-x="1139" 
d="M550 1178l-275 -128l-37 78l250 115q-58 53 -94.5 80t-101.5 61l84 108q113 -56 162 -84.5t123 -81.5l276 125l38 -76l-239 -112q104 -104 162 -186t94 -166.5t54 -171.5t18 -183q0 -176 -62 -311t-183 -207.5t-279 -72.5q-102 0 -184 30t-138 81.5t-89 116.5
q-25 48 -39 118t-14 153q0 97 20 180t67 148t106 103.5t136 59t163 20.5q38 0 57 -3.5t52 -14.5q-19 64 -41 103.5t-86 117.5zM582 66q97 0 148.5 94t51.5 310q0 89 -11.5 168.5t-39.5 132t-69.5 79t-101.5 26.5q-71 0 -114.5 -37.5t-64.5 -109.5t-21 -215q0 -185 30.5 -278
t81.5 -131.5t110 -38.5z" />
    <glyph glyph-name="ntilde" unicode="&#xf1;" 
d="M1209 77v-77q-136 7 -222 7q-99 0 -172 -7l-18 18q2 21 13 173l5 164v79q0 175 -13.5 230t-55.5 88.5t-112 33.5t-116 -33.5t-58 -67.5q-7 -20 -6 -160v-168q0 -73 4 -179q1 -47 8 -62q5 -11 13 -16q12 -8 47 -15q12 -2 84 -8v-77q-109 4 -267 4q-183 0 -284 -4v77
q78 0 108 11q14 5 21 17q10 19 11 72l4 89q1 28 1 91v131q0 89 -6 216q-3 64 -8.5 72.5t-17.5 12.5q-19 7 -113 10v77q182 31 239 46t129 48l27 -12v-161l182 146q33 13 55.5 17.5t62.5 4.5q107 0 160.5 -24t90.5 -67.5t52 -91t15 -148.5q0 -114 -2 -145q-1 -12 -1 -29
l1 -103q1 -169 5.5 -209t18 -51.5t59.5 -14.5q17 -1 56 -5zM316 1142h-86q34 149 98.5 211.5t145.5 62.5q77 0 199 -55q77 -34 108 -44q17 -5 34 -5q29 0 48 17q26 22 49 82h88q-38 -154 -102 -215t-147 -61q-42 0 -82 10.5t-113.5 44.5t-98 41.5t-42.5 7.5q-29 0 -54 -21.5
t-45 -75.5z" />
    <glyph glyph-name="ograve" unicode="&#xf2;" horiz-adv-x="1139" 
d="M86 472q0 170 58 281.5t174 168t270 56.5q231 0 351.5 -121t120.5 -355q0 -135 -35 -234t-94 -159.5t-124 -91.5q-111 -52 -250 -52q-226 0 -348.5 128.5t-122.5 378.5zM363 520q0 -266 78 -379q52 -75 148 -75q82 0 130 57q64 76 64 294q0 153 -25.5 262.5t-75 152.5
t-119.5 43q-60 0 -105 -31.5t-70 -106t-25 -217.5zM628 1099l-262 149q-73 41 -100 76q-19 25 -19 56q0 43 32 73t86 30q40 0 76 -24q27 -18 73 -75l235 -285h-121z" />
    <glyph glyph-name="oacute" unicode="&#xf3;" horiz-adv-x="1139" 
d="M86 472q0 170 58 281.5t174 168t270 56.5q231 0 351.5 -121t120.5 -355q0 -135 -35 -234t-94 -159.5t-124 -91.5q-111 -52 -250 -52q-226 0 -348.5 128.5t-122.5 378.5zM363 520q0 -266 78 -379q52 -75 148 -75q82 0 130 57q64 76 64 294q0 153 -25.5 262.5t-75 152.5
t-119.5 43q-60 0 -105 -31.5t-70 -106t-25 -217.5zM501 1099h-121l235 285q51 62 81.5 80.5t69.5 18.5q52 0 84 -30.5t32 -73.5q0 -29 -18 -53q-29 -37 -101 -78z" />
    <glyph glyph-name="ocircumflex" unicode="&#xf4;" horiz-adv-x="1139" 
d="M86 472q0 170 58 281.5t174 168t270 56.5q231 0 351.5 -121t120.5 -355q0 -135 -35 -234t-94 -159.5t-124 -91.5q-111 -52 -250 -52q-226 0 -348.5 128.5t-122.5 378.5zM363 520q0 -266 78 -379q52 -75 148 -75q82 0 130 57q64 76 64 294q0 153 -25.5 262.5t-75 152.5
t-119.5 43q-60 0 -105 -31.5t-70 -106t-25 -217.5zM461 1455h213l249 -356h-134l-226 190l-219 -190h-131z" />
    <glyph glyph-name="otilde" unicode="&#xf5;" horiz-adv-x="1139" 
d="M86 472q0 170 58 281.5t174 168t270 56.5q231 0 351.5 -121t120.5 -355q0 -135 -35 -234t-94 -159.5t-124 -91.5q-111 -52 -250 -52q-226 0 -348.5 128.5t-122.5 378.5zM363 520q0 -266 78 -379q52 -75 148 -75q82 0 130 57q64 76 64 294q0 153 -25.5 262.5t-75 152.5
t-119.5 43q-60 0 -105 -31.5t-70 -106t-25 -217.5zM259 1142h-86q34 149 98.5 211.5t145.5 62.5q77 0 199 -55q77 -34 108 -44q17 -5 34 -5q29 0 48 17q26 22 49 82h88q-38 -154 -102 -215t-147 -61q-42 0 -82 10.5t-113.5 44.5t-98 41.5t-42.5 7.5q-29 0 -54 -21.5
t-45 -75.5z" />
    <glyph glyph-name="odieresis" unicode="&#xf6;" horiz-adv-x="1139" 
d="M86 472q0 170 58 281.5t174 168t270 56.5q231 0 351.5 -121t120.5 -355q0 -135 -35 -234t-94 -159.5t-124 -91.5q-111 -52 -250 -52q-226 0 -348.5 128.5t-122.5 378.5zM363 520q0 -266 78 -379q52 -75 148 -75q82 0 130 57q64 76 64 294q0 153 -25.5 262.5t-75 152.5
t-119.5 43q-60 0 -105 -31.5t-70 -106t-25 -217.5zM348 1405q61 0 103 -43t42 -103t-42.5 -102.5t-102.5 -42.5t-102.5 42.5t-42.5 102.5q0 61 42.5 103.5t102.5 42.5zM788 1405q60 0 102.5 -43t42.5 -103t-42.5 -102.5t-102.5 -42.5t-102.5 42.5t-42.5 102.5
q0 61 42.5 103.5t102.5 42.5z" />
    <glyph glyph-name="divide" unicode="&#xf7;" horiz-adv-x="1124" 
d="M563 1147q54 0 92.5 -38.5t38.5 -93.5q0 -54 -38.5 -92.5t-92.5 -38.5q-55 0 -93.5 38.5t-38.5 92.5q0 55 38.5 93.5t93.5 38.5zM12 671h1101v-152h-1101v152zM563 306q54 0 92.5 -38.5t38.5 -92.5q0 -55 -38.5 -93.5t-92.5 -38.5q-55 0 -93.5 38.5t-38.5 93.5
q0 54 38.5 92.5t93.5 38.5z" />
    <glyph glyph-name="oslash" unicode="&#xf8;" horiz-adv-x="1139" 
d="M97 -52l-59 56l128 129q-41 62 -59 124q-29 98 -29 215q0 168 54.5 273t164 166t280.5 61q119 0 212 -31q60 -21 117 -66l115 114l56 -56l-114 -117q40 -54 57 -107q29 -93 29 -211q0 -107 -22 -192.5t-65.5 -147.5t-97 -102t-117.5 -61q-93 -30 -204 -30q-116 0 -206 33
q-58 21 -117 72zM751 711q-5 73 -56 118.5t-141 45.5q-77 0 -124 -38t-66.5 -105t-19.5 -219q0 -114 15 -182zM373 241q10 -84 62.5 -130.5t136.5 -46.5q80 0 128 39.5t67 122.5q12 56 12 224q0 108 -10 165z" />
    <glyph glyph-name="ugrave" unicode="&#xf9;" 
d="M53 802v76q86 5 173 23t223 64l14 -11q-14 -198 -14 -366v-112q0 -143 7 -191q10 -63 48 -95t101 -32q72 0 121 37.5t68 77.5q12 26 12 108v171l-2 142q0 69 -9 83q-5 9 -20 14t-122 11v76q155 20 211 32t190 55l19 -11l-11 -184q-8 -196 -8 -219v-205q0 -183 9 -226
q4 -18 15 -25q19 -10 123 -15v-80l-206 5l-189 -5l-7 8l6 77q1 19 1 77q-39 -31 -68 -57l-113 -107q-69 -25 -139 -25q-135 0 -212 74t-77 197q0 15 3 111q1 51 1 132l-2 211q0 58 -7.5 72t-24.5 21t-114 11zM685 1099l-262 149q-73 41 -100 76q-19 25 -19 56q0 43 32 73
t86 30q40 0 76 -24q27 -18 73 -75l235 -285h-121z" />
    <glyph glyph-name="uacute" unicode="&#xfa;" 
d="M53 802v76q86 5 173 23t223 64l14 -11q-14 -198 -14 -366v-112q0 -143 7 -191q10 -63 48 -95t101 -32q72 0 121 37.5t68 77.5q12 26 12 108v171l-2 142q0 69 -9 83q-5 9 -20 14t-122 11v76q155 20 211 32t190 55l19 -11l-11 -184q-8 -196 -8 -219v-205q0 -183 9 -226
q4 -18 15 -25q19 -10 123 -15v-80l-206 5l-189 -5l-7 8l6 77q1 19 1 77q-39 -31 -68 -57l-113 -107q-69 -25 -139 -25q-135 0 -212 74t-77 197q0 15 3 111q1 51 1 132l-2 211q0 58 -7.5 72t-24.5 21t-114 11zM558 1099h-121l235 285q51 62 81.5 80.5t69.5 18.5
q52 0 84 -30.5t32 -73.5q0 -29 -18 -53q-29 -37 -101 -78z" />
    <glyph glyph-name="ucircumflex" unicode="&#xfb;" 
d="M53 802v76q86 5 173 23t223 64l14 -11q-14 -198 -14 -366v-112q0 -143 7 -191q10 -63 48 -95t101 -32q72 0 121 37.5t68 77.5q12 26 12 108v171l-2 142q0 69 -9 83q-5 9 -20 14t-122 11v76q155 20 211 32t190 55l19 -11l-11 -184q-8 -196 -8 -219v-205q0 -183 9 -226
q4 -18 15 -25q19 -10 123 -15v-80l-206 5l-189 -5l-7 8l6 77q1 19 1 77q-39 -31 -68 -57l-113 -107q-69 -25 -139 -25q-135 0 -212 74t-77 197q0 15 3 111q1 51 1 132l-2 211q0 58 -7.5 72t-24.5 21t-114 11zM518 1455h213l249 -356h-134l-226 190l-219 -190h-131z" />
    <glyph glyph-name="udieresis" unicode="&#xfc;" 
d="M53 802v76q86 5 173 23t223 64l14 -11q-14 -198 -14 -366v-112q0 -143 7 -191q10 -63 48 -95t101 -32q72 0 121 37.5t68 77.5q12 26 12 108v171l-2 142q0 69 -9 83q-5 9 -20 14t-122 11v76q155 20 211 32t190 55l19 -11l-11 -184q-8 -196 -8 -219v-205q0 -183 9 -226
q4 -18 15 -25q19 -10 123 -15v-80l-206 5l-189 -5l-7 8l6 77q1 19 1 77q-39 -31 -68 -57l-113 -107q-69 -25 -139 -25q-135 0 -212 74t-77 197q0 15 3 111q1 51 1 132l-2 211q0 58 -7.5 72t-24.5 21t-114 11zM405 1405q61 0 103 -43t42 -103t-42.5 -102.5t-102.5 -42.5
t-102.5 42.5t-42.5 102.5q0 61 42.5 103.5t102.5 42.5zM845 1405q60 0 102.5 -43t42.5 -103t-42.5 -102.5t-102.5 -42.5t-102.5 42.5t-42.5 102.5q0 61 42.5 103.5t102.5 42.5z" />
    <glyph glyph-name="yacute" unicode="&#xfd;" horiz-adv-x="1139" 
d="M65 -510q17 73 22 102l15 101l26 5q25 -26 57 -46q39 -17 84 -17q52 0 96 35.5t98 155.5l40 96l-324 831q-29 74 -55 91.5t-99 16.5v79q98 -4 240 -4q168 0 299 4v-79h-23q-62 1 -86 -14q-15 -10 -15 -26q0 -18 10 -44l49 -135l146 -381l88 208q129 308 129 356
q0 10 -5 16q-7 8 -25 12q-36 7 -96 8v79q64 -4 161 -4q118 0 220 4v-79h-16q-27 1 -51 -10q-15 -6 -26.5 -20t-56.5 -110q-59 -126 -95 -208q-112 -254 -142 -326l-161 -393q-74 -179 -157 -255q-83 -77 -202 -77q-39 0 -71.5 6t-73.5 22zM501 1099h-121l235 285
q51 62 81.5 80.5t69.5 18.5q52 0 84 -30.5t32 -73.5q0 -29 -18 -53q-29 -37 -101 -78z" />
    <glyph glyph-name="thorn" unicode="&#xfe;" 
d="M453 7v-370q0 -46 9 -57.5t33 -16.5q10 -2 135 -12v-79l-317 7l-262 -7v79q91 0 112 8q12 4 19.5 14.5t9.5 25.5q5 40 9 172l3 215v966q0 126 -4 220.5t-14 111.5q-7 11 -21 16.5t-114 6.5v78q149 16 225 34t157 54l23 -15l-5 -553l2 -118q15 12 50 41l100 82q10 9 30 28
q39 16 65.5 21.5t73.5 5.5q106 0 171 -30q93 -43 153 -133.5t60 -220.5q0 -82 -22 -163t-49.5 -129t-58.5 -80q-23 -24 -77.5 -64t-100.5 -78t-66 -51q-32 -20 -61 -28q-40 -12 -93 -12q-42 0 -86 8t-89 23zM453 199q46 -47 96 -70.5t104 -23.5q72 0 127.5 36t87 121
t31.5 196q0 71 -16 134.5t-44 103t-76.5 66t-105.5 26.5q-55 0 -111.5 -28t-92.5 -71v-490z" />
    <glyph glyph-name="ydieresis" unicode="&#xff;" horiz-adv-x="1139" 
d="M65 -510q17 73 22 102l15 101l26 5q25 -26 57 -46q39 -17 84 -17q52 0 96 35.5t98 155.5l40 96l-324 831q-29 74 -55 91.5t-99 16.5v79q98 -4 240 -4q168 0 299 4v-79h-23q-62 1 -86 -14q-15 -10 -15 -26q0 -18 10 -44l49 -135l146 -381l88 208q129 308 129 356
q0 10 -5 16q-7 8 -25 12q-36 7 -96 8v79q64 -4 161 -4q118 0 220 4v-79h-16q-27 1 -51 -10q-15 -6 -26.5 -20t-56.5 -110q-59 -126 -95 -208q-112 -254 -142 -326l-161 -393q-74 -179 -157 -255q-83 -77 -202 -77q-39 0 -71.5 6t-73.5 22zM372 1405q61 0 103 -43t42 -103
t-42.5 -102.5t-102.5 -42.5t-102.5 42.5t-42.5 102.5q0 61 42.5 103.5t102.5 42.5zM812 1405q60 0 102.5 -43t42.5 -103t-42.5 -102.5t-102.5 -42.5t-102.5 42.5t-42.5 102.5q0 61 42.5 103.5t102.5 42.5z" />
    <glyph glyph-name="Amacron" unicode="&#x100;" horiz-adv-x="1593" 
d="M49 0v83q81 6 96.5 10.5t26.5 14t22.5 30t68.5 152.5q26 62 100 245l261 644l88 227h142l447 -1044l62 -137l40 -92q10 -18 19 -26t20.5 -12t58.5 -7q15 -2 44 -5v-83l-278 6l-351 -6v83q121 5 136.5 13.5t15.5 28.5q0 25 -23 82l-86 220h-514l-44 -120
q-50 -138 -50 -172q0 -24 16 -34q24 -14 143 -18v-83l-231 6zM491 541q94 -3 213 -3q115 0 206 3l-214 516zM444 1672h706v-164h-706v164z" />
    <glyph glyph-name="amacron" unicode="&#x101;" horiz-adv-x="1024" 
d="M977 75v-75q-115 5 -204 5q-84 0 -163 -5l-9 11l9 131q-36 -23 -212 -158q-45 -10 -86 -10q-109 0 -170.5 64t-61.5 184q0 81 27.5 133t59 76.5t97.5 47.5q158 56 346 88q2 119 -49 181q-52 62 -158 62q-43 0 -82 -11q-17 -5 -40 -20l-42 -101l-68 15l6 129q74 50 141 87
t94 45q37 11 104 11q109 0 179.5 -31.5t104 -74.5t46 -92t12.5 -124q0 -32 -5 -167q-3 -90 -3 -147q0 -178 10 -216q4 -18 16 -24q16 -8 101 -14zM610 483q-85 -18 -155.5 -43.5t-97.5 -63t-27 -94.5q0 -64 32.5 -99t85.5 -35q45 0 90.5 26t71.5 66v243zM175 1233h706v-164
h-706v164z" />
    <glyph glyph-name="Abreve" unicode="&#x102;" horiz-adv-x="1593" 
d="M49 0v83q81 6 96.5 10.5t26.5 14t22.5 30t68.5 152.5q26 62 100 245l261 644l88 227h142l447 -1044l62 -137l40 -92q10 -18 19 -26t20.5 -12t58.5 -7q15 -2 44 -5v-83l-278 6l-351 -6v83q121 5 136.5 13.5t15.5 28.5q0 25 -23 82l-86 220h-514l-44 -120
q-50 -138 -50 -172q0 -24 16 -34q24 -14 143 -18v-83l-231 6zM491 541q94 -3 213 -3q115 0 206 3l-214 516zM477 1847h102q12 -79 55 -117q55 -49 163 -49q97 0 148 40t70 126h102q-11 -168 -96.5 -253.5t-223.5 -85.5q-97 0 -172 41t-111 113t-37 185z" />
    <glyph glyph-name="abreve" unicode="&#x103;" horiz-adv-x="1024" 
d="M977 75v-75q-115 5 -204 5q-84 0 -163 -5l-9 11l9 131q-36 -23 -212 -158q-45 -10 -86 -10q-109 0 -170.5 64t-61.5 184q0 81 27.5 133t59 76.5t97.5 47.5q158 56 346 88q2 119 -49 181q-52 62 -158 62q-43 0 -82 -11q-17 -5 -40 -20l-42 -101l-68 15l6 129q74 50 141 87
t94 45q37 11 104 11q109 0 179.5 -31.5t104 -74.5t46 -92t12.5 -124q0 -32 -5 -167q-3 -90 -3 -147q0 -178 10 -216q4 -18 16 -24q16 -8 101 -14zM610 483q-85 -18 -155.5 -43.5t-97.5 -63t-27 -94.5q0 -64 32.5 -99t85.5 -35q45 0 90.5 26t71.5 66v243zM208 1408h102
q12 -79 55 -117q55 -49 163 -49q97 0 148 40t70 126h102q-11 -168 -96.5 -253.5t-223.5 -85.5q-97 0 -172 41t-111 113t-37 185z" />
    <glyph glyph-name="Aogonek" unicode="&#x104;" horiz-adv-x="1593" 
d="M49 0v83q81 6 96.5 10.5t26.5 14t22.5 30t68.5 152.5q26 62 100 245l261 644l88 227h142l447 -1044l62 -137l40 -92q10 -18 19 -26t20.5 -12t58.5 -7q15 -2 44 -5v-83l-278 6l-351 -6v83q121 5 136.5 13.5t15.5 28.5q0 25 -23 82l-86 220h-514l-44 -120
q-50 -138 -50 -172q0 -24 16 -34q24 -14 143 -18v-83l-231 6zM491 541q94 -3 213 -3q115 0 206 3l-214 516zM1541 -311l12 -54q-32 -25 -94.5 -45t-125.5 -20q-112 0 -171 58.5t-59 159.5q0 91 51 160t148 101h81q-55 -53 -86.5 -116t-31.5 -125q0 -72 38 -111t98 -39
q63 0 140 31z" />
    <glyph glyph-name="aogonek" unicode="&#x105;" horiz-adv-x="1024" 
d="M977 75v-75q-115 5 -204 5q-84 0 -163 -5l-9 11l9 131q-36 -23 -212 -158q-45 -10 -86 -10q-109 0 -170.5 64t-61.5 184q0 81 27.5 133t59 76.5t97.5 47.5q158 56 346 88q2 119 -49 181q-52 62 -158 62q-43 0 -82 -11q-17 -5 -40 -20l-42 -101l-68 15l6 129q74 50 141 87
t94 45q37 11 104 11q109 0 179.5 -31.5t104 -74.5t46 -92t12.5 -124q0 -32 -5 -167q-3 -90 -3 -147q0 -178 10 -216q4 -18 16 -24q16 -8 101 -14zM610 483q-85 -18 -155.5 -43.5t-97.5 -63t-27 -94.5q0 -64 32.5 -99t85.5 -35q45 0 90.5 26t71.5 66v243zM989 -312l12 -54
q-32 -25 -94.5 -45t-125.5 -20q-112 0 -171 58.5t-59 159.5q0 91 51 160t148 101h81q-55 -53 -86.5 -116t-31.5 -125q0 -72 38 -111t98 -39q63 0 140 31z" />
    <glyph glyph-name="Cacute" unicode="&#x106;" horiz-adv-x="1479" 
d="M1427 181l-46 -101q-125 -66 -224.5 -90.5t-248.5 -24.5q-212 0 -375 67q-128 54 -217 143t-137 193q-73 157 -73 341q0 315 215.5 514.5t608.5 199.5q135 0 242.5 -20t249.5 -71l5 -13q-16 -47 -25 -118q-15 -113 -19 -209h-78q-2 110 -10 176q-67 70 -150.5 104.5
t-213.5 34.5q-235 0 -376 -148.5t-141 -414.5q0 -161 47.5 -281t126.5 -198.5t159 -114.5q109 -48 264 -48q102 0 193 23t198 79zM790 1494h-121l235 285q51 62 81.5 80.5t69.5 18.5q52 0 84 -30.5t32 -73.5q0 -29 -18 -53q-29 -37 -101 -78z" />
    <glyph glyph-name="cacute" unicode="&#x107;" horiz-adv-x="909" 
d="M861 132l-44 -97q-86 -43 -139.5 -56.5t-128.5 -13.5q-164 0 -266 64t-155 183q-38 84 -38 224q0 105 20 172t57 118q25 34 67 64l154 97q78 50 107 60q48 18 125 18q64 0 119.5 -10.5t102.5 -31.5l10 -17l-25 -163q-3 -22 -10 -138h-78q-6 89 -15 132q-21 34 -65 55.5
t-108 21.5q-76 0 -121 -28t-66 -94t-21 -160q0 -126 43 -225.5t113.5 -146t173.5 -46.5q47 0 89 10.5t80 30.5zM458 1099h-121l235 285q51 62 81.5 80.5t69.5 18.5q52 0 84 -30.5t32 -73.5q0 -29 -18 -53q-29 -37 -101 -78z" />
    <glyph glyph-name="Ccircumflex" unicode="&#x108;" horiz-adv-x="1479" 
d="M1427 181l-46 -101q-125 -66 -224.5 -90.5t-248.5 -24.5q-212 0 -375 67q-128 54 -217 143t-137 193q-73 157 -73 341q0 315 215.5 514.5t608.5 199.5q135 0 242.5 -20t249.5 -71l5 -13q-16 -47 -25 -118q-15 -113 -19 -209h-78q-2 110 -10 176q-67 70 -150.5 104.5
t-213.5 34.5q-235 0 -376 -148.5t-141 -414.5q0 -161 47.5 -281t126.5 -198.5t159 -114.5q109 -48 264 -48q102 0 193 23t198 79zM775 1881h213l249 -356h-134l-226 190l-219 -190h-131z" />
    <glyph glyph-name="ccircumflex" unicode="&#x109;" horiz-adv-x="909" 
d="M861 132l-44 -97q-86 -43 -139.5 -56.5t-128.5 -13.5q-164 0 -266 64t-155 183q-38 84 -38 224q0 105 20 172t57 118q25 34 67 64l154 97q78 50 107 60q48 18 125 18q64 0 119.5 -10.5t102.5 -31.5l10 -17l-25 -163q-3 -22 -10 -138h-78q-6 89 -15 132q-21 34 -65 55.5
t-108 21.5q-76 0 -121 -28t-66 -94t-21 -160q0 -126 43 -225.5t113.5 -146t173.5 -46.5q47 0 89 10.5t80 30.5zM401 1425h213l249 -356h-134l-226 190l-219 -190h-131z" />
    <glyph glyph-name="Cdotaccent" unicode="&#x10a;" horiz-adv-x="1479" 
d="M1427 181l-46 -101q-125 -66 -224.5 -90.5t-248.5 -24.5q-212 0 -375 67q-128 54 -217 143t-137 193q-73 157 -73 341q0 315 215.5 514.5t608.5 199.5q135 0 242.5 -20t249.5 -71l5 -13q-16 -47 -25 -118q-15 -113 -19 -209h-78q-2 110 -10 176q-67 70 -150.5 104.5
t-213.5 34.5q-235 0 -376 -148.5t-141 -414.5q0 -161 47.5 -281t126.5 -198.5t159 -114.5q109 -48 264 -48q102 0 193 23t198 79zM932 1816q61 0 103 -43t42 -103t-42.5 -102.5t-102.5 -42.5t-102.5 42.5t-42.5 102.5q0 61 42.5 103.5t102.5 42.5z" />
    <glyph glyph-name="cdotaccent" unicode="&#x10b;" horiz-adv-x="909" 
d="M861 132l-44 -97q-86 -43 -139.5 -56.5t-128.5 -13.5q-164 0 -266 64t-155 183q-38 84 -38 224q0 105 20 172t57 118q25 34 67 64l154 97q78 50 107 60q48 18 125 18q64 0 119.5 -10.5t102.5 -31.5l10 -17l-25 -163q-3 -22 -10 -138h-78q-6 89 -15 132q-21 34 -65 55.5
t-108 21.5q-76 0 -121 -28t-66 -94t-21 -160q0 -126 43 -225.5t113.5 -146t173.5 -46.5q47 0 89 10.5t80 30.5zM583 1360q61 0 103 -43t42 -103t-42.5 -102.5t-102.5 -42.5t-102.5 42.5t-42.5 102.5q0 61 42.5 103.5t102.5 42.5z" />
    <glyph glyph-name="Ccaron" unicode="&#x10c;" horiz-adv-x="1479" 
d="M1427 181l-46 -101q-125 -66 -224.5 -90.5t-248.5 -24.5q-212 0 -375 67q-128 54 -217 143t-137 193q-73 157 -73 341q0 315 215.5 514.5t608.5 199.5q135 0 242.5 -20t249.5 -71l5 -13q-16 -47 -25 -118q-15 -113 -19 -209h-78q-2 110 -10 176q-67 70 -150.5 104.5
t-213.5 34.5q-235 0 -376 -148.5t-141 -414.5q0 -161 47.5 -281t126.5 -198.5t159 -114.5q109 -48 264 -48q102 0 193 23t198 79zM506 1850h128l223 -188l221 188h131l-251 -357h-208z" />
    <glyph glyph-name="ccaron" unicode="&#x10d;" horiz-adv-x="909" 
d="M861 132l-44 -97q-86 -43 -139.5 -56.5t-128.5 -13.5q-164 0 -266 64t-155 183q-38 84 -38 224q0 105 20 172t57 118q25 34 67 64l154 97q78 50 107 60q48 18 125 18q64 0 119.5 -10.5t102.5 -31.5l10 -17l-25 -163q-3 -22 -10 -138h-78q-6 89 -15 132q-21 34 -65 55.5
t-108 21.5q-76 0 -121 -28t-66 -94t-21 -160q0 -126 43 -225.5t113.5 -146t173.5 -46.5q47 0 89 10.5t80 30.5zM174 1455h128l223 -188l221 188h131l-251 -357h-208z" />
    <glyph glyph-name="Dcaron" unicode="&#x10e;" horiz-adv-x="1706" 
d="M131 0v48q8 5 28 16q38 21 70 44q11 134 11 435v164q0 132 -5 387q-3 141 -13 180q-3 9 -8 14q-8 8 -25 12t-126 18v81l363 -6q64 0 241 5q128 3 205 3q177 0 283.5 -21.5t185.5 -69t133.5 -112.5t82.5 -140q47 -126 47 -276q0 -191 -70 -341t-192.5 -251t-265.5 -145.5
t-345 -44.5l-297 6zM531 122q93 -14 178 -14q133 0 236 28q76 21 133 61t109.5 118t81.5 186t29 233q0 114 -29 220.5t-95 186.5t-167 116t-306 36q-77 0 -170 -13q-10 -142 -10 -535v-230q0 -298 10 -393zM482 1860h128l223 -188l221 188h131l-251 -357h-208z" />
    <glyph glyph-name="dcaron" unicode="&#x10f;" 
d="M1200 72v-72l-210 3l-180 -3l-9 8l5 79l2 82q-69 -58 -151 -130q-32 -30 -63 -51q-38 -15 -101 -15q-166 0 -275 121.5t-109 332.5q0 117 32 209q24 70 56 108q23 28 134.5 106t160 96.5t125.5 18.5q48 0 79.5 -7t108.5 -37q3 58 3 123q0 76 -5 184q-2 52 -11 65
q-7 10 -20 13t-123 6v74q213 21 395 87l26 -15q-12 -268 -13 -315q-3 -261 -3 -731v-93q0 -68 5 -147q3 -56 10 -68.5t23 -18.5t108 -13zM805 711q-55 66 -90 86q-66 38 -145 38q-69 0 -112.5 -33.5t-65 -108.5t-21.5 -173q0 -182 78 -281q58 -73 156 -73q74 0 129.5 42
t66 81t10.5 238zM1177 1235q71 136 110.5 261.5t57.5 269.5q152 31 163 34q44 12 107 38l36 -34q-40 -95 -132.5 -260t-168.5 -272l-143 -62z" />
    <glyph glyph-name="Dcroat" unicode="&#x110;" horiz-adv-x="1706" 
d="M131 0v48q8 5 28 16q38 21 70 44q11 134 11 435v145h-172v106h172l-4 290q-4 146 -14 187q-3 12 -8 17q-8 8 -27 12q-10 3 -124 18v81l362 -6q64 0 242 5q127 3 205 3q176 0 283 -21.5t186 -69t133.5 -112.5t82.5 -141q47 -125 47 -275q0 -191 -70 -341t-192.5 -251
t-265.5 -145.5t-345 -44.5l-297 6zM531 122q93 -14 178 -14q133 0 235 28q77 21 134 61t109.5 118t81 186t28.5 233q0 114 -28.5 220.5t-95 186.5t-167 116t-305.5 36q-77 0 -170 -13q-5 -70 -6 -154l-4 -332h333v-106h-333v-173q0 -298 10 -393z" />
    <glyph glyph-name="dcroat" unicode="&#x111;" 
d="M1209 1103l-10 -10h-142q-2 -155 -2 -360v-323q0 -281 13 -309q8 -17 22 -21q22 -7 100 -13l10 -10v-54l-10 -10q-98 7 -177 7q-75 0 -203 -7l-9 7q4 49 4 164q-36 -30 -103 -92q-83 -77 -108 -92q-32 -15 -104 -15q-171 0 -276 129t-105 334q0 199 81 310q21 29 124 103
q120 86 175 109q48 20 122 20q104 0 194 -44v56q0 42 -2 111h-234l-10 11v63l10 11h231q-5 123 -21 135.5t-120 16.5l-10 11v55l10 11q192 20 387 83l22 -12q0 -7 -4 -105q-4 -110 -6 -195h141l10 -11v-64zM805 525v188q-72 86 -138 110q-45 16 -96 16q-138 0 -178 -142
q-22 -79 -22 -176q0 -207 97 -307q51 -53 137 -53q71 0 132 45q55 40 65 86q3 14 3 233z" />
    <glyph glyph-name="Emacron" unicode="&#x112;" 
d="M123 0v54q60 28 98 58q6 42 10 136q8 172 8 250v450q0 26 -3 195q-3 113 -14 138q-5 10 -15 15q-27 12 -144 18v85l232 -5q69 -1 132 -1q137 0 305 3l203 5q36 0 146 -4q10 0 33 -6l7 -13l-19 -144q-1 -15 -10 -144h-78q-2 118 -9 145q-4 14 -12 20q-13 9 -80 16
q-99 11 -194 11q-89 0 -182 -7q-14 -113 -14 -287v-205q68 -5 142 -5q23 0 166 4q54 1 63.5 7t14.5 21q12 38 14 127h81l-4 -220l4 -219h-86q1 116 -15 143q-12 20 -43 25q-69 11 -177 11q-97 0 -160 -6v-424q0 -71 3 -122q81 -6 192 -6q108 0 199.5 7t112.5 20q7 4 13 18
q18 48 38 182h82q-22 -198 -22 -326l-13 -13q-64 -7 -182 -7l-161 3q-238 3 -328 3q-24 0 -334 -6zM260 1667h706v-164h-706v164z" />
    <glyph glyph-name="emacron" unicode="&#x113;" horiz-adv-x="1024" 
d="M928 154l-44 -98q-82 -50 -169 -74q-65 -17 -148 -17q-99 0 -174.5 23t-129 63t-94 98t-58.5 134t-18 166q0 131 35 234q24 72 56 104q20 20 104 75t122 72q70 31 165 31q134 0 220 -56t121.5 -143t35.5 -211q0 -28 -2 -54q-25 -8 -76 -18q-68 -13 -92 -14
q-75 -6 -198 -7t-136 -2t-29 -1h-66q8 -158 98 -249.5t222 -91.5q57 0 105 12.5t126 51.5zM690 568q4 159 -43 223q-48 63 -124 63q-78 0 -129 -66q-52 -67 -48 -220q59 -9 197 -9q88 0 147 9zM169 1233h706v-164h-706v164z" />
    <glyph glyph-name="Ebreve" unicode="&#x114;" 
d="M123 0v54q60 28 98 58q6 42 10 136q8 172 8 250v450q0 26 -3 195q-3 113 -14 138q-5 10 -15 15q-27 12 -144 18v85l232 -5q69 -1 132 -1q137 0 305 3l203 5q36 0 146 -4q10 0 33 -6l7 -13l-19 -144q-1 -15 -10 -144h-78q-2 118 -9 145q-4 14 -12 20q-13 9 -80 16
q-99 11 -194 11q-89 0 -182 -7q-14 -113 -14 -287v-205q68 -5 142 -5q23 0 166 4q54 1 63.5 7t14.5 21q12 38 14 127h81l-4 -220l4 -219h-86q1 116 -15 143q-12 20 -43 25q-69 11 -177 11q-97 0 -160 -6v-424q0 -71 3 -122q81 -6 192 -6q108 0 199.5 7t112.5 20q7 4 13 18
q18 48 38 182h82q-22 -198 -22 -326l-13 -13q-64 -7 -182 -7l-161 3q-238 3 -328 3q-24 0 -334 -6zM293 1842h102q12 -79 55 -117q55 -49 163 -49q97 0 148 40t70 126h102q-11 -168 -96.5 -253.5t-223.5 -85.5q-97 0 -172 41t-111 113t-37 185z" />
    <glyph glyph-name="ebreve" unicode="&#x115;" horiz-adv-x="1024" 
d="M928 154l-44 -98q-82 -50 -169 -74q-65 -17 -148 -17q-99 0 -174.5 23t-129 63t-94 98t-58.5 134t-18 166q0 131 35 234q24 72 56 104q20 20 104 75t122 72q70 31 165 31q134 0 220 -56t121.5 -143t35.5 -211q0 -28 -2 -54q-25 -8 -76 -18q-68 -13 -92 -14
q-75 -6 -198 -7t-136 -2t-29 -1h-66q8 -158 98 -249.5t222 -91.5q57 0 105 12.5t126 51.5zM690 568q4 159 -43 223q-48 63 -124 63q-78 0 -129 -66q-52 -67 -48 -220q59 -9 197 -9q88 0 147 9zM202 1408h102q12 -79 55 -117q55 -49 163 -49q97 0 148 40t70 126h102
q-11 -168 -96.5 -253.5t-223.5 -85.5q-97 0 -172 41t-111 113t-37 185z" />
    <glyph glyph-name="Edotaccent" unicode="&#x116;" 
d="M123 0v54q60 28 98 58q6 42 10 136q8 172 8 250v450q0 26 -3 195q-3 113 -14 138q-5 10 -15 15q-27 12 -144 18v85l232 -5q69 -1 132 -1q137 0 305 3l203 5q36 0 146 -4q10 0 33 -6l7 -13l-19 -144q-1 -15 -10 -144h-78q-2 118 -9 145q-4 14 -12 20q-13 9 -80 16
q-99 11 -194 11q-89 0 -182 -7q-14 -113 -14 -287v-205q68 -5 142 -5q23 0 166 4q54 1 63.5 7t14.5 21q12 38 14 127h81l-4 -220l4 -219h-86q1 116 -15 143q-12 20 -43 25q-69 11 -177 11q-97 0 -160 -6v-424q0 -71 3 -122q81 -6 192 -6q108 0 199.5 7t112.5 20q7 4 13 18
q18 48 38 182h82q-22 -198 -22 -326l-13 -13q-64 -7 -182 -7l-161 3q-238 3 -328 3q-24 0 -334 -6zM613 1794q61 0 103 -43t42 -103t-42.5 -102.5t-102.5 -42.5t-102.5 42.5t-42.5 102.5q0 61 42.5 103.5t102.5 42.5z" />
    <glyph glyph-name="edotaccent" unicode="&#x117;" horiz-adv-x="1024" 
d="M928 154l-44 -98q-82 -50 -169 -74q-65 -17 -148 -17q-99 0 -174.5 23t-129 63t-94 98t-58.5 134t-18 166q0 131 35 234q24 72 56 104q20 20 104 75t122 72q70 31 165 31q134 0 220 -56t121.5 -143t35.5 -211q0 -28 -2 -54q-25 -8 -76 -18q-68 -13 -92 -14
q-75 -6 -198 -7t-136 -2t-29 -1h-66q8 -158 98 -249.5t222 -91.5q57 0 105 12.5t126 51.5zM690 568q4 159 -43 223q-48 63 -124 63q-78 0 -129 -66q-52 -67 -48 -220q59 -9 197 -9q88 0 147 9zM522 1360q61 0 103 -43t42 -103t-42.5 -102.5t-102.5 -42.5t-102.5 42.5
t-42.5 102.5q0 61 42.5 103.5t102.5 42.5z" />
    <glyph glyph-name="Eogonek" unicode="&#x118;" 
d="M123 0v54q60 28 98 58q6 42 10 136q8 172 8 250v450q0 26 -3 195q-3 113 -14 138q-5 10 -15 15q-27 12 -144 18v85l232 -5q69 -1 132 -1q137 0 305 3l203 5q36 0 146 -4q10 0 33 -6l7 -13l-19 -144q-1 -15 -10 -144h-78q-2 118 -9 145q-4 14 -12 20q-13 9 -80 16
q-99 11 -194 11q-89 0 -182 -7q-14 -113 -14 -287v-205q68 -5 142 -5q23 0 166 4q54 1 63.5 7t14.5 21q12 38 14 127h81l-4 -220l4 -219h-86q1 116 -15 143q-12 20 -43 25q-69 11 -177 11q-97 0 -160 -6v-424q0 -71 3 -122q81 -6 192 -6q108 0 199.5 7t112.5 20q7 4 13 18
q18 48 38 182h82q-22 -198 -22 -326l-13 -13q-64 -7 -182 -7l-161 3q-238 3 -328 3q-24 0 -334 -6zM826 -327l12 -54q-32 -25 -94.5 -45t-125.5 -20q-112 0 -171 58.5t-59 159.5q0 91 51 160t148 101h81q-55 -53 -86.5 -116t-31.5 -125q0 -72 38 -111t98 -39q63 0 140 31z
" />
    <glyph glyph-name="eogonek" unicode="&#x119;" horiz-adv-x="1024" 
d="M928 154l-44 -98q-82 -50 -169 -74q-65 -17 -148 -17q-99 0 -174.5 23t-129 63t-94 98t-58.5 134t-18 166q0 131 35 234q24 72 56 104q20 20 104 75t122 72q70 31 165 31q134 0 220 -56t121.5 -143t35.5 -211q0 -28 -2 -54q-25 -8 -76 -18q-68 -13 -92 -14
q-75 -6 -198 -7t-136 -2t-29 -1h-66q8 -158 98 -249.5t222 -91.5q57 0 105 12.5t126 51.5zM690 568q4 159 -43 223q-48 63 -124 63q-78 0 -129 -66q-52 -67 -48 -220q59 -9 197 -9q88 0 147 9zM770 -371l12 -54q-32 -25 -94.5 -45t-125.5 -20q-112 0 -171 58.5t-59 159.5
q0 91 51 160t148 101h81q-55 -53 -86.5 -116t-31.5 -125q0 -72 38 -111t98 -39q63 0 140 31z" />
    <glyph glyph-name="Ecaron" unicode="&#x11a;" 
d="M123 0v54q60 28 98 58q6 42 10 136q8 172 8 250v450q0 26 -3 195q-3 113 -14 138q-5 10 -15 15q-27 12 -144 18v85l232 -5q69 -1 132 -1q137 0 305 3l203 5q36 0 146 -4q10 0 33 -6l7 -13l-19 -144q-1 -15 -10 -144h-78q-2 118 -9 145q-4 14 -12 20q-13 9 -80 16
q-99 11 -194 11q-89 0 -182 -7q-14 -113 -14 -287v-205q68 -5 142 -5q23 0 166 4q54 1 63.5 7t14.5 21q12 38 14 127h81l-4 -220l4 -219h-86q1 116 -15 143q-12 20 -43 25q-69 11 -177 11q-97 0 -160 -6v-424q0 -71 3 -122q81 -6 192 -6q108 0 199.5 7t112.5 20q7 4 13 18
q18 48 38 182h82q-22 -198 -22 -326l-13 -13q-64 -7 -182 -7l-161 3q-238 3 -328 3q-24 0 -334 -6zM262 1860h128l223 -188l221 188h131l-251 -357h-208z" />
    <glyph glyph-name="ecaron" unicode="&#x11b;" horiz-adv-x="1024" 
d="M928 154l-44 -98q-82 -50 -169 -74q-65 -17 -148 -17q-99 0 -174.5 23t-129 63t-94 98t-58.5 134t-18 166q0 131 35 234q24 72 56 104q20 20 104 75t122 72q70 31 165 31q134 0 220 -56t121.5 -143t35.5 -211q0 -28 -2 -54q-25 -8 -76 -18q-68 -13 -92 -14
q-75 -6 -198 -7t-136 -2t-29 -1h-66q8 -158 98 -249.5t222 -91.5q57 0 105 12.5t126 51.5zM690 568q4 159 -43 223q-48 63 -124 63q-78 0 -129 -66q-52 -67 -48 -220q59 -9 197 -9q88 0 147 9zM171 1426h128l223 -188l221 188h131l-251 -357h-208z" />
    <glyph glyph-name="Gcircumflex" unicode="&#x11c;" horiz-adv-x="1706" 
d="M1465 994h-80q0 32 -4 95q-3 44 -10 75q-25 30 -54 49q-65 44 -150 69t-192 25q-250 0 -400.5 -155t-150.5 -426q0 -296 158.5 -470.5t388.5 -174.5q67 0 130.5 14t124.5 41q3 27 5 104t2 93q0 96 -8 114q-6 12 -27 17q-35 10 -190 19v81l299 -4l301 4v-66
q-58 -12 -76 -33q-9 -10 -11 -55q-5 -115 -5 -165q0 -76 9 -156q-186 -68 -324.5 -96t-276.5 -28q-225 0 -398 76q-121 54 -207 139t-131 183q-71 152 -71 338q0 157 46.5 274t129.5 204.5t188.5 142t221 78t253.5 23.5q170 0 316.5 -31t228.5 -68l8 -19q-24 -88 -44 -311z
M755 1881h213l249 -356h-134l-226 190l-219 -190h-131z" />
    <glyph glyph-name="gcircumflex" unicode="&#x11d;" horiz-adv-x="1139" 
d="M198 233l139 101q-74 27 -118.5 62.5t-71 93.5t-26.5 128q0 95 49 177.5t153.5 131.5t244.5 49q94 0 173.5 -21.5t133.5 -63.5q58 -3 80 -3q30 0 163 6l-14 -123h-158q13 -50 13 -97q0 -107 -57 -189t-160.5 -126t-219.5 -44q-31 0 -87 5q-31 -18 -47 -42.5t-16 -45.5
q0 -18 13.5 -34t37.5 -21q33 -7 165 -7l246 6q108 0 167 -25t88 -76t29 -135q0 -125 -59 -226t-177 -166q-149 -81 -355 -81q-162 0 -264 45t-143 107t-41 135q0 42 13 76t30 51t67 46q96 54 107 59q-54 6 -97 39q-39 36 -39 82q0 25 10 56q14 44 28 70zM372 664
q0 -138 48 -197t125 -59q85 0 130 69q32 50 32 150q0 140 -45 196t-125 56q-76 0 -120.5 -51t-44.5 -164zM407 -24q-82 -52 -109.5 -95.5t-27.5 -97.5q0 -91 74.5 -152t223.5 -61q156 0 238.5 73t82.5 185q0 54 -16.5 82.5t-46.5 45t-83 19t-245 2.5q-35 0 -91 -1zM491 1436
h213l249 -356h-134l-226 190l-219 -190h-131z" />
    <glyph glyph-name="Gbreve" unicode="&#x11e;" horiz-adv-x="1706" 
d="M1465 994h-80q0 32 -4 95q-3 44 -10 75q-25 30 -54 49q-65 44 -150 69t-192 25q-250 0 -400.5 -155t-150.5 -426q0 -296 158.5 -470.5t388.5 -174.5q67 0 130.5 14t124.5 41q3 27 5 104t2 93q0 96 -8 114q-6 12 -27 17q-35 10 -190 19v81l299 -4l301 4v-66
q-58 -12 -76 -33q-9 -10 -11 -55q-5 -115 -5 -165q0 -76 9 -156q-186 -68 -324.5 -96t-276.5 -28q-225 0 -398 76q-121 54 -207 139t-131 183q-71 152 -71 338q0 157 46.5 274t129.5 204.5t188.5 142t221 78t253.5 23.5q170 0 316.5 -31t228.5 -68l8 -19q-24 -88 -44 -311z
M532 1836h102q12 -79 55 -117q55 -49 163 -49q97 0 148 40t70 126h102q-11 -168 -96.5 -253.5t-223.5 -85.5q-97 0 -172 41t-111 113t-37 185z" />
    <glyph glyph-name="gbreve" unicode="&#x11f;" horiz-adv-x="1139" 
d="M198 233l139 101q-74 27 -118.5 62.5t-71 93.5t-26.5 128q0 95 49 177.5t153.5 131.5t244.5 49q94 0 173.5 -21.5t133.5 -63.5q58 -3 80 -3q30 0 163 6l-14 -123h-158q13 -50 13 -97q0 -107 -57 -189t-160.5 -126t-219.5 -44q-31 0 -87 5q-31 -18 -47 -42.5t-16 -45.5
q0 -18 13.5 -34t37.5 -21q33 -7 165 -7l246 6q108 0 167 -25t88 -76t29 -135q0 -125 -59 -226t-177 -166q-149 -81 -355 -81q-162 0 -264 45t-143 107t-41 135q0 42 13 76t30 51t67 46q96 54 107 59q-54 6 -97 39q-39 36 -39 82q0 25 10 56q14 44 28 70zM372 664
q0 -138 48 -197t125 -59q85 0 130 69q32 50 32 150q0 140 -45 196t-125 56q-76 0 -120.5 -51t-44.5 -164zM407 -24q-82 -52 -109.5 -95.5t-27.5 -97.5q0 -91 74.5 -152t223.5 -61q156 0 238.5 73t82.5 185q0 54 -16.5 82.5t-46.5 45t-83 19t-245 2.5q-35 0 -91 -1zM248 1441
h102q12 -79 55 -117q55 -49 163 -49q97 0 148 40t70 126h102q-11 -168 -96.5 -253.5t-223.5 -85.5q-97 0 -172 41t-111 113t-37 185z" />
    <glyph glyph-name="Gdotaccent" unicode="&#x120;" horiz-adv-x="1706" 
d="M1465 994h-80q0 32 -4 95q-3 44 -10 75q-25 30 -54 49q-65 44 -150 69t-192 25q-250 0 -400.5 -155t-150.5 -426q0 -296 158.5 -470.5t388.5 -174.5q67 0 130.5 14t124.5 41q3 27 5 104t2 93q0 96 -8 114q-6 12 -27 17q-35 10 -190 19v81l299 -4l301 4v-66
q-58 -12 -76 -33q-9 -10 -11 -55q-5 -115 -5 -165q0 -76 9 -156q-186 -68 -324.5 -96t-276.5 -28q-225 0 -398 76q-121 54 -207 139t-131 183q-71 152 -71 338q0 157 46.5 274t129.5 204.5t188.5 142t221 78t253.5 23.5q170 0 316.5 -31t228.5 -68l8 -19q-24 -88 -44 -311z
M862 1816q61 0 103 -43t42 -103t-42.5 -102.5t-102.5 -42.5t-102.5 42.5t-42.5 102.5q0 61 42.5 103.5t102.5 42.5z" />
    <glyph glyph-name="gdotaccent" unicode="&#x121;" horiz-adv-x="1139" 
d="M198 233l139 101q-74 27 -118.5 62.5t-71 93.5t-26.5 128q0 95 49 177.5t153.5 131.5t244.5 49q94 0 173.5 -21.5t133.5 -63.5q58 -3 80 -3q30 0 163 6l-14 -123h-158q13 -50 13 -97q0 -107 -57 -189t-160.5 -126t-219.5 -44q-31 0 -87 5q-31 -18 -47 -42.5t-16 -45.5
q0 -18 13.5 -34t37.5 -21q33 -7 165 -7l246 6q108 0 167 -25t88 -76t29 -135q0 -125 -59 -226t-177 -166q-149 -81 -355 -81q-162 0 -264 45t-143 107t-41 135q0 42 13 76t30 51t67 46q96 54 107 59q-54 6 -97 39q-39 36 -39 82q0 25 10 56q14 44 28 70zM372 664
q0 -138 48 -197t125 -59q85 0 130 69q32 50 32 150q0 140 -45 196t-125 56q-76 0 -120.5 -51t-44.5 -164zM407 -24q-82 -52 -109.5 -95.5t-27.5 -97.5q0 -91 74.5 -152t223.5 -61q156 0 238.5 73t82.5 185q0 54 -16.5 82.5t-46.5 45t-83 19t-245 2.5q-35 0 -91 -1zM598 1371
q61 0 103 -43t42 -103t-42.5 -102.5t-102.5 -42.5t-102.5 42.5t-42.5 102.5q0 61 42.5 103.5t102.5 42.5z" />
    <glyph glyph-name="Gcommaaccent" unicode="&#x122;" horiz-adv-x="1706" 
d="M1465 994h-80q0 32 -4 95q-3 44 -10 75q-25 30 -54 49q-65 44 -150 69t-192 25q-250 0 -400.5 -155t-150.5 -426q0 -296 158.5 -470.5t388.5 -174.5q67 0 130.5 14t124.5 41q3 27 5 104t2 93q0 96 -8 114q-6 12 -27 17q-35 10 -190 19v81l299 -4l301 4v-66
q-58 -12 -76 -33q-9 -10 -11 -55q-5 -115 -5 -165q0 -76 9 -156q-186 -68 -324.5 -96t-276.5 -28q-225 0 -398 76q-121 54 -207 139t-131 183q-71 152 -71 338q0 157 46.5 274t129.5 204.5t188.5 142t221 78t253.5 23.5q170 0 316.5 -31t228.5 -68l8 -19q-24 -88 -44 -311z
M650 -724q71 136 110.5 261.5t57.5 269.5q152 31 163 34q44 12 107 38l36 -34q-40 -95 -132.5 -260t-168.5 -272l-143 -62z" />
    <glyph glyph-name="gcommaaccent" unicode="&#x123;" horiz-adv-x="1139" 
d="M198 233l139 101q-74 27 -118.5 62.5t-71 93.5t-26.5 128q0 95 49 177.5t153.5 131.5t244.5 49q94 0 173.5 -21.5t133.5 -63.5q58 -3 80 -3q30 0 163 6l-14 -123h-158q13 -50 13 -97q0 -107 -57 -189t-160.5 -126t-219.5 -44q-31 0 -87 5q-31 -18 -47 -42.5t-16 -45.5
q0 -18 13.5 -34t37.5 -21q33 -7 165 -7l246 6q108 0 167 -25t88 -76t29 -135q0 -125 -59 -226t-177 -166q-149 -81 -355 -81q-162 0 -264 45t-143 107t-41 135q0 42 13 76t30 51t67 46q96 54 107 59q-54 6 -97 39q-39 36 -39 82q0 25 10 56q14 44 28 70zM372 664
q0 -138 48 -197t125 -59q85 0 130 69q32 50 32 150q0 140 -45 196t-125 56q-76 0 -120.5 -51t-44.5 -164zM407 -24q-82 -52 -109.5 -95.5t-27.5 -97.5q0 -91 74.5 -152t223.5 -61q156 0 238.5 73t82.5 185q0 54 -16.5 82.5t-46.5 45t-83 19t-245 2.5q-35 0 -91 -1z
M850 1764.96q-70.9912 -135.983 -110.486 -261.469q-39.4951 -125.484 -57.4932 -269.467q-151.981 -30.9961 -162.98 -33.9961q-43.9941 -11.998 -106.986 -37.9951l-35.9961 33.9961q39.9951 94.9883 132.484 259.968q92.4883 164.98 168.479 271.967l142.982 61.9932z
" />
    <glyph glyph-name="Hcircumflex" unicode="&#x124;" horiz-adv-x="1706" 
d="M71 0v88q95 2 116 6t31 11.5t14 21.5q10 30 11 139l4 199v468l-4 197q-1 111 -11 141q-4 14 -13.5 21.5t-30.5 12t-117 6.5v88q164 -6 346 -6q163 0 289 6v-88q-107 -4 -126 -8.5t-27 -14.5t-12 -70q-9 -102 -9 -294v-115q72 -6 302 -6q290 0 358 6v115q0 155 -2 199
q-8 133 -12 150q-3 12 -9.5 18.5t-24 11t-125.5 8.5v88q126 -6 289 -6q182 0 346 6v-88q-95 -2 -116 -6t-31 -11.5t-14 -21.5q-10 -31 -11 -139l-4 -200v-468l4 -196q1 -112 10 -141q5 -14 14.5 -22t30.5 -12t117 -6v-88q-164 6 -346 6q-163 0 -289 -6v88q107 4 126 8.5
t27 14.5t12 70q8 102 8 294v209q-50 7 -291 7q-231 0 -308 -2q-31 -1 -61 -5v-209q0 -156 3 -199q8 -133 12 -151q3 -11 9.5 -17.5t24 -11t125.5 -8.5v-88q-126 6 -289 6q-182 0 -346 -6zM755 1857h213l249 -356h-134l-226 190l-219 -190h-131z" />
    <glyph glyph-name="hcircumflex" unicode="&#x125;" 
d="M1199 79v-79q-150 4 -196 4q-31 0 -204 -4l-10 10l14 209q3 55 3 131v194q0 136 -45.5 188.5t-130.5 52.5q-62 0 -108 -31t-70 -84q-9 -19 -9 -82v-126q0 -78 3 -198.5t7 -142.5q3 -12 8 -18t14 -10q15 -7 46 -10l77 -4v-79q-273 7 -304 7l-248 -7v79q89 4 104.5 8
t23 11.5t11.5 21.5q7 31 10 190t3 283v324q0 161 -8 292q-3 67 -9 79q-4 7 -11 11q-11 7 -37 11q-17 3 -87 6v74q141 17 204.5 31t182.5 52l22 -12l-8 -238q-4 -181 -4 -336v-96l176 146q70 27 145 27q79 0 140.5 -25.5t96.5 -67.5t49.5 -91.5t14.5 -129.5q0 -27 -4 -156
q-3 -95 -3 -156q0 -185 7 -217q5 -22 22 -31t112 -11zM404 1931h213l249 -356h-134l-226 190l-219 -190h-131z" />
    <glyph glyph-name="Hbar" unicode="&#x126;" horiz-adv-x="1706" 
d="M71 0v88q95 2 116 6t31 11.5t14 21.5q10 30 11 139l4 199v468l-4 197q-1 111 -11 141q-4 14 -13.5 21.5t-30.5 12t-117 6.5v88q164 -6 346 -6q163 0 289 6v-88q-107 -4 -126 -8.5t-27 -14.5t-12 -70q-9 -102 -9 -294v-115q72 -6 302 -6q290 0 358 6v115q0 155 -2 199
q-8 133 -12 150q-3 12 -9.5 18.5t-24 11t-125.5 8.5v88q126 -6 289 -6q182 0 346 6v-88q-95 -2 -116 -6t-31 -11.5t-14 -21.5q-10 -31 -11 -139l-4 -200v-468l4 -196q1 -112 10 -141q5 -14 14.5 -22t30.5 -12t117 -6v-88q-164 6 -346 6q-163 0 -289 -6v88q107 4 126 8.5
t27 14.5t12 70q8 102 8 294v209q-50 7 -291 7q-231 0 -308 -2q-31 -1 -61 -5v-209q0 -156 3 -199q8 -133 12 -151q3 -11 9.5 -17.5t24 -11t125.5 -8.5v-88q-126 6 -289 6q-182 0 -346 -6zM340 923v168h1044v-168h-1044z" />
    <glyph glyph-name="hbar" unicode="&#x127;" 
d="M1199 79v-79q-150 4 -196 4q-31 0 -204 -4l-10 10l14 209q3 55 3 131v194q0 136 -45.5 188.5t-130.5 52.5q-62 0 -108 -31t-70 -84q-9 -19 -9 -82v-126q0 -78 3 -198.5t7 -142.5q3 -12 8 -18t14 -10q15 -7 46 -10l77 -4v-79q-273 7 -304 7l-248 -7v79q89 4 104.5 8
t23 11.5t11.5 21.5q7 31 10 190t3 283v324q0 161 -8 292q-3 67 -9 79q-4 7 -11 11q-11 7 -37 11q-17 3 -87 6v74q141 17 204.5 31t182.5 52l22 -12l-8 -238q-4 -181 -4 -336v-96l176 146q70 27 145 27q79 0 140.5 -25.5t96.5 -67.5t49.5 -91.5t14.5 -129.5q0 -27 -4 -156
q-3 -95 -3 -156q0 -185 7 -217q5 -22 22 -31t112 -11zM4 1206h706v-164h-706v164z" />
    <glyph glyph-name="Itilde" unicode="&#x128;" horiz-adv-x="797" 
d="M732 1399v-88q-101 -3 -120 -7.5t-27 -11t-11 -16.5q-7 -17 -10 -65q-2 -26 -3 -98q-4 -246 -4 -265v-403l3 -183q0 -103 10 -134q4 -14 13.5 -21.5t30 -12t118.5 -6.5v-88q-163 6 -348 6q-161 0 -287 -6v88q104 4 120 7q21 4 28.5 11t9.5 16q3 12 8 94q8 120 8 222v418
q0 199 -2 256q-5 127 -12 159q-3 13 -9.5 20t-24 11.5t-126.5 8.5v88q126 -6 289 -6q183 0 346 6zM100 1507h-86q34 149 98.5 211.5t145.5 62.5q77 0 199 -55q77 -34 108 -44q17 -5 34 -5q29 0 48 17q26 22 49 82h88q-38 -154 -102 -215t-147 -61q-42 0 -82 10.5
t-113.5 44.5t-98 41.5t-42.5 7.5q-29 0 -54 -21.5t-45 -75.5z" />
    <glyph glyph-name="itilde" unicode="&#x129;" horiz-adv-x="682" 
d="M69 0v74q112 8 128 17.5t20 35.5q10 55 10 283q0 313 -9 356q-4 20 -13 26q-20 13 -136 14v76q151 16 228 34t168 55l24 -13q-12 -156 -12 -293v-340q0 -174 8 -206q4 -18 16 -24q27 -13 131 -17v-78q-142 4 -309 4q-144 0 -254 -4zM63 1082h-86q34 149 98.5 211.5
t145.5 62.5q77 0 199 -55q77 -34 108 -44q17 -5 34 -5q29 0 48 17q26 22 49 82h88q-38 -154 -102 -215t-147 -61q-42 0 -82 10.5t-113.5 44.5t-98 41.5t-42.5 7.5q-29 0 -54 -21.5t-45 -75.5z" />
    <glyph glyph-name="Imacron" unicode="&#x12a;" horiz-adv-x="797" 
d="M732 1399v-88q-101 -3 -120 -7.5t-27 -11t-11 -16.5q-7 -17 -10 -65q-2 -26 -3 -98q-4 -246 -4 -265v-403l3 -183q0 -103 10 -134q4 -14 13.5 -21.5t30 -12t118.5 -6.5v-88q-163 6 -348 6q-161 0 -287 -6v88q104 4 120 7q21 4 28.5 11t9.5 16q3 12 8 94q8 120 8 222v418
q0 199 -2 256q-5 127 -12 159q-3 13 -9.5 20t-24 11.5t-126.5 8.5v88q126 -6 289 -6q183 0 346 6zM52 1665h706v-164h-706v164z" />
    <glyph glyph-name="imacron" unicode="&#x12b;" horiz-adv-x="682" 
d="M69 0v74q112 8 128 17.5t20 35.5q10 55 10 283q0 313 -9 356q-4 20 -13 26q-20 13 -136 14v76q151 16 228 34t168 55l24 -13q-12 -156 -12 -293v-340q0 -174 8 -206q4 -18 16 -24q27 -13 131 -17v-78q-142 4 -309 4q-144 0 -254 -4zM14 1239h706v-164h-706v164z" />
    <glyph glyph-name="Ibreve" unicode="&#x12c;" horiz-adv-x="797" 
d="M732 1399v-88q-101 -3 -120 -7.5t-27 -11t-11 -16.5q-7 -17 -10 -65q-2 -26 -3 -98q-4 -246 -4 -265v-403l3 -183q0 -103 10 -134q4 -14 13.5 -21.5t30 -12t118.5 -6.5v-88q-163 6 -348 6q-161 0 -287 -6v88q104 4 120 7q21 4 28.5 11t9.5 16q3 12 8 94q8 120 8 222v418
q0 199 -2 256q-5 127 -12 159q-3 13 -9.5 20t-24 11.5t-126.5 8.5v88q126 -6 289 -6q183 0 346 6zM94 1840h102q12 -79 55 -117q55 -49 163 -49q97 0 148 40t70 126h102q-11 -168 -96.5 -253.5t-223.5 -85.5q-97 0 -172 41t-111 113t-37 185z" />
    <glyph glyph-name="ibreve" unicode="&#x12d;" horiz-adv-x="682" 
d="M69 0v74q112 8 128 17.5t20 35.5q10 55 10 283q0 313 -9 356q-4 20 -13 26q-20 13 -136 14v76q151 16 228 34t168 55l24 -13q-12 -156 -12 -293v-340q0 -174 8 -206q4 -18 16 -24q27 -13 131 -17v-78q-142 4 -309 4q-144 0 -254 -4zM30 1415h102q12 -79 55 -117
q55 -49 163 -49q97 0 148 40t70 126h102q-11 -168 -96.5 -253.5t-223.5 -85.5q-97 0 -172 41t-111 113t-37 185z" />
    <glyph glyph-name="Iogonek" unicode="&#x12e;" horiz-adv-x="797" 
d="M732 1399v-88q-101 -3 -120 -7.5t-27 -11t-11 -16.5q-7 -17 -10 -65q-2 -26 -3 -98q-4 -246 -4 -265v-403l3 -183q0 -103 10 -134q4 -14 13.5 -21.5t30 -12t118.5 -6.5v-88q-163 6 -348 6q-161 0 -287 -6v88q104 4 120 7q21 4 28.5 11t9.5 16q3 12 8 94q8 120 8 222v418
q0 199 -2 256q-5 127 -12 159q-3 13 -9.5 20t-24 11.5t-126.5 8.5v88q126 -6 289 -6q183 0 346 6zM627 -311l12 -54q-32 -25 -94.5 -45t-125.5 -20q-112 0 -171 58.5t-59 159.5q0 91 51 160t148 101h81q-55 -53 -86.5 -116t-31.5 -125q0 -72 38 -111t98 -39q63 0 140 31z
" />
    <glyph glyph-name="iogonek" unicode="&#x12f;" horiz-adv-x="682" 
d="M343 1448q64 0 108.5 -45t44.5 -108q0 -64 -44.5 -109t-108.5 -45q-63 0 -108 45t-45 109q0 63 44.5 108t108.5 45zM69 0v74q112 8 128 17.5t20 35.5q10 55 10 283q0 313 -9 356q-4 20 -13 26q-20 13 -136 14v76q151 16 228 34t168 55l24 -13q-12 -156 -12 -293v-340
q0 -174 8 -206q4 -18 16 -24q27 -13 131 -17v-78q-142 4 -309 4q-144 0 -254 -4zM563 -319l12 -54q-32 -25 -94.5 -45t-125.5 -20q-112 0 -171 58.5t-59 159.5q0 91 51 160t148 101h81q-55 -53 -86.5 -116t-31.5 -125q0 -72 38 -111t98 -39q63 0 140 31z" />
    <glyph glyph-name="Idotaccent" unicode="&#x130;" horiz-adv-x="797" 
d="M732 1399v-88q-101 -3 -120 -7.5t-27 -11t-11 -16.5q-7 -17 -10 -65q-2 -26 -3 -98q-4 -246 -4 -265v-403l3 -183q0 -103 10 -134q4 -14 13.5 -21.5t30 -12t118.5 -6.5v-88q-163 6 -348 6q-161 0 -287 -6v88q104 4 120 7q21 4 28.5 11t9.5 16q3 12 8 94q8 120 8 222v418
q0 199 -2 256q-5 127 -12 159q-3 13 -9.5 20t-24 11.5t-126.5 8.5v88q126 -6 289 -6q183 0 346 6zM414 1800q61 0 103 -43t42 -103t-42.5 -102.5t-102.5 -42.5t-102.5 42.5t-42.5 102.5q0 61 42.5 103.5t102.5 42.5z" />
    <glyph glyph-name="dotlessi" unicode="&#x131;" horiz-adv-x="682" 
d="M69 0v74q112 8 128 17.5t20 35.5q10 55 10 283q0 313 -9 356q-4 20 -13 26q-20 13 -136 14v76q151 16 228 34t168 55l24 -13q-12 -156 -12 -293v-340q0 -174 8 -206q4 -18 16 -24q27 -13 131 -17v-78q-142 4 -309 4q-144 0 -254 -4z" />
    <glyph glyph-name="IJ" unicode="&#x132;" horiz-adv-x="1594" 
d="M732 1399v-88q-101 -3 -120 -7.5t-27 -11t-11 -16.5q-7 -17 -10 -65q-2 -26 -3 -98q-4 -246 -4 -265v-403l3 -183q0 -103 10 -134q4 -14 13.5 -21.5t30 -12t118.5 -6.5v-88q-163 6 -348 6q-161 0 -287 -6v88q104 4 120 7q21 4 28.5 11t9.5 16q3 12 8 94q8 120 8 222v418
q0 199 -2 256q-5 127 -12 159q-3 13 -9.5 20t-24 11.5t-126.5 8.5v88q126 -6 289 -6q183 0 346 6zM802 -239l23 13q48 -43 79 -57.5t64 -14.5q39 0 60 17t30.5 49t12.5 139q6 211 6 234v783q0 129 -3.5 232.5t-11.5 122.5q-4 10 -13 16q-13 9 -39 11l-136 5v88
q193 -7 390 -7q165 0 283 7v-87q-102 -3 -122 -6q-26 -5 -38.5 -19t-15.5 -51q-7 -82 -7 -229v-364l2 -427q0 -162 -29.5 -258t-97.5 -181q-47 -58 -113.5 -109.5t-130 -78t-117.5 -26.5q-39 0 -81 15q5 69 5 183z" />
    <glyph glyph-name="ij" unicode="&#x133;" horiz-adv-x="1364" 
d="M343 1448q64 0 108.5 -45t44.5 -108q0 -64 -44.5 -109t-108.5 -45q-63 0 -108 45t-45 109q0 63 44.5 108t108.5 45zM69 0v74q112 8 128 17.5t20 35.5q10 55 10 283q0 313 -9 356q-4 20 -13 26q-20 13 -136 14v76q151 16 228 34t168 55l24 -13q-12 -156 -12 -293v-340
q0 -174 8 -206q4 -18 16 -24q27 -13 131 -17v-78q-142 4 -309 4q-144 0 -254 -4zM1039 1448q64 0 108.5 -45t44.5 -108q0 -64 -45 -109t-108 -45q-64 0 -109 45t-45 109q0 63 45 108t109 45zM732 -535l-23 75l8 10q19 -3 33 -3q55 0 94 32.5t56.5 118.5t17.5 457v275
q0 100 -6 266q-2 73 -8 84.5t-18 16.5q-22 9 -125 9v76q151 17 227.5 35t168.5 55l24 -13q-8 -97 -10 -159.5t-2 -194.5l3 -413q0 -235 -27 -359.5t-86 -206t-130.5 -123.5t-157.5 -42q-18 0 -39 4z" />
    <glyph glyph-name="Jcircumflex" unicode="&#x134;" horiz-adv-x="797" 
d="M5 -239l23 13q48 -43 79 -57.5t64 -14.5q39 0 60 17t30.5 49t12.5 139q6 211 6 234v783q0 129 -3.5 232.5t-11.5 122.5q-4 10 -13 16q-13 9 -39 11l-136 5v88q193 -7 390 -7q165 0 283 7v-87q-102 -3 -122 -6q-26 -5 -38.5 -19t-15.5 -51q-7 -82 -7 -229v-364l2 -427
q0 -162 -29.5 -258t-97.5 -181q-47 -58 -113.5 -109.5t-130 -78t-117.5 -26.5q-39 0 -81 15q5 69 5 183zM288 1857h213l249 -356h-134l-226 190l-219 -190h-131z" />
    <glyph glyph-name="jcircumflex" unicode="&#x135;" horiz-adv-x="682" 
d="M50 -535l-23 75l8 10q19 -3 33 -3q55 0 94 32.5t56.5 118.5t17.5 457v275q0 100 -6 266q-2 73 -8 84.5t-18 16.5q-22 9 -125 9v76q151 17 227.5 35t168.5 55l24 -13q-8 -97 -10 -159.5t-2 -194.5l3 -413q0 -235 -27 -359.5t-86 -206t-130.5 -123.5t-157.5 -42
q-18 0 -39 4zM269 1441h213l249 -356h-134l-226 190l-219 -190h-131z" />
    <glyph glyph-name="Kcommaaccent" unicode="&#x136;" horiz-adv-x="1593" 
d="M1559 87v-87q-145 4 -250 4q-81 0 -156 -4q-25 51 -78 114l-195 224q-221 261 -235 275q-37 41 -58 51q-14 7 -24 7q-8 0 -14 -4q-5 -3 -6.5 -7t-1.5 -23v-225l3 -198q1 -79 13 -98q7 -11 27 -18t131 -11v-87q-164 6 -346 6q-162 0 -289 -6v87q104 5 134 14q11 4 18.5 13
t12 27.5t7.5 79.5q9 148 9 214v363l-7 310q-2 114 -9 151q-5 22 -11.5 29t-20.5 11q-22 6 -133 12v88q127 -6 290 -6q182 0 345 6v-88q-116 -3 -141 -16q-15 -9 -21 -38q-12 -65 -12 -247v-276l16 -7q94 75 258 244l142 145q69 71 97 102l88 103q1 21 -3 78q101 -2 136 -2
l235 2v-81q-93 -2 -135 -14.5t-104 -61.5t-254 -222l-190 -190q48 -60 143 -171l219 -257q152 -178 206 -236t79 -68.5t85 -10.5zM550 -694q71 136 110.5 261.5t57.5 269.5q152 31 163 34q44 12 107 38l36 -34q-40 -95 -132.5 -260t-168.5 -272l-143 -62z" />
    <glyph glyph-name="kcommaaccent" unicode="&#x137;" 
d="M1230 80v-80q-42 3 -175 3q-139 0 -174 -3q-52 88 -211.5 269.5t-180.5 197.5q-7 6 -22 7v-98q0 -73 6 -197q3 -56 8 -68q3 -8 11 -13q11 -8 38 -12q12 -2 94 -6v-80q-122 7 -267 7q-155 0 -288 -7v80q88 4 103.5 7.5t23.5 11t11 19.5q8 30 10 163q4 181 4 312v324
q0 161 -8 292q-3 67 -9 79q-4 7 -11 11q-12 7 -37 11q-17 3 -87 6v74q141 17 204.5 31t182.5 52l22 -12l-7 -217q-4 -180 -4 -362v-364q32 24 74 62q88 80 146 136q21 22 74 74t89 94v56q90 -2 182 -1q40 0 134 1v-78l-105 -7q-17 -2 -33 -10q-30 -15 -93 -65
q-88 -70 -106 -87t-28 -26l-85 -74q88 -104 298 -342q118 -135 155 -156q21 -12 61 -15zM360 -724q71 136 110.5 261.5t57.5 269.5q152 31 163 34q44 12 107 38l36 -34q-40 -95 -132.5 -260t-168.5 -272l-143 -62z" />
    <glyph glyph-name="kgreenlandic" unicode="&#x138;" 
d="M1230 80v-80q-42 3 -175 3q-139 0 -174 -3q-52 88 -211.5 269.5t-180.5 197.5q-7 6 -22 7v-98q0 -73 6 -197q3 -56 8 -68q3 -8 11 -13q11 -8 38 -12q12 -2 94 -6v-80q-122 7 -267 7q-155 0 -288 -7v80q88 4 103.5 7.5t23.5 11t11 19.5q8 30 10 163q4 181 4 312
q0 5 -8 136q-3 67 -9 79q-4 7 -11 11q-12 7 -37 11q-17 3 -87 6v74q141 17 204.5 31t182.5 52l22 -12l-7 -217q-4 -180 -4 -246q32 24 74 62q88 80 146 136q21 22 74 74t89 94v56q90 -2 182 -1q40 0 134 1v-78l-105 -7q-17 -2 -33 -10q-30 -15 -93 -65q-88 -70 -106 -87
t-28 -26l-85 -74q88 -104 298 -342q118 -135 155 -156q21 -12 61 -15z" />
    <glyph glyph-name="Lacute" unicode="&#x139;" 
d="M137 0v51q26 11 73 39q21 12 27 20q4 5 5 11q5 25 9 178.5t4 368.5q0 316 -2 390q-4 188 -13 215q-4 12 -15 18q-23 15 -153 20v88q127 -6 290 -6q182 0 345 6v-88q-113 -5 -138 -18q-11 -6 -16 -19.5t-9.5 -123.5t-4.5 -278q0 -18 1 -289q1 -143 1.5 -283.5t1.5 -170.5
q138 -6 188 -6q152 0 265 18q41 6 49 13t17 37q20 76 39 174h83q-3 -28 -3 -33l-25 -202q-8 -95 -9 -114q-29 -8 -58 -11q-61 -5 -189 -5q-18 0 -235 5q-165 4 -230 4q-98 0 -298 -9zM309 1501h-121l235 285q51 62 81.5 80.5t69.5 18.5q52 0 84 -30.5t32 -73.5
q0 -29 -18 -53q-29 -37 -101 -78z" />
    <glyph glyph-name="lacute" unicode="&#x13a;" horiz-adv-x="682" 
d="M622 80v-80q-125 8 -261 8t-306 -8v79q95 3 115 8q15 4 22.5 11.5t10.5 23.5q7 30 10 189t3 282v330q0 157 -7 287q-4 70 -10 83q-4 7 -11 11q-12 8 -38 12q-15 2 -90 5v74q124 13 198 28.5t199 54.5l21 -12l-8 -202q-5 -170 -6 -417v-256q0 -145 2 -217q4 -179 6 -216.5
t7 -47.5q3 -7 10 -12q9 -7 31 -11q9 -2 102 -7zM210 1580h-121l235 285q51 62 81.5 80.5t69.5 18.5q52 0 84 -30.5t32 -73.5q0 -29 -18 -53q-29 -37 -101 -78z" />
    <glyph glyph-name="Lcommaaccent" unicode="&#x13b;" 
d="M137 0v51q26 11 73 39q21 12 27 20q4 5 5 11q5 25 9 178.5t4 368.5q0 316 -2 390q-4 188 -13 215q-4 12 -15 18q-23 15 -153 20v88q127 -6 290 -6q182 0 345 6v-88q-113 -5 -138 -18q-11 -6 -16 -19.5t-9.5 -123.5t-4.5 -278q0 -18 1 -289q1 -143 1.5 -283.5t1.5 -170.5
q138 -6 188 -6q152 0 265 18q41 6 49 13t17 37q20 76 39 174h83q-3 -28 -3 -33l-25 -202q-8 -95 -9 -114q-29 -8 -58 -11q-61 -5 -189 -5q-18 0 -235 5q-165 4 -230 4q-98 0 -298 -9zM350 -714q71 136 110.5 261.5t57.5 269.5q152 31 163 34q44 12 107 38l36 -34
q-40 -95 -132.5 -260t-168.5 -272l-143 -62z" />
    <glyph glyph-name="lcommaaccent" unicode="&#x13c;" horiz-adv-x="682" 
d="M622 80v-80q-125 8 -261 8t-306 -8v79q95 3 115 8q15 4 22.5 11.5t10.5 23.5q7 30 10 189t3 282v330q0 157 -7 287q-4 70 -10 83q-4 7 -11 11q-12 8 -38 12q-15 2 -90 5v74q124 13 198 28.5t199 54.5l21 -12l-8 -202q-5 -170 -6 -417v-256q0 -145 2 -217q4 -179 6 -216.5
t7 -47.5q3 -7 10 -12q9 -7 31 -11q9 -2 102 -7zM80 -724q71 136 110.5 261.5t57.5 269.5q152 31 163 34q44 12 107 38l36 -34q-40 -95 -132.5 -260t-168.5 -272l-143 -62z" />
    <glyph glyph-name="Lcaron" unicode="&#x13d;" 
d="M137 0v51q26 11 73 39q21 12 27 20q4 5 5 11q5 25 9 178.5t4 368.5q0 316 -2 390q-4 188 -13 215q-4 12 -15 18q-23 15 -153 20v88q127 -6 290 -6q182 0 345 6v-88q-113 -5 -138 -18q-11 -6 -16 -19.5t-9.5 -123.5t-4.5 -278q0 -18 1 -289q1 -143 1.5 -283.5t1.5 -170.5
q138 -6 188 -6q152 0 265 18q41 6 49 13t17 37q20 76 39 174h83q-3 -28 -3 -33l-25 -202q-8 -95 -9 -114q-29 -8 -58 -11q-61 -5 -189 -5q-18 0 -235 5q-165 4 -230 4q-98 0 -298 -9zM710 796q71 136 110.5 261.5t57.5 269.5q152 31 163 34q44 12 107 38l36 -34
q-40 -95 -132.5 -260t-168.5 -272l-143 -62z" />
    <glyph glyph-name="lcaron" unicode="&#x13e;" horiz-adv-x="682" 
d="M622 80v-80q-125 8 -261 8t-306 -8v79q95 3 115 8q15 4 22.5 11.5t10.5 23.5q7 30 10 189t3 282v330q0 157 -7 287q-4 70 -10 83q-4 7 -11 11q-12 8 -38 12q-15 2 -90 5v74q124 13 198 28.5t199 54.5l21 -12l-8 -202q-5 -170 -6 -417v-256q0 -145 2 -217q4 -179 6 -216.5
t7 -47.5q3 -7 10 -12q9 -7 31 -11q9 -2 102 -7zM516 875q71 136 110.5 261.5t57.5 269.5q152 31 163 34q44 12 107 38l36 -34q-40 -95 -132.5 -260t-168.5 -272l-143 -62z" />
    <glyph glyph-name="Ldot" unicode="&#x13f;" horiz-adv-x="1241" 
d="M1165 334q-22 -146 -22 -330l-10 -10l-727 6q-182 0 -257 -6l-10 10v28l5 12q74 47 80 59q9 18 11 133l3 224v507q0 238 -13 310q-5 29 -34 37q-15 4 -117 10l-10 10v68l10 9q103 -6 302 -6q206 0 313 6l10 -9v-69l-10 -9q-102 -6 -117 -10q-29 -8 -34 -37
q-13 -72 -13 -310v-598q0 -131 5 -254h136q292 0 358 23q11 4 16 11q10 14 19 60l24 124l10 11h61zM968 813q0 -61 -42.5 -103.5t-103.5 -42.5q-60 0 -102.5 42.5t-42.5 103.5t43 104.5t102 43.5t102.5 -42.5t43.5 -105.5z" />
    <glyph glyph-name="ldot" unicode="&#x140;" horiz-adv-x="879" 
d="M625 3l-10 -10q-95 7 -274 7t-273 -7l-10 10v61l10 10q96 3 119 15q20 9 22 48q7 130 7 455v335q0 210 -7 340q-2 37 -22 48.5t-116 14.5l-10 11v55l10 11q193 21 387 83l21 -12q0 -27 -3 -99q-10 -239 -10 -529v-258q0 -325 7 -455q2 -39 22 -48q23 -12 119 -15l11 -10
v-61zM840 791q0 -54 -38 -92.5t-91 -38.5t-91 38.5t-38 92.5t38 92.5t91 38.5t91 -37.5t38 -93.5z" />
    <glyph glyph-name="Lslash" unicode="&#x141;" 
d="M260 694q-1 313 -2 367q-4 186 -13 212q-4 12 -15 18q-24 15 -153 20v88q127 -6 290 -6q181 0 345 6v-88q-112 -5 -138 -18q-10 -5 -15 -16q-8 -20 -11 -133l-4 -293l242 135l30 -84l-272 -150v-72l2 -302l1 -180q0 -26 1 -69q138 -6 188 -6q152 0 265 18q41 6 49 13
t17 37q20 76 39 174h83q-3 -28 -4 -33l-25 -202q-7 -95 -9 -114q-29 -8 -57 -11q-61 -5 -189 -5q-18 0 -236 5q-164 4 -229 4q-98 0 -298 -9v51q28 13 77 42q17 9 23 17q4 6 5 14q6 29 9 196q1 25 3 275l-203 -112l-31 81z" />
    <glyph glyph-name="lslash" unicode="&#x142;" horiz-adv-x="682" 
d="M624 79v-79q-125 8 -261 8t-306 -8v79q94 3 115 9q15 4 22.5 11.5t10.5 23.5q7 30 10 188.5t3 281.5v93l-203 -131l-31 70l234 149v149q0 156 -7 287q-4 70 -10 83q-4 7 -11 11q-12 8 -38 12q-15 2 -90 5v74q124 13 198 28.5t199 54.5l21 -12l-9 -206q-2 -60 -4 -325
l195 126l30 -71l-225 -146v-253q0 -148 1 -224q4 -171 6 -203q3 -43 7 -54q3 -7 10 -12q9 -7 29 -11q11 -2 104 -8z" />
    <glyph glyph-name="Nacute" unicode="&#x143;" horiz-adv-x="1706" 
d="M79 85q118 6 135 11q11 4 18.5 13t12.5 37q6 38 14 184q4 83 4 216v321l-4 291q-1 73 -6 95t-14.5 32.5t-31.5 16.5t-128 13v84q127 -6 187 -6l145 3l92 3q206 -269 499 -620q211 -253 350 -396v231q0 538 -12 633q-4 37 -18 48q-23 18 -156 20v84q122 -6 224 -6
q99 0 255 6v-84q-122 -3 -145 -18q-8 -5 -11 -15q-15 -50 -19.5 -228.5t-4.5 -263.5q0 -665 13 -807l-13 -9q-84 14 -171 26q-323 361 -916 1084v-498q0 -155 6 -323q4 -116 12 -141q4 -12 13.5 -19.5t33.5 -10.5q65 -8 95 -8q6 0 20 1v-81q-190 2 -216 2q-97 0 -263 -6v85z
M732 1501h-121l235 285q51 62 81.5 80.5t69.5 18.5q52 0 84 -30.5t32 -73.5q0 -29 -18 -53q-29 -37 -101 -78z" />
    <glyph glyph-name="nacute" unicode="&#x144;" 
d="M1209 77v-77q-136 7 -222 7q-99 0 -172 -7l-18 18q2 21 13 173l5 164v79q0 175 -13.5 230t-55.5 88.5t-112 33.5t-116 -33.5t-58 -67.5q-7 -20 -6 -160v-168q0 -73 4 -179q1 -47 8 -62q5 -11 13 -16q12 -8 47 -15q12 -2 84 -8v-77q-109 4 -267 4q-183 0 -284 -4v77
q78 0 108 11q14 5 21 17q10 19 11 72l4 89q1 28 1 91v131q0 89 -6 216q-3 64 -8.5 72.5t-17.5 12.5q-19 7 -113 10v77q182 31 239 46t129 48l27 -12v-161l182 146q33 13 55.5 17.5t62.5 4.5q107 0 160.5 -24t90.5 -67.5t52 -91t15 -148.5q0 -114 -2 -145q-1 -12 -1 -29
l1 -103q1 -169 5.5 -209t18 -51.5t59.5 -14.5q17 -1 56 -5zM504 1074h-121l235 285q51 62 81.5 80.5t69.5 18.5q52 0 84 -30.5t32 -73.5q0 -29 -18 -53q-29 -37 -101 -78z" />
    <glyph glyph-name="Ncommaaccent" unicode="&#x145;" horiz-adv-x="1706" 
d="M79 85q118 6 135 11q11 4 18.5 13t12.5 37q6 38 14 184q4 83 4 216v321l-4 291q-1 73 -6 95t-14.5 32.5t-31.5 16.5t-128 13v84q127 -6 187 -6l145 3l92 3q206 -269 499 -620q211 -253 350 -396v231q0 538 -12 633q-4 37 -18 48q-23 18 -156 20v84q122 -6 224 -6
q99 0 255 6v-84q-122 -3 -145 -18q-8 -5 -11 -15q-15 -50 -19.5 -228.5t-4.5 -263.5q0 -665 13 -807l-13 -9q-84 14 -171 26q-323 361 -916 1084v-498q0 -155 6 -323q4 -116 12 -141q4 -12 13.5 -19.5t33.5 -10.5q65 -8 95 -8q6 0 20 1v-81q-190 2 -216 2q-97 0 -263 -6v85z
M550 -694q71 136 110.5 261.5t57.5 269.5q152 31 163 34q44 12 107 38l36 -34q-40 -95 -132.5 -260t-168.5 -272l-143 -62z" />
    <glyph glyph-name="ncommaaccent" unicode="&#x146;" 
d="M1209 77v-77q-136 7 -222 7q-99 0 -172 -7l-18 18q2 21 13 173l5 164v79q0 175 -13.5 230t-55.5 88.5t-112 33.5t-116 -33.5t-58 -67.5q-7 -20 -6 -160v-168q0 -73 4 -179q1 -47 8 -62q5 -11 13 -16q12 -8 47 -15q12 -2 84 -8v-77q-109 4 -267 4q-183 0 -284 -4v77
q78 0 108 11q14 5 21 17q10 19 11 72l4 89q1 28 1 91v131q0 89 -6 216q-3 64 -8.5 72.5t-17.5 12.5q-19 7 -113 10v77q182 31 239 46t129 48l27 -12v-161l182 146q33 13 55.5 17.5t62.5 4.5q107 0 160.5 -24t90.5 -67.5t52 -91t15 -148.5q0 -114 -2 -145q-1 -12 -1 -29
l1 -103q1 -169 5.5 -209t18 -51.5t59.5 -14.5q17 -1 56 -5zM350 -724q71 136 110.5 261.5t57.5 269.5q152 31 163 34q44 12 107 38l36 -34q-40 -95 -132.5 -260t-168.5 -272l-143 -62z" />
    <glyph glyph-name="Ncaron" unicode="&#x147;" horiz-adv-x="1706" 
d="M79 85q118 6 135 11q11 4 18.5 13t12.5 37q6 38 14 184q4 83 4 216v321l-4 291q-1 73 -6 95t-14.5 32.5t-31.5 16.5t-128 13v84q127 -6 187 -6l145 3l92 3q206 -269 499 -620q211 -253 350 -396v231q0 538 -12 633q-4 37 -18 48q-23 18 -156 20v84q122 -6 224 -6
q99 0 255 6v-84q-122 -3 -145 -18q-8 -5 -11 -15q-15 -50 -19.5 -228.5t-4.5 -263.5q0 -665 13 -807l-13 -9q-84 14 -171 26q-323 361 -916 1084v-498q0 -155 6 -323q4 -116 12 -141q4 -12 13.5 -19.5t33.5 -10.5q65 -8 95 -8q6 0 20 1v-81q-190 2 -216 2q-97 0 -263 -6v85z
M511 1858h128l223 -188l221 188h131l-251 -357h-208z" />
    <glyph glyph-name="ncaron" unicode="&#x148;" 
d="M1209 77v-77q-136 7 -222 7q-99 0 -172 -7l-18 18q2 21 13 173l5 164v79q0 175 -13.5 230t-55.5 88.5t-112 33.5t-116 -33.5t-58 -67.5q-7 -20 -6 -160v-168q0 -73 4 -179q1 -47 8 -62q5 -11 13 -16q12 -8 47 -15q12 -2 84 -8v-77q-109 4 -267 4q-183 0 -284 -4v77
q78 0 108 11q14 5 21 17q10 19 11 72l4 89q1 28 1 91v131q0 89 -6 216q-3 64 -8.5 72.5t-17.5 12.5q-19 7 -113 10v77q182 31 239 46t129 48l27 -12v-161l182 146q33 13 55.5 17.5t62.5 4.5q107 0 160.5 -24t90.5 -67.5t52 -91t15 -148.5q0 -114 -2 -145q-1 -12 -1 -29
l1 -103q1 -169 5.5 -209t18 -51.5t59.5 -14.5q17 -1 56 -5zM283 1431h128l223 -188l221 188h131l-251 -357h-208z" />
    <glyph glyph-name="napostrophe" unicode="&#x149;" 
d="M1209 77v-77q-136 7 -222 7q-99 0 -172 -7l-18 18q2 21 13 173l5 164v79q0 175 -13.5 230t-55.5 88.5t-112 33.5t-116 -33.5t-58 -67.5q-7 -20 -6 -160v-168q0 -73 4 -179q1 -47 8 -62q5 -11 13 -16q12 -8 47 -15q12 -2 84 -8v-77q-109 4 -267 4q-183 0 -284 -4v77
q78 0 108 11q14 5 21 17q10 19 11 72l4 89q1 28 1 91v131q0 89 -6 216q-3 64 -8.5 72.5t-17.5 12.5q-19 7 -113 10v77q182 31 239 46t129 48l27 -12v-161l182 146q33 13 55.5 17.5t62.5 4.5q107 0 160.5 -24t90.5 -67.5t52 -91t15 -148.5q0 -114 -2 -145q-1 -12 -1 -29
l1 -103q1 -169 5.5 -209t18 -51.5t59.5 -14.5q17 -1 56 -5zM59 1097q71 136 110.5 261.5t57.5 269.5q152 31 163 34q44 12 107 38l36 -34q-40 -95 -132.5 -260t-168.5 -272l-143 -62z" />
    <glyph glyph-name="Eng" unicode="&#x14a;" horiz-adv-x="1706" 
d="M79 85q118 6 135 11q11 4 18.5 13t12.5 37q6 38 14 184q4 83 4 216v321l-4 291q-1 73 -6 95t-14.5 32.5t-31.5 16.5t-128 13v84q127 -6 187 -6l145 3l92 3q206 -269 499 -620q211 -253 350 -396v231q0 538 -12 633q-4 37 -18 48q-23 18 -156 20v84q122 -6 224 -6
q99 0 255 6v-84q-122 -3 -145 -18q-8 -5 -11 -15q-15 -50 -19.5 -228.5t-4.5 -263.5q0 -665 13 -807l-13 -9q-84 14 -171 26q-323 361 -916 1084v-498q0 -155 6 -323q4 -116 12 -141q4 -12 13.5 -19.5t33.5 -10.5q65 -8 95 -8q6 0 20 1v-81q-190 2 -216 2q-97 0 -263 -6v85z
" />
    <glyph glyph-name="eng" unicode="&#x14b;" 
d="M1067 7h-3q-6 -104 -21 -174q-27 -125 -86 -206.5t-130.5 -123.5t-157.5 -42q-18 0 -39 4l-23 75l8 10q19 -3 33 -3q55 0 94 32.5t56 118.5q14 67 17 302v355v79q0 175 -13.5 230t-55.5 88.5t-112 33.5t-116 -33.5t-58 -67.5q-7 -20 -6 -160v-168q0 -73 4 -179
q1 -47 8 -62q5 -11 13 -16q12 -8 47 -15q12 -2 84 -8v-77q-109 4 -267 4q-183 0 -284 -4v77q78 0 108 11q14 5 21 17q10 19 11 72l4 89q1 28 1 91v131q0 89 -6 216q-3 64 -8.5 72.5t-17.5 12.5q-19 7 -113 10v77q182 31 239 46t129 48l27 -12v-161l182 146q33 13 55.5 17.5
t62.5 4.5q107 0 160.5 -24t90.5 -67.5t52 -91t15 -148.5q0 -114 -2 -145q-1 -12 -1 -29l1 -103z" />
    <glyph glyph-name="Omacron" unicode="&#x14c;" horiz-adv-x="1706" 
d="M108 683q0 183 55.5 319t158.5 231t224 137q155 53 338 53q182 0 330 -51q110 -39 194.5 -112.5t128.5 -150.5t66.5 -169t22.5 -203q0 -188 -65 -349q-48 -120 -140.5 -213t-210.5 -143q-162 -67 -370 -67q-225 0 -386.5 81.5t-253.5 240.5t-92 396zM416 742
q0 -233 64 -385.5t164 -215.5t236 -63q126 0 225.5 60t156 203t56.5 347q0 140 -30.5 256t-87.5 197.5t-134.5 124.5t-205.5 43q-146 0 -248.5 -68.5t-149 -202.5t-46.5 -296zM514 1689h706v-164h-706v164z" />
    <glyph glyph-name="omacron" unicode="&#x14d;" horiz-adv-x="1139" 
d="M86 472q0 170 58 281.5t174 168t270 56.5q231 0 351.5 -121t120.5 -355q0 -135 -35 -234t-94 -159.5t-124 -91.5q-111 -52 -250 -52q-226 0 -348.5 128.5t-122.5 378.5zM363 520q0 -266 78 -379q52 -75 148 -75q82 0 130 57q64 76 64 294q0 153 -25.5 262.5t-75 152.5
t-119.5 43q-60 0 -105 -31.5t-70 -106t-25 -217.5zM220 1246h706v-164h-706v164z" />
    <glyph glyph-name="Obreve" unicode="&#x14e;" horiz-adv-x="1706" 
d="M108 683q0 183 55.5 319t158.5 231t224 137q155 53 338 53q182 0 330 -51q110 -39 194.5 -112.5t128.5 -150.5t66.5 -169t22.5 -203q0 -188 -65 -349q-48 -120 -140.5 -213t-210.5 -143q-162 -67 -370 -67q-225 0 -386.5 81.5t-253.5 240.5t-92 396zM416 742
q0 -233 64 -385.5t164 -215.5t236 -63q126 0 225.5 60t156 203t56.5 347q0 140 -30.5 256t-87.5 197.5t-134.5 124.5t-205.5 43q-146 0 -248.5 -68.5t-149 -202.5t-46.5 -296zM547 1864h102q12 -79 55 -117q55 -49 163 -49q97 0 148 40t70 126h102q-11 -168 -96.5 -253.5
t-223.5 -85.5q-97 0 -172 41t-111 113t-37 185z" />
    <glyph glyph-name="obreve" unicode="&#x14f;" horiz-adv-x="1139" 
d="M86 472q0 170 58 281.5t174 168t270 56.5q231 0 351.5 -121t120.5 -355q0 -135 -35 -234t-94 -159.5t-124 -91.5q-111 -52 -250 -52q-226 0 -348.5 128.5t-122.5 378.5zM363 520q0 -266 78 -379q52 -75 148 -75q82 0 130 57q64 76 64 294q0 153 -25.5 262.5t-75 152.5
t-119.5 43q-60 0 -105 -31.5t-70 -106t-25 -217.5zM253 1421h102q12 -79 55 -117q55 -49 163 -49q97 0 148 40t70 126h102q-11 -168 -96.5 -253.5t-223.5 -85.5q-97 0 -172 41t-111 113t-37 185z" />
    <glyph glyph-name="Ohungarumlaut" unicode="&#x150;" horiz-adv-x="1706" 
d="M108 683q0 183 55.5 319t158.5 231t224 137q155 53 338 53q182 0 330 -51q110 -39 194.5 -112.5t128.5 -150.5t66.5 -169t22.5 -203q0 -188 -65 -349q-48 -120 -140.5 -213t-210.5 -143q-162 -67 -370 -67q-225 0 -386.5 81.5t-253.5 240.5t-92 396zM416 742
q0 -233 64 -385.5t164 -215.5t236 -63q126 0 225.5 60t156 203t56.5 347q0 140 -30.5 256t-87.5 197.5t-134.5 124.5t-205.5 43q-146 0 -248.5 -68.5t-149 -202.5t-46.5 -296zM650 1525h-121l235 285q51 62 81.5 80.5t69.5 18.5q52 0 84 -30.5t32 -73.5q0 -29 -18 -53
q-29 -37 -101 -78zM1104 1525h-121l235 285q51 62 81.5 80.5t69.5 18.5q52 0 84 -30.5t32 -73.5q0 -29 -18 -53q-29 -37 -100 -78z" />
    <glyph glyph-name="ohungarumlaut" unicode="&#x151;" horiz-adv-x="1139" 
d="M86 472q0 170 58 281.5t174 168t270 56.5q231 0 351.5 -121t120.5 -355q0 -135 -35 -234t-94 -159.5t-124 -91.5q-111 -52 -250 -52q-226 0 -348.5 128.5t-122.5 378.5zM363 520q0 -266 78 -379q52 -75 148 -75q82 0 130 57q64 76 64 294q0 153 -25.5 262.5t-75 152.5
t-119.5 43q-60 0 -105 -31.5t-70 -106t-25 -217.5zM220 1082h-121l235 285q51 62 81.5 80.5t69.5 18.5q52 0 84 -30.5t32 -73.5q0 -29 -18 -53q-29 -37 -101 -78zM674 1082h-121l235 285q51 62 81.5 80.5t69.5 18.5q52 0 84 -30.5t32 -73.5q0 -29 -18 -53q-29 -37 -100 -78z
" />
    <glyph glyph-name="OE" unicode="&#x152;" horiz-adv-x="2048" 
d="M1945 9q-60 -9 -213 -9q-60 0 -231 5q-113 4 -186 4q-79 0 -132 -3.5t-186.5 -18t-230.5 -14.5q-139 0 -264 45q-94 34 -165 92t-125.5 140t-84.5 178q-41 133 -41 294q0 204 60.5 334.5t160.5 210t218 118t295 38.5q64 0 120 -3q30 -3 122 -14.5t113 -12.5q44 -3 103 -3
t273 5q158 4 235 4q83 0 149 -5l7 -12l-17 -134q-9 -140 -11 -158h-76q-4 33 -6 89t-10.5 67t-55.5 21q-74 15 -221 15q-92 0 -171 -6q-4 -67 -5 -223l-2 -271q83 -2 162 -2q82 0 151 6q24 2 31 6q5 4 8 9q4 9 7 31l12 109h84q-2 -38 -3 -104q-3 -261 -3 -341h-85
q-2 129 -13 149q-5 9 -21 13q-52 16 -245 16q-53 0 -85 -5q-2 -47 -2 -65q0 -124 4 -335q1 -91 5 -141q116 -10 179 -10q51 0 158 6q72 4 100 11q20 5 43 19q14 35 22 86q12 75 18 103h83l-21 -263q-2 -34 -1 -60zM1081 1221q-45 44 -114.5 66.5t-152.5 22.5
q-194 0 -308 -133.5t-114 -427.5q0 -196 51 -350.5t149 -233.5t243 -79q81 0 147 17t99 45q4 44 6 127q4 194 4 337l-1 193q0 102 -9 416z" />
    <glyph glyph-name="oe" unicode="&#x153;" horiz-adv-x="1706" 
d="M1614 159l-48 -100q-85 -50 -161.5 -70t-160.5 -20q-221 0 -330 130q-59 -54 -95 -75q-47 -28 -97 -41q-69 -18 -161 -18q-156 0 -256.5 55.5t-157.5 174t-57 278.5q0 232 131.5 362t373.5 130q123 0 204.5 -31t144.5 -90q74 65 146 93t166 28q123 0 210 -49t127.5 -138
t40.5 -214q0 -32 -5 -67l-117 -22q-39 -7 -149 -8l-287 -6h-42q5 -162 94 -252t233 -90q62 0 112 14.5t115 53.5zM596 61q56 0 101.5 30t70 101t24.5 216q0 138 -22.5 251.5t-71 158.5t-126.5 45q-96 0 -149 -81t-53 -243q0 -120 21 -245.5t76 -179t129 -53.5zM1029 567
q113 -7 258 -7q49 0 86 6q2 110 -23 182q-18 54 -56 81t-91 27q-92 0 -134 -76t-42 -168q0 -15 2 -45z" />
    <glyph glyph-name="Racute" unicode="&#x154;" horiz-adv-x="1479" 
d="M82 1316v82q23 0 160 -4q67 -2 190 -2q105 0 180 4q124 5 205 5q157 0 235 -22.5t133 -93.5t55 -173q0 -121 -75 -220t-231 -157q25 -45 57 -92t37.5 -57t11.5 -19l155 -233q62 -93 67 -100q75 -100 92 -118t33 -25t63 -8v-83q-154 4 -223 4q-80 0 -159 -4q-5 22 -24 57
l-214 353q-92 152 -156 239q-32 44 -62 66l11 33q120 -4 181 24.5t103 102t42 164.5q0 92 -44 153t-109 85q-42 15 -150 15q-48 0 -95 -8q-3 -36 -6 -162q-6 -283 -6 -378q0 -150 3 -318q4 -206 6 -234q3 -56 11 -73q4 -8 13 -14.5t29 -10.5t116 -6v-88q-171 6 -346 6
q-156 0 -289 -6v88q114 4 135 11q12 3 17.5 10t8.5 28q7 39 10 118l8 292v371l-4 211q-2 125 -12 150q-5 11 -15 17q-24 12 -148 20zM636 1503h-121l235 285q51 62 81.5 80.5t69.5 18.5q52 0 84 -30.5t32 -73.5q0 -29 -18 -53q-29 -37 -101 -78z" />
    <glyph glyph-name="racute" unicode="&#x155;" horiz-adv-x="797" 
d="M636 77v-77q-113 5 -252 5q-155 0 -322 -5v77q78 0 108 11q14 5 21 17q10 19 11 72l4 89q1 28 1 91v131q0 89 -6 216q-3 64 -8.5 72.5t-17.5 12.5q-19 7 -113 10v77q182 31 239 46t129 48l27 -12l-2 -202q65 67 100 111q52 62 78 79q36 24 95 24q37 0 67 -12l-6 -142
q-3 -116 -5 -133l-42 -13q-25 33 -48 46q-37 21 -81 21q-59 0 -101.5 -36.5t-50.5 -74.5q-4 -22 -4 -169v-100l2 -136q1 -77 5.5 -94.5t20.5 -27.5t69 -14zM298 1074h-121l235 285q51 62 81.5 80.5t69.5 18.5q52 0 84 -30.5t32 -73.5q0 -29 -18 -53q-29 -37 -101 -78z" />
    <glyph glyph-name="Rcommaaccent" unicode="&#x156;" horiz-adv-x="1479" 
d="M82 1316v82q23 0 160 -4q67 -2 190 -2q105 0 180 4q124 5 205 5q157 0 235 -22.5t133 -93.5t55 -173q0 -121 -75 -220t-231 -157q25 -45 57 -92t37.5 -57t11.5 -19l155 -233q62 -93 67 -100q75 -100 92 -118t33 -25t63 -8v-83q-154 4 -223 4q-80 0 -159 -4q-5 22 -24 57
l-214 353q-92 152 -156 239q-32 44 -62 66l11 33q120 -4 181 24.5t103 102t42 164.5q0 92 -44 153t-109 85q-42 15 -150 15q-48 0 -95 -8q-3 -36 -6 -162q-6 -283 -6 -378q0 -150 3 -318q4 -206 6 -234q3 -56 11 -73q4 -8 13 -14.5t29 -10.5t116 -6v-88q-171 6 -346 6
q-156 0 -289 -6v88q114 4 135 11q12 3 17.5 10t8.5 28q7 39 10 118l8 292v371l-4 211q-2 125 -12 150q-5 11 -15 17q-24 12 -148 20zM480 -704q71 136 110.5 261.5t57.5 269.5q152 31 163 34q44 12 107 38l36 -34q-40 -95 -132.5 -260t-168.5 -272l-143 -62z" />
    <glyph glyph-name="rcommaaccent" unicode="&#x157;" horiz-adv-x="797" 
d="M636 77v-77q-113 5 -252 5q-155 0 -322 -5v77q78 0 108 11q14 5 21 17q10 19 11 72l4 89q1 28 1 91v131q0 89 -6 216q-3 64 -8.5 72.5t-17.5 12.5q-19 7 -113 10v77q182 31 239 46t129 48l27 -12l-2 -202q65 67 100 111q52 62 78 79q36 24 95 24q37 0 67 -12l-6 -142
q-3 -116 -5 -133l-42 -13q-25 33 -48 46q-37 21 -81 21q-59 0 -101.5 -36.5t-50.5 -74.5q-4 -22 -4 -169v-100l2 -136q1 -77 5.5 -94.5t20.5 -27.5t69 -14zM100 -724q71 136 110.5 261.5t57.5 269.5q152 31 163 34q44 12 107 38l36 -34q-40 -95 -132.5 -260t-168.5 -272
l-143 -62z" />
    <glyph glyph-name="Rcaron" unicode="&#x158;" horiz-adv-x="1479" 
d="M82 1316v82q23 0 160 -4q67 -2 190 -2q105 0 180 4q124 5 205 5q157 0 235 -22.5t133 -93.5t55 -173q0 -121 -75 -220t-231 -157q25 -45 57 -92t37.5 -57t11.5 -19l155 -233q62 -93 67 -100q75 -100 92 -118t33 -25t63 -8v-83q-154 4 -223 4q-80 0 -159 -4q-5 22 -24 57
l-214 353q-92 152 -156 239q-32 44 -62 66l11 33q120 -4 181 24.5t103 102t42 164.5q0 92 -44 153t-109 85q-42 15 -150 15q-48 0 -95 -8q-3 -36 -6 -162q-6 -283 -6 -378q0 -150 3 -318q4 -206 6 -234q3 -56 11 -73q4 -8 13 -14.5t29 -10.5t116 -6v-88q-171 6 -346 6
q-156 0 -289 -6v88q114 4 135 11q12 3 17.5 10t8.5 28q7 39 10 118l8 292v371l-4 211q-2 125 -12 150q-5 11 -15 17q-24 12 -148 20zM248 1860h128l223 -188l221 188h131l-251 -357h-208z" />
    <glyph glyph-name="rcaron" unicode="&#x159;" horiz-adv-x="797" 
d="M636 77v-77q-113 5 -252 5q-155 0 -322 -5v77q78 0 108 11q14 5 21 17q10 19 11 72l4 89q1 28 1 91v131q0 89 -6 216q-3 64 -8.5 72.5t-17.5 12.5q-19 7 -113 10v77q182 31 239 46t129 48l27 -12l-2 -202q65 67 100 111q52 62 78 79q36 24 95 24q37 0 67 -12l-6 -142
q-3 -116 -5 -133l-42 -13q-25 33 -48 46q-37 21 -81 21q-59 0 -101.5 -36.5t-50.5 -74.5q-4 -22 -4 -169v-100l2 -136q1 -77 5.5 -94.5t20.5 -27.5t69 -14zM77 1431h128l223 -188l221 188h131l-251 -357h-208z" />
    <glyph glyph-name="Sacute" unicode="&#x15a;" 
d="M1031 1033h-84q-2 116 -10 164q-31 44 -107.5 78t-171.5 34q-136 0 -210.5 -68.5t-74.5 -160.5q1 -66 22 -107t60 -65t115 -44q58 -12 161.5 -30t134.5 -25q81 -21 131 -50.5t79.5 -68t48.5 -97t19 -131.5q0 -128 -53 -225q-40 -73 -111 -133.5t-146 -90.5
q-120 -48 -288 -48q-123 0 -219 23t-211 79q31 114 32 347h84q-2 -72 11 -179q38 -62 130 -109t201 -47q95 0 169.5 33.5t108 92.5t33.5 134q0 63 -23.5 108t-73.5 72t-176 56q-181 38 -238 55q-86 26 -138.5 75t-78.5 118.5t-26 149.5q0 112 47 206.5t124 146.5t174 74.5
t199 22.5q106 0 205.5 -19t172.5 -55l8 -24q-14 -65 -20.5 -127.5t-9.5 -164.5zM500 1525h-121l235 285q51 62 81.5 80.5t69.5 18.5q52 0 84 -30.5t32 -73.5q0 -29 -18 -53q-29 -37 -101 -78z" />
    <glyph glyph-name="sacute" unicode="&#x15b;" horiz-adv-x="909" 
d="M107 315h80q5 -112 10 -141q45 -55 99 -81.5t124 -26.5q94 0 144 45t50 109q0 42 -16.5 69.5t-66.5 50.5q-39 14 -149.5 38t-167.5 53t-89 86.5t-32 134.5q0 138 104 229.5t299 91.5q81 0 149 -14t123 -42l3 -10q-6 -35 -9 -71t-9 -170l-77 1q-1 11 -3 37q-3 45 -12 87
q-31 40 -76.5 60t-106.5 20q-85 0 -131.5 -38t-46.5 -91q0 -54 21 -80t62 -39t151.5 -33.5t148.5 -34.5q55 -21 88 -53t50.5 -79.5t17.5 -104.5q0 -149 -115.5 -251t-324.5 -102q-70 0 -136 12.5t-161 45.5l-11 15q8 77 10 109zM335 1077h-121l235 285q51 62 81.5 80.5
t69.5 18.5q52 0 84 -30.5t32 -73.5q0 -29 -18 -53q-29 -37 -101 -78z" />
    <glyph glyph-name="Scircumflex" unicode="&#x15c;" 
d="M1031 1033h-84q-2 116 -10 164q-31 44 -107.5 78t-171.5 34q-136 0 -210.5 -68.5t-74.5 -160.5q1 -66 22 -107t60 -65t115 -44q58 -12 161.5 -30t134.5 -25q81 -21 131 -50.5t79.5 -68t48.5 -97t19 -131.5q0 -128 -53 -225q-40 -73 -111 -133.5t-146 -90.5
q-120 -48 -288 -48q-123 0 -219 23t-211 79q31 114 32 347h84q-2 -72 11 -179q38 -62 130 -109t201 -47q95 0 169.5 33.5t108 92.5t33.5 134q0 63 -23.5 108t-73.5 72t-176 56q-181 38 -238 55q-86 26 -138.5 75t-78.5 118.5t-26 149.5q0 112 47 206.5t124 146.5t174 74.5
t199 22.5q106 0 205.5 -19t172.5 -55l8 -24q-14 -65 -20.5 -127.5t-9.5 -164.5zM523 1881h213l249 -356h-134l-226 190l-219 -190h-131z" />
    <glyph glyph-name="scircumflex" unicode="&#x15d;" horiz-adv-x="909" 
d="M107 315h80q5 -112 10 -141q45 -55 99 -81.5t124 -26.5q94 0 144 45t50 109q0 42 -16.5 69.5t-66.5 50.5q-39 14 -149.5 38t-167.5 53t-89 86.5t-32 134.5q0 138 104 229.5t299 91.5q81 0 149 -14t123 -42l3 -10q-6 -35 -9 -71t-9 -170l-77 1q-1 11 -3 37q-3 45 -12 87
q-31 40 -76.5 60t-106.5 20q-85 0 -131.5 -38t-46.5 -91q0 -54 21 -80t62 -39t151.5 -33.5t148.5 -34.5q55 -21 88 -53t50.5 -79.5t17.5 -104.5q0 -149 -115.5 -251t-324.5 -102q-70 0 -136 12.5t-161 45.5l-11 15q8 77 10 109zM358 1433h213l249 -356h-134l-226 190
l-219 -190h-131z" />
    <glyph glyph-name="Scedilla" unicode="&#x15e;" 
d="M588 -34l-40 -94q34 5 58 5q96 0 145.5 -43t49.5 -104q0 -71 -69.5 -126.5t-211.5 -55.5q-105 0 -200 36l35 80q80 -25 136 -25q49 0 74.5 22.5t25.5 54.5q0 30 -24 51.5t-65 21.5q-23 0 -54 -10l-25 18l76 169q-108 5 -192.5 27t-191.5 74q31 114 32 347h84
q-2 -72 11 -179q38 -62 130 -109t201 -47q95 0 167 35.5t108 101.5t36 135q0 62 -28 113t-77 76.5t-170 44.5q-179 28 -236 45q-86 26 -138.5 75t-78.5 118.5t-26 149.5q0 112 47 206.5t124 146.5t174 74.5t199 22.5q106 0 205.5 -19t172.5 -55l8 -24q-14 -65 -20.5 -127.5
t-9.5 -164.5h-84q-2 116 -10 164q-31 44 -107.5 78t-171.5 34q-136 0 -210.5 -68.5t-74.5 -172.5q0 -52 20.5 -95t58.5 -69t108 -43q30 -7 152.5 -26t154.5 -27q81 -20 130.5 -49.5t79 -68.5t48.5 -97t19 -131q0 -126 -46.5 -212.5t-119.5 -147.5t-160.5 -95t-228.5 -41z
" />
    <glyph glyph-name="scedilla" unicode="&#x15f;" horiz-adv-x="909" 
d="M451 -33l-41 -95q35 5 58 5q97 0 146 -43t49 -104q0 -71 -69.5 -126.5t-211.5 -55.5q-105 0 -199 36l35 80q79 -25 135 -25q50 0 75 22.5t25 54.5q0 30 -24 51.5t-64 21.5q-24 0 -55 -10l-25 18l76 169q-67 4 -121 16t-139 41l-11 15q8 77 10 109l6 168h80
q5 -112 10 -141q45 -55 99 -81.5t124 -26.5q94 0 144 45t50 113q0 46 -22 74.5t-67 45.5q-26 10 -140 34t-171 53t-89 86.5t-32 134.5q0 138 104 229.5t299 91.5q81 0 149 -14t123 -42l3 -10q-6 -35 -9 -71t-9 -170l-77 1q-1 11 -3 37q-3 45 -12 87q-31 40 -76.5 60
t-106.5 20q-85 0 -131.5 -40t-46.5 -96q0 -38 19.5 -65.5t56.5 -41.5t162 -38.5t171 -45.5q61 -28 95.5 -85t34.5 -141q0 -139 -99.5 -236.5t-287.5 -114.5z" />
    <glyph glyph-name="Scaron" unicode="&#x160;" 
d="M1031 1033h-84q-2 116 -10 164q-31 44 -107.5 78t-171.5 34q-136 0 -210.5 -68.5t-74.5 -160.5q1 -66 22 -107t60 -65t115 -44q58 -12 161.5 -30t134.5 -25q81 -21 131 -50.5t79.5 -68t48.5 -97t19 -131.5q0 -128 -53 -225q-40 -73 -111 -133.5t-146 -90.5
q-120 -48 -288 -48q-123 0 -219 23t-211 79q31 114 32 347h84q-2 -72 11 -179q38 -62 130 -109t201 -47q95 0 169.5 33.5t108 92.5t33.5 134q0 63 -23.5 108t-73.5 72t-176 56q-181 38 -238 55q-86 26 -138.5 75t-78.5 118.5t-26 149.5q0 112 47 206.5t124 146.5t174 74.5
t199 22.5q106 0 205.5 -19t172.5 -55l8 -24q-14 -65 -20.5 -127.5t-9.5 -164.5zM274 1850h128l223 -188l221 188h131l-251 -357h-208z" />
    <glyph glyph-name="scaron" unicode="&#x161;" horiz-adv-x="909" 
d="M107 315h80q5 -112 10 -141q45 -55 99 -81.5t124 -26.5q94 0 144 45t50 109q0 42 -16.5 69.5t-66.5 50.5q-39 14 -149.5 38t-167.5 53t-89 86.5t-32 134.5q0 138 104 229.5t299 91.5q81 0 149 -14t123 -42l3 -10q-6 -35 -9 -71t-9 -170l-77 1q-1 11 -3 37q-3 45 -12 87
q-31 40 -76.5 60t-106.5 20q-85 0 -131.5 -38t-46.5 -91q0 -54 21 -80t62 -39t151.5 -33.5t148.5 -34.5q55 -21 88 -53t50.5 -79.5t17.5 -104.5q0 -149 -115.5 -251t-324.5 -102q-70 0 -136 12.5t-161 45.5l-11 15q8 77 10 109zM103 1455h128l223 -188l221 188h131
l-251 -357h-208z" />
    <glyph glyph-name="Tcedilla" unicode="&#x162;" horiz-adv-x="1366" 
d="M360 0v82q120 4 142.5 16t30.5 40q11 43 11 259v599q0 245 -3 274h-143q-108 0 -190 -7q-33 -3 -38 -8q-7 -6 -12 -35q-13 -70 -15 -157h-83q-4 205 -5 231q-3 44 -10 95l9 10q47 -5 100 -7q86 -3 331 -3h404q252 0 337 3q46 2 93 7l10 -10q-9 -61 -11 -107
q-1 -8 -4 -219h-83q-2 78 -13 149q-6 36 -13 43q-6 5 -32 7q-82 8 -197 8h-143q-3 -35 -3 -274v-599q0 -216 11 -260q7 -26 30 -38.5t143 -16.5v-82q-194 9 -327 9q-142 0 -327 -9zM641 57h88l-55 -128q35 5 59 5q96 0 145.5 -43t49.5 -104q0 -71 -70 -126.5t-212 -55.5
q-105 0 -199 36l35 80q79 -25 135 -25q50 0 75 22.5t25 54.5q0 30 -23.5 51.5t-64.5 21.5q-23 0 -55 -10l-25 18z" />
    <glyph glyph-name="tcedilla" unicode="&#x163;" horiz-adv-x="682" 
d="M46 761v45l90 57q22 14 42 30v134q0 72 -8 178q97 32 126 43q5 2 127 59l26 -20l-10 -104l-7 -115l-9 -175h33q133 0 201 10l-17 -135q-12 -2 -22 -2l-98 2h-97v-334q0 -154 3 -182q4 -47 33.5 -73.5t85.5 -26.5q34 -1 54.5 1.5t52.5 9.5l16 -41l-36 -36q-44 -45 -77 -79
q-39 -17 -69.5 -22.5t-62.5 -5.5q-116 0 -182.5 59.5t-66.5 148.5l4 330v247h-27q-55 0 -105 -3zM377 36h88l-55 -128q35 5 59 5q96 0 145.5 -43t49.5 -104q0 -71 -70 -126.5t-212 -55.5q-105 0 -199 36l35 80q79 -25 135 -25q50 0 75 22.5t25 54.5q0 30 -23.5 51.5
t-64.5 21.5q-23 0 -55 -10l-25 18z" />
    <glyph glyph-name="Tcaron" unicode="&#x164;" horiz-adv-x="1366" 
d="M360 0v82q120 4 142.5 16t30.5 40q11 43 11 259v599q0 245 -3 274h-143q-108 0 -190 -7q-33 -3 -38 -8q-7 -6 -12 -35q-13 -70 -15 -157h-83q-4 205 -5 231q-3 44 -10 95l9 10q47 -5 100 -7q86 -3 331 -3h404q252 0 337 3q46 2 93 7l10 -10q-9 -61 -11 -107
q-1 -8 -4 -219h-83q-2 78 -13 149q-6 36 -13 43q-6 5 -32 7q-82 8 -197 8h-143q-3 -35 -3 -274v-599q0 -216 11 -260q7 -26 30 -38.5t143 -16.5v-82q-194 9 -327 9q-142 0 -327 -9zM336 1858h128l223 -188l221 188h131l-251 -357h-208z" />
    <glyph glyph-name="tcaron" unicode="&#x165;" horiz-adv-x="682" 
d="M46 761v45l90 57q22 14 42 30v134q0 72 -8 178q97 32 126 43q5 2 127 59l26 -20l-10 -104l-7 -115l-9 -175h33q133 0 201 10l-17 -135q-12 -2 -22 -2l-98 2h-97v-334q0 -154 3 -182q4 -47 33.5 -73.5t85.5 -26.5q34 -1 54.5 1.5t52.5 9.5l16 -41l-36 -36q-44 -45 -77 -79
q-39 -17 -69.5 -22.5t-62.5 -5.5q-116 0 -182.5 59.5t-66.5 148.5l4 330v247h-27q-55 0 -105 -3zM543 1018q71 136 110.5 261.5t57.5 269.5q152 31 163 34q44 12 107 38l36 -34q-40 -95 -132.5 -260t-168.5 -272l-143 -62z" />
    <glyph glyph-name="Tbar" unicode="&#x166;" horiz-adv-x="1366" 
d="M360 0v82q120 4 142.5 16t30.5 40q11 43 11 259v599q0 245 -3 274h-143q-108 0 -190 -7q-33 -3 -38 -8q-7 -6 -12 -35q-13 -70 -15 -157h-83q-4 205 -5 231q-3 44 -10 95l9 10q47 -5 100 -7q86 -3 331 -3h404q252 0 337 3q46 2 93 7l10 -10q-9 -61 -11 -107
q-1 -8 -4 -219h-83q-2 78 -13 149q-6 36 -13 43q-6 5 -32 7q-82 8 -197 8h-143q-3 -35 -3 -274v-599q0 -216 11 -260q7 -26 30 -38.5t143 -16.5v-82q-194 9 -327 9q-142 0 -327 -9zM334 783h706v-164h-706v164z" />
    <glyph glyph-name="tbar" unicode="&#x167;" horiz-adv-x="682" 
d="M46 761v45l90 57q22 14 42 30v134q0 72 -8 178q97 32 126 43q5 2 127 59l26 -20l-10 -104l-7 -115l-9 -175h33q133 0 201 10l-17 -135q-12 -2 -22 -2l-98 2h-97v-334q0 -154 3 -182q4 -47 33.5 -73.5t85.5 -26.5q34 -1 54.5 1.5t52.5 9.5l16 -41l-36 -36q-44 -45 -77 -79
q-39 -17 -69.5 -22.5t-62.5 -5.5q-116 0 -182.5 59.5t-66.5 148.5l4 330v247h-27q-55 0 -105 -3zM-12 727h706v-164h-706v164z" />
    <glyph glyph-name="Utilde" unicode="&#x168;" horiz-adv-x="1593" 
d="M55 1316v83l325 -6l135 2l135 3l37 1v-83q-108 0 -137 -19q-15 -9 -20 -35q-14 -62 -14 -273v-232l1 -117q0 -183 4 -226q9 -94 47 -151.5t116.5 -93t199.5 -35.5q139 0 221.5 47.5t117.5 123.5t35 289v204q0 264 -1 322q-3 126 -14 152q-7 16 -23 24q-33 17 -144 20v83
q181 -7 215 -7q9 0 27 1l222 6v-83q-93 0 -117 -15q-12 -8 -19.5 -30.5t-14.5 -202.5t-7 -284v-235q0 -90 -13 -186t-52.5 -164t-111.5 -123t-171 -83t-229 -28q-152 0 -284 41q-96 30 -157 80.5t-93 113t-39 120.5q-5 36 -5 194l1 192v254q0 140 -6 252q-3 44 -12 64
q-5 11 -25 26zM493 1508h-86q34 149 98.5 211.5t145.5 62.5q77 0 199 -55q77 -34 108 -44q17 -5 34 -5q29 0 48 17q26 22 49 82h88q-38 -154 -102 -215t-147 -61q-42 0 -82 10.5t-113.5 44.5t-98 41.5t-42.5 7.5q-29 0 -54 -21.5t-45 -75.5z" />
    <glyph glyph-name="utilde" unicode="&#x169;" 
d="M53 802v76q86 5 173 23t223 64l14 -11q-14 -198 -14 -366v-112q0 -143 7 -191q10 -63 48 -95t101 -32q72 0 121 37.5t68 77.5q12 26 12 108v171l-2 142q0 69 -9 83q-5 9 -20 14t-122 11v76q155 20 211 32t190 55l19 -11l-11 -184q-8 -196 -8 -219v-205q0 -183 9 -226
q4 -18 15 -25q19 -10 123 -15v-80l-206 5l-189 -5l-7 8l6 77q1 19 1 77q-39 -31 -68 -57l-113 -107q-69 -25 -139 -25q-135 0 -212 74t-77 197q0 15 3 111q1 51 1 132l-2 211q0 58 -7.5 72t-24.5 21t-114 11zM323 1076h-86q34 149 98.5 211.5t145.5 62.5q77 0 199 -55
q77 -34 108 -44q17 -5 34 -5q29 0 48 17q26 22 49 82h88q-38 -154 -102 -215t-147 -61q-42 0 -82 10.5t-113.5 44.5t-98 41.5t-42.5 7.5q-29 0 -54 -21.5t-45 -75.5z" />
    <glyph glyph-name="Umacron" unicode="&#x16a;" horiz-adv-x="1593" 
d="M55 1316v83l325 -6l135 2l135 3l37 1v-83q-108 0 -137 -19q-15 -9 -20 -35q-14 -62 -14 -273v-232l1 -117q0 -183 4 -226q9 -94 47 -151.5t116.5 -93t199.5 -35.5q139 0 221.5 47.5t117.5 123.5t35 289v204q0 264 -1 322q-3 126 -14 152q-7 16 -23 24q-33 17 -144 20v83
q181 -7 215 -7q9 0 27 1l222 6v-83q-93 0 -117 -15q-12 -8 -19.5 -30.5t-14.5 -202.5t-7 -284v-235q0 -90 -13 -186t-52.5 -164t-111.5 -123t-171 -83t-229 -28q-152 0 -284 41q-96 30 -157 80.5t-93 113t-39 120.5q-5 36 -5 194l1 192v254q0 140 -6 252q-3 44 -12 64
q-5 11 -25 26zM535 1665h706v-164h-706v164z" />
    <glyph glyph-name="umacron" unicode="&#x16b;" 
d="M53 802v76q86 5 173 23t223 64l14 -11q-14 -198 -14 -366v-112q0 -143 7 -191q10 -63 48 -95t101 -32q72 0 121 37.5t68 77.5q12 26 12 108v171l-2 142q0 69 -9 83q-5 9 -20 14t-122 11v76q155 20 211 32t190 55l19 -11l-11 -184q-8 -196 -8 -219v-205q0 -183 9 -226
q4 -18 15 -25q19 -10 123 -15v-80l-206 5l-189 -5l-7 8l6 77q1 19 1 77q-39 -31 -68 -57l-113 -107q-69 -25 -139 -25q-135 0 -212 74t-77 197q0 15 3 111q1 51 1 132l-2 211q0 58 -7.5 72t-24.5 21t-114 11zM274 1233h706v-164h-706v164z" />
    <glyph glyph-name="Ubreve" unicode="&#x16c;" horiz-adv-x="1593" 
d="M55 1316v83l325 -6l135 2l135 3l37 1v-83q-108 0 -137 -19q-15 -9 -20 -35q-14 -62 -14 -273v-232l1 -117q0 -183 4 -226q9 -94 47 -151.5t116.5 -93t199.5 -35.5q139 0 221.5 47.5t117.5 123.5t35 289v204q0 264 -1 322q-3 126 -14 152q-7 16 -23 24q-33 17 -144 20v83
q181 -7 215 -7q9 0 27 1l222 6v-83q-93 0 -117 -15q-12 -8 -19.5 -30.5t-14.5 -202.5t-7 -284v-235q0 -90 -13 -186t-52.5 -164t-111.5 -123t-171 -83t-229 -28q-152 0 -284 41q-96 30 -157 80.5t-93 113t-39 120.5q-5 36 -5 194l1 192v254q0 140 -6 252q-3 44 -12 64
q-5 11 -25 26zM551 1840h102q12 -79 55 -117q55 -49 163 -49q97 0 148 40t70 126h102q-11 -168 -96.5 -253.5t-223.5 -85.5q-97 0 -172 41t-111 113t-37 185z" />
    <glyph glyph-name="ubreve" unicode="&#x16d;" 
d="M53 802v76q86 5 173 23t223 64l14 -11q-14 -198 -14 -366v-112q0 -143 7 -191q10 -63 48 -95t101 -32q72 0 121 37.5t68 77.5q12 26 12 108v171l-2 142q0 69 -9 83q-5 9 -20 14t-122 11v76q155 20 211 32t190 55l19 -11l-11 -184q-8 -196 -8 -219v-205q0 -183 9 -226
q4 -18 15 -25q19 -10 123 -15v-80l-206 5l-189 -5l-7 8l6 77q1 19 1 77q-39 -31 -68 -57l-113 -107q-69 -25 -139 -25q-135 0 -212 74t-77 197q0 15 3 111q1 51 1 132l-2 211q0 58 -7.5 72t-24.5 21t-114 11zM307 1408h102q12 -79 55 -117q55 -49 163 -49q97 0 148 40
t70 126h102q-11 -168 -96.5 -253.5t-223.5 -85.5q-97 0 -172 41t-111 113t-37 185z" />
    <glyph glyph-name="Uring" unicode="&#x16e;" horiz-adv-x="1593" 
d="M55 1316v83l325 -6l135 2l135 3l37 1v-83q-108 0 -137 -19q-15 -9 -20 -35q-14 -62 -14 -273v-232l1 -117q0 -183 4 -226q9 -94 47 -151.5t116.5 -93t199.5 -35.5q139 0 221.5 47.5t117.5 123.5t35 289v204q0 264 -1 322q-3 126 -14 152q-7 16 -23 24q-33 17 -144 20v83
q181 -7 215 -7q9 0 27 1l222 6v-83q-93 0 -117 -15q-12 -8 -19.5 -30.5t-14.5 -202.5t-7 -284v-235q0 -90 -13 -186t-52.5 -164t-111.5 -123t-171 -83t-229 -28q-152 0 -284 41q-96 30 -157 80.5t-93 113t-39 120.5q-5 36 -5 194l1 192v254q0 140 -6 252q-3 44 -12 64
q-5 11 -25 26zM898 1952q116 0 181 -65.5t65 -160.5q0 -93 -65 -159t-181 -66q-117 0 -181 66t-64 159q0 95 64 160.5t181 65.5zM898 1890q-65 0 -94.5 -45t-29.5 -119q-1 -73 27.5 -118.5t96.5 -45.5q66 0 95.5 45.5t28.5 118.5q0 74 -28.5 119t-95.5 45z" />
    <glyph glyph-name="uring" unicode="&#x16f;" 
d="M53 802v76q86 5 173 23t223 64l14 -11q-14 -198 -14 -366v-112q0 -143 7 -191q10 -63 48 -95t101 -32q72 0 121 37.5t68 77.5q12 26 12 108v171l-2 142q0 69 -9 83q-5 9 -20 14t-122 11v76q155 20 211 32t190 55l19 -11l-11 -184q-8 -196 -8 -219v-205q0 -183 9 -226
q4 -18 15 -25q19 -10 123 -15v-80l-206 5l-189 -5l-7 8l6 77q1 19 1 77q-39 -31 -68 -57l-113 -107q-69 -25 -139 -25q-135 0 -212 74t-77 197q0 15 3 111q1 51 1 132l-2 211q0 58 -7.5 72t-24.5 21t-114 11zM662 1518q116 0 181 -65.5t65 -160.5q0 -93 -65 -159t-181 -66
q-117 0 -181 66t-64 159q0 95 64 160.5t181 65.5zM662 1456q-65 0 -94.5 -45t-29.5 -119q-1 -73 27.5 -118.5t96.5 -45.5q66 0 95.5 45.5t28.5 118.5q0 74 -28.5 119t-95.5 45z" />
    <glyph glyph-name="Uhungarumlaut" unicode="&#x170;" horiz-adv-x="1593" 
d="M55 1316v83l325 -6l135 2l135 3l37 1v-83q-108 0 -137 -19q-15 -9 -20 -35q-14 -62 -14 -273v-232l1 -117q0 -183 4 -226q9 -94 47 -151.5t116.5 -93t199.5 -35.5q139 0 221.5 47.5t117.5 123.5t35 289v204q0 264 -1 322q-3 126 -14 152q-7 16 -23 24q-33 17 -144 20v83
q181 -7 215 -7q9 0 27 1l222 6v-83q-93 0 -117 -15q-12 -8 -19.5 -30.5t-14.5 -202.5t-7 -284v-235q0 -90 -13 -186t-52.5 -164t-111.5 -123t-171 -83t-229 -28q-152 0 -284 41q-96 30 -157 80.5t-93 113t-39 120.5q-5 36 -5 194l1 192v254q0 140 -6 252q-3 44 -12 64
q-5 11 -25 26zM572 1501h-121l235 285q51 62 81.5 80.5t69.5 18.5q52 0 84 -30.5t32 -73.5q0 -29 -18 -53q-29 -37 -101 -78zM1026 1501h-121l235 285q51 62 81.5 80.5t69.5 18.5q52 0 84 -30.5t32 -73.5q0 -29 -18 -53q-29 -37 -100 -78z" />
    <glyph glyph-name="uhungarumlaut" unicode="&#x171;" 
d="M53 802v76q86 5 173 23t223 64l14 -11q-14 -198 -14 -366v-112q0 -143 7 -191q10 -63 48 -95t101 -32q72 0 121 37.5t68 77.5q12 26 12 108v171l-2 142q0 69 -9 83q-5 9 -20 14t-122 11v76q155 20 211 32t190 55l19 -11l-11 -184q-8 -196 -8 -219v-205q0 -183 9 -226
q4 -18 15 -25q19 -10 123 -15v-80l-206 5l-189 -5l-7 8l6 77q1 19 1 77q-39 -31 -68 -57l-113 -107q-69 -25 -139 -25q-135 0 -212 74t-77 197q0 15 3 111q1 51 1 132l-2 211q0 58 -7.5 72t-24.5 21t-114 11zM318 1069h-121l235 285q51 62 81.5 80.5t69.5 18.5
q52 0 84 -30.5t32 -73.5q0 -29 -18 -53q-29 -37 -101 -78zM772 1069h-121l235 285q51 62 81.5 80.5t69.5 18.5q52 0 84 -30.5t32 -73.5q0 -29 -18 -53q-29 -37 -100 -78z" />
    <glyph glyph-name="Uogonek" unicode="&#x172;" horiz-adv-x="1593" 
d="M55 1316v83l325 -6l135 2l135 3l37 1v-83q-108 0 -137 -19q-15 -9 -20 -35q-14 -62 -14 -273v-232l1 -117q0 -183 4 -226q9 -94 47 -151.5t116.5 -93t199.5 -35.5q139 0 221.5 47.5t117.5 123.5t35 289v204q0 264 -1 322q-3 126 -14 152q-7 16 -23 24q-33 17 -144 20v83
q181 -7 215 -7q9 0 27 1l222 6v-83q-93 0 -117 -15q-12 -8 -19.5 -30.5t-14.5 -202.5t-7 -284v-235q0 -90 -13 -186t-52.5 -164t-111.5 -123t-171 -83t-229 -28q-152 0 -284 41q-96 30 -157 80.5t-93 113t-39 120.5q-5 36 -5 194l1 192v254q0 140 -6 252q-3 44 -12 64
q-5 11 -25 26zM1018 -354l12 -54q-32 -25 -94.5 -45t-125.5 -20q-112 0 -171 58.5t-59 159.5q0 91 51 160t148 101h81q-55 -53 -86.5 -116t-31.5 -125q0 -72 38 -111t98 -39q63 0 140 31z" />
    <glyph glyph-name="uogonek" unicode="&#x173;" 
d="M53 802v76q86 5 173 23t223 64l14 -11q-14 -198 -14 -366v-112q0 -143 7 -191q10 -63 48 -95t101 -32q72 0 121 37.5t68 77.5q12 26 12 108v171l-2 142q0 69 -9 83q-5 9 -20 14t-122 11v76q155 20 211 32t190 55l19 -11l-11 -184q-8 -196 -8 -219v-205q0 -183 9 -226
q4 -18 15 -25q19 -10 123 -15v-80l-206 5l-189 -5l-7 8l6 77q1 19 1 77q-39 -31 -68 -57l-113 -107q-69 -25 -139 -25q-135 0 -212 74t-77 197q0 15 3 111q1 51 1 132l-2 211q0 58 -7.5 72t-24.5 21t-114 11zM1197 -321l12 -54q-32 -25 -94.5 -45t-125.5 -20
q-112 0 -171 58.5t-59 159.5q0 91 51 160t148 101h81q-55 -53 -86.5 -116t-31.5 -125q0 -72 38 -111t98 -39q63 0 140 31z" />
    <glyph glyph-name="Wcircumflex" unicode="&#x174;" horiz-adv-x="2048" 
d="M1078 1416h92q37 -102 73 -193q156 -400 188 -476l120 -296l116 448q67 266 77 326q3 16 3 30q0 21 -9.5 33t-28.5 17q-9 2 -126 11v83q179 -7 217 -7l236 7v-83q-15 -1 -22 -2q-63 -4 -77 -12t-27 -29t-68.5 -206t-163 -593.5t-118.5 -480.5h-153l-108 290l-273 694
q-43 -94 -307 -718l-107 -266h-146l-232 1064q-38 176 -54 211q-11 25 -30 34q-24 12 -104 14v83l279 -6l327 6v-83q-88 -3 -97 -4q-28 -4 -40 -15.5t-12 -34.5q0 -11 1.5 -25.5t20.5 -115.5q37 -199 54 -278l89 -405q11 27 84 202l126 293l159 381q20 48 41 102zM1017 1874
h213l249 -356h-134l-226 190l-219 -190h-131z" />
    <glyph glyph-name="wcircumflex" unicode="&#x175;" horiz-adv-x="1706" 
d="M401 -8q-4 13 -18 75q-8 34 -25 95l-84 298q-53 187 -68 238q-36 119 -51 140q-6 9 -19 13q-21 8 -104 10v79q126 -3 270 -3q148 0 284 3v-79q-107 0 -128 -12q-13 -7 -13 -24q0 -19 10 -58l121 -455l174 382l60 130l60 141h102l283 -653l99 294q22 69 44 155
q10 44 10 58q0 24 -15.5 30.5t-124.5 11.5v79q107 -3 199 -3q90 0 212 3v-79q-71 -4 -76 -5q-14 -4 -25.5 -13.5t-18.5 -22.5t-50 -129q-17 -45 -59 -166l-53 -158l-16 -45q-12 -35 -64 -195l-40 -135h-163q-95 228 -110 263l-161 367q-87 -180 -129 -273.5t-74 -168.5
l-76 -188h-163zM814 1425h213l249 -356h-134l-226 190l-219 -190h-131z" />
    <glyph glyph-name="Ycircumflex" unicode="&#x176;" horiz-adv-x="1366" 
d="M808 735l126 204q32 55 190 335q55 96 69 125h157v-45q-121 -163 -261 -383t-173 -283q-22 -43 -29 -75q-6 -23 -6 -75v-169q0 -127 6.5 -185t15.5 -70t30 -18t132 -8v-88q-191 6 -345 6q-150 0 -304 -6v88q114 4 133.5 9t27 15t10.5 60q6 114 6 194v190q0 23 -38 95
q-94 172 -201 339q-87 136 -162 218q-50 54 -71 65q-13 6 -88 6v75l212 42q54 12 111 27q61 -34 89 -60.5t77 -99.5q73 -108 145 -249q117 -227 141 -279zM675 1881h213l249 -356h-134l-226 190l-219 -190h-131z" />
    <glyph glyph-name="ycircumflex" unicode="&#x177;" horiz-adv-x="1139" 
d="M65 -510q17 73 22 102l15 101l26 5q25 -26 57 -46q39 -17 84 -17q52 0 96 35.5t98 155.5l40 96l-324 831q-29 74 -55 91.5t-99 16.5v79q98 -4 240 -4q168 0 299 4v-79h-23q-62 1 -86 -14q-15 -10 -15 -26q0 -18 10 -44l49 -135l146 -381l88 208q129 308 129 356
q0 10 -5 16q-7 8 -25 12q-36 7 -96 8v79q64 -4 161 -4q118 0 220 4v-79h-16q-27 1 -51 -10q-15 -6 -26.5 -20t-56.5 -110q-59 -126 -95 -208q-112 -254 -142 -326l-161 -393q-74 -179 -157 -255q-83 -77 -202 -77q-39 0 -71.5 6t-73.5 22zM464 1400h213l249 -356h-134
l-226 190l-219 -190h-131z" />
    <glyph glyph-name="Ydieresis" unicode="&#x178;" horiz-adv-x="1366" 
d="M808 735l126 204q32 55 190 335q55 96 69 125h157v-45q-121 -163 -261 -383t-173 -283q-22 -43 -29 -75q-6 -23 -6 -75v-169q0 -127 6.5 -185t15.5 -70t30 -18t132 -8v-88q-191 6 -345 6q-150 0 -304 -6v88q114 4 133.5 9t27 15t10.5 60q6 114 6 194v190q0 23 -38 95
q-94 172 -201 339q-87 136 -162 218q-50 54 -71 65q-13 6 -88 6v75l212 42q54 12 111 27q61 -34 89 -60.5t77 -99.5q73 -108 145 -249q117 -227 141 -279zM545 1800q61 0 103 -43t42 -103t-42.5 -102.5t-102.5 -42.5t-102.5 42.5t-42.5 102.5q0 61 42.5 103.5t102.5 42.5z
M985 1800q60 0 102.5 -43t42.5 -103t-42.5 -102.5t-102.5 -42.5t-102.5 42.5t-42.5 102.5q0 61 42.5 103.5t102.5 42.5z" />
    <glyph glyph-name="Zacute" unicode="&#x179;" horiz-adv-x="1366" 
d="M52 0v80q48 59 144 190q162 224 228 320l187 271q90 131 140 207q124 187 138 207h-232q-128 -1 -256 -6q-94 -4 -116 -15q-8 -4 -11 -11q-11 -23 -24 -114q-6 -36 -10 -59h-81q8 141 8 206q0 35 -2 123q182 -5 204 -5q250 -1 443 -1q73 0 154 1l309 5v-70
q-187 -249 -305 -421l-296 -428q-29 -42 -75.5 -113t-114.5 -175q-25 -37 -43 -66l186 -2q283 0 410 10q93 7 106 19q19 18 40 124q12 59 18 84h81q-19 -170 -33 -357h-38l-191 -4l-129 3l-258 2l-263 3zM537 1501h-121l235 285q51 62 81.5 80.5t69.5 18.5q52 0 84 -30.5
t32 -73.5q0 -29 -18 -53q-29 -37 -101 -78z" />
    <glyph glyph-name="zacute" unicode="&#x17a;" horiz-adv-x="1024" 
d="M867 321h82q-20 -192 -23 -307l-7 -8q-72 -5 -100 -5l-142 -1q-15 0 -144 5q-67 3 -126 3q-24 0 -184 -3t-188 -5v67q26 29 141 183q191 254 416 577h-117q-121 0 -196 -6q-46 -3 -56 -13.5t-15 -47.5q-8 -55 -17 -103h-79q8 199 8 219q0 15 -1 56l9 9l15 1l94 -5l383 -4
q43 0 307 7v-71q-222 -294 -373 -508.5t-172 -247.5l74 -1q162 0 218 3q125 9 139 15q8 3 12 11q11 20 42 180zM362 1046h-121l235 285q51 62 81.5 80.5t69.5 18.5q52 0 84 -30.5t32 -73.5q0 -29 -18 -53q-29 -37 -101 -78z" />
    <glyph glyph-name="Zdotaccent" unicode="&#x17b;" horiz-adv-x="1366" 
d="M52 0v80q48 59 144 190q162 224 228 320l187 271q90 131 140 207q124 187 138 207h-232q-128 -1 -256 -6q-94 -4 -116 -15q-8 -4 -11 -11q-11 -23 -24 -114q-6 -36 -10 -59h-81q8 141 8 206q0 35 -2 123q182 -5 204 -5q250 -1 443 -1q73 0 154 1l309 5v-70
q-187 -249 -305 -421l-296 -428q-29 -42 -75.5 -113t-114.5 -175q-25 -37 -43 -66l186 -2q283 0 410 10q93 7 106 19q19 18 40 124q12 59 18 84h81q-19 -170 -33 -357h-38l-191 -4l-129 3l-258 2l-263 3zM667 1792q61 0 103 -43t42 -103t-42.5 -102.5t-102.5 -42.5
t-102.5 42.5t-42.5 102.5q0 61 42.5 103.5t102.5 42.5z" />
    <glyph glyph-name="zdotaccent" unicode="&#x17c;" horiz-adv-x="1024" 
d="M867 321h82q-20 -192 -23 -307l-7 -8q-72 -5 -100 -5l-142 -1q-15 0 -144 5q-67 3 -126 3q-24 0 -184 -3t-188 -5v67q26 29 141 183q191 254 416 577h-117q-121 0 -196 -6q-46 -3 -56 -13.5t-15 -47.5q-8 -55 -17 -103h-79q8 199 8 219q0 15 -1 56l9 9l15 1l94 -5l383 -4
q43 0 307 7v-71q-222 -294 -373 -508.5t-172 -247.5l74 -1q162 0 218 3q125 9 139 15q8 3 12 11q11 20 42 180zM492 1337q61 0 103 -43t42 -103t-42.5 -102.5t-102.5 -42.5t-102.5 42.5t-42.5 102.5q0 61 42.5 103.5t102.5 42.5z" />
    <glyph glyph-name="Zcaron" unicode="&#x17d;" horiz-adv-x="1366" 
d="M52 0v80q48 59 144 190q162 224 228 320l187 271q90 131 140 207q124 187 138 207h-232q-128 -1 -256 -6q-94 -4 -116 -15q-8 -4 -11 -11q-11 -23 -24 -114q-6 -36 -10 -59h-81q8 141 8 206q0 35 -2 123q182 -5 204 -5q250 -1 443 -1q73 0 154 1l309 5v-70
q-187 -249 -305 -421l-296 -428q-29 -42 -75.5 -113t-114.5 -175q-25 -37 -43 -66l186 -2q283 0 410 10q93 7 106 19q19 18 40 124q12 59 18 84h81q-19 -170 -33 -357h-38l-191 -4l-129 3l-258 2l-263 3zM331 1850h128l223 -188l221 188h131l-251 -357h-208z" />
    <glyph glyph-name="zcaron" unicode="&#x17e;" horiz-adv-x="1024" 
d="M867 321h82q-20 -192 -23 -307l-7 -8q-72 -5 -100 -5l-142 -1q-15 0 -144 5q-67 3 -126 3q-24 0 -184 -3t-188 -5v67q26 29 141 183q191 254 416 577h-117q-121 0 -196 -6q-46 -3 -56 -13.5t-15 -47.5q-8 -55 -17 -103h-79q8 199 8 219q0 15 -1 56l9 9l15 1l94 -5l383 -4
q43 0 307 7v-71q-222 -294 -373 -508.5t-172 -247.5l74 -1q162 0 218 3q125 9 139 15q8 3 12 11q11 20 42 180zM160 1455h128l223 -188l221 188h131l-251 -357h-208z" />
    <glyph glyph-name="slong" unicode="&#x17f;" horiz-adv-x="797" 
d="M488 764v-319q0 -107 2.5 -204t8.5 -117q5 -14 15.5 -23t34.5 -13q6 -1 136 -11v-77l-341 5q-63 0 -272 -5v76q118 8 140 22q17 11 20 40q7 52 9 326v300l-28 1l-136 -6v49q133 69 138 73q13 9 13 24q0 47 4.5 116.5t13.5 98.5t29 56q33 44 146 142l121 108
q29 25 67 39.5t86 14.5q49 0 105 -18q-16 -108 -14 -200l-40 -18q-30 28 -56 38.5t-66 10.5q-58 0 -92 -22q-24 -16 -32 -43q-12 -40 -12 -200v-264z" />
    <glyph glyph-name="uni04D8" unicode="&#x18f;" horiz-adv-x="1658" 
d="M1564 739q0 -369 -215 -579q-209 -204 -571 -204q-364 0 -526 190q-158 185 -158 457q0 84 6 136l10 10l1145 -2q0 145 -16 217q-79 354 -441 354q-185 0 -299 -93q-110 -89 -175 -283l-15 -12l-56 31l42 306q57 48 118 79q174 88 411 88q349 0 543 -183
q197 -186 197 -512zM1255 654h-843l-10 -10q0 -110 13 -196q57 -377 406 -377q285 0 383 281q46 131 51 302z" />
    <glyph glyph-name="uni04D8" unicode="&#x4d8;" horiz-adv-x="1658" 
d="M1564 739q0 -369 -215 -579q-209 -204 -571 -204q-364 0 -526 190q-158 185 -158 457q0 84 6 136l10 10l1145 -2q0 145 -16 217q-79 354 -441 354q-185 0 -299 -93q-110 -89 -175 -283l-15 -12l-56 31l42 306q57 48 118 79q174 88 411 88q349 0 543 -183
q197 -186 197 -512zM1255 654h-843l-10 -10q0 -110 13 -196q57 -377 406 -377q285 0 383 281q46 131 51 302z" />
    <glyph glyph-name="florin" unicode="&#x192;" horiz-adv-x="1024" 
d="M-16 -368q3 31 17 78t29 90l20 2q18 -27 40 -42t52 -15q65 0 101.5 83t76.5 362l77 665h-259l6 82h261q33 225 139 360t306 135q78 0 137.5 -20t64.5 -44l-85 -161l-43 9q3 12 5.5 22.5t2.5 23.5q0 41 -23.5 71.5t-80.5 31.5q-74 -5 -118.5 -109t-75.5 -319h292l-10 -82
h-292q-12 -89 -25 -191t-28.5 -188.5t-53 -243.5t-119.5 -315.5t-178 -235.5t-174 -77q-18 0 -34.5 6.5t-27.5 21.5z" />
    <glyph glyph-name="Ohorn" unicode="&#x1a0;" horiz-adv-x="1706" 
d="M1677 1347q0 -169 -149 -239q84 -149 84 -369q0 -369 -215 -579q-209 -204 -571 -204q-343 0 -537.5 192.5t-194.5 535.5q0 481 367 666q167 84 411 84q349 0 543 -183q37 -35 69 -77q96 25 96 110q0 43 -43 73q-24 17 -74 30l-4 13l39 125l10 9q169 -33 169 -187z
M1304 687q0 290 -116.5 460.5t-341.5 170.5q-297 0 -394 -267q-50 -137 -50 -307q0 -309 114 -488q118 -185 353 -185q285 0 383 281q52 149 52 335z" />
    <glyph glyph-name="ohorn" unicode="&#x1a1;" horiz-adv-x="1177" 
d="M1177 877q0 -164 -133 -233q13 -68 13 -148q0 -354 -238 -479q-116 -61 -265 -61q-236 0 -357 141q-114 132 -114 373q0 343 234 457q115 56 267 56q350 0 441 -266q61 31 61 97q0 68 -97 103l-4 13l37 105l10 9q63 -12 104 -61t41 -106zM780 414q0 249 -54.5 356.5
t-166.5 107.5q-199 0 -199 -359q0 -461 223 -461q139 0 177 153q20 80 20 203z" />
    <glyph glyph-name="Tonetwo" unicode="&#x1a7;" 
d="M229 1033q-3 102 -9.5 164.5t-20.5 127.5l8 24q73 36 172.5 55t205.5 19q102 0 199 -22.5t174 -74.5t124 -146.5t47 -206.5q0 -80 -26 -149.5t-78.5 -118.5t-138.5 -75q-57 -17 -238 -55q-126 -29 -176 -56t-73.5 -72t-23.5 -108q0 -75 33.5 -134t108 -92.5t169.5 -33.5
q109 0 201 47t130 109q13 107 11 179h84q1 -233 32 -347q-115 -56 -211 -79t-219 -23q-168 0 -288 48q-75 30 -146 90.5t-111 133.5q-53 97 -53 225q0 73 19 131.5t48.5 97t79.5 68t131 50.5q31 7 134.5 25t161.5 30q76 20 115 44t60 65t22 107q0 92 -74.5 160.5
t-210.5 68.5q-95 0 -171.5 -34t-107.5 -78q-8 -48 -10 -164h-84v0z" />
    <glyph glyph-name="tonetwo" unicode="&#x1a8;" horiz-adv-x="909" 
d="M829 147q2 -32 10 -109l-11 -15q-95 -33 -161 -45.5t-136 -12.5q-209 0 -324.5 102t-115.5 251q0 57 17.5 104.5t50.5 79.5t88 53q38 14 148.5 34.5t151.5 33.5t62 39t21 80q0 53 -46.5 91t-131.5 38q-61 0 -106.5 -20t-76.5 -60q-9 -42 -12 -87q-2 -26 -3 -37l-77 -1
q-6 134 -9 170t-9 71l3 10q55 28 123 42t149 14q195 0 299 -91.5t104 -229.5q0 -77 -32 -134.5t-89 -86.5t-167.5 -53t-149.5 -38q-50 -23 -66.5 -50.5t-16.5 -69.5q0 -64 50 -109t144 -45q70 0 124 26.5t99 81.5q5 29 10 141h80z" />
    <glyph glyph-name="Uhorn" unicode="&#x1af;" horiz-adv-x="1705" 
d="M1705 1594q0 -171 -149 -239q-15 -7 -109 -35q-47 -14 -52 -106q-13 -223 -13 -426v-238q0 -297 -117 -424q-155 -168 -442 -168q-262 0 -409 87q-124 74 -162 210q-24 87 -24 454v258q0 238 -13 310q-5 29 -34 37q-15 4 -117 10l-10 10v67l10 10q96 -6 308 -6
q216 0 307 6l10 -10v-67l-10 -10q-102 -6 -117 -10q-29 -8 -34 -37q-13 -72 -13 -310v-206q0 -378 34 -463q43 -108 179 -148q68 -20 156 -20q175 0 273 86q76 67 92 213q9 82 9 166v208q0 262 -2 358q-2 74 -3 84q-8 50 -44 64q-23 9 -123 15l-10 10v67l10 10q85 -6 179 -6
q164 0 213 9q130 24 130 117q0 43 -43 73q-24 17 -74 30l-4 13l39 125l10 9q169 -33 169 -187z" />
    <glyph glyph-name="uhorn" unicode="&#x1b0;" horiz-adv-x="1334" 
d="M1334 847q0 -114 -88 -178q-75 -56 -192 -62v-262q0 -211 12 -239q10 -24 124 -30l11 -10v-61l-10 -10q-150 5 -189 5q-33 0 -98 -2.5t-97 -2.5l-8 8q8 82 8 156q-52 -39 -182 -166q-65 -25 -139 -25q-137 0 -214 74.5t-77 210.5q0 30 2 89t2 89v128q0 198 -15 230
q-10 20 -43 25q-12 2 -88 5l-10 10v56l10 11q191 17 387 83l22 -13q-13 -166 -13 -307v-195q0 -118 3 -147q10 -95 53 -130q38 -32 101 -32q72 0 131 45q62 49 65 119q2 49 2 61v179q0 196 -15 230q-9 20 -42 25q-12 2 -88 5l-11 10v56l11 11q190 17 387 83l21 -13
q-12 -141 -13 -286q75 1 115 21q61 29 61 96q0 59 -84 90l-4 13l37 105l10 9q63 -12 104 -61t41 -106z" />
    <glyph glyph-name="uni01B7" unicode="&#x1b7;" horiz-adv-x="1135" 
d="M1041 514q-2 -222 -185 -379q-211 -181 -454 -179q-121 1 -252 64q-8 51 -23 143q-7 38 -37 147l6 14l48 21l18 -9q100 -272 317 -274q148 -1 225 106q68 95 69 220q1 160 -97 238q-82 65 -187 66q-33 0 -59 -6l-26 44q54 65 153 192q50 64 169 242q-160 -6 -255 -6
q-120 0 -132 -2q-43 -7 -64 -30q-17 -18 -54 -112l-19 -12l-45 2l-12 12l55 198q11 38 48 211q113 -10 348 -20q245 -2 436 21l9 -59q-96 -108 -236 -271q-41 -52 -219 -276q94 17 138 14q132 -9 210 -79q108 -97 107 -241z" />
    <glyph glyph-name="clickdental" unicode="&#x1c0;" horiz-adv-x="1241" 
d="M541 0v1497h157v-1497h-157z" />
    <glyph glyph-name="clicklateral" unicode="&#x1c1;" horiz-adv-x="2482" 
d="M541 0v1497h157v-1497h-157zM1782 0v1497h157v-1497h-157z" />
    <glyph glyph-name="clickretroflex" unicode="&#x1c3;" horiz-adv-x="569" 
d="M246 415q-8 41 -17 123q-16 158 -33 270q-42 282 -46 322q-12 105 -12 142q0 14 2 41q28 16 55 28l150 63l103 -1q1 -30 1 -45q0 -66 -22 -220l-46 -334l-50 -355l-76 -42zM290 289q64 0 109.5 -45.5t45.5 -110.5q0 -64 -45.5 -110t-109.5 -46q-65 0 -110.5 46t-45.5 110
q0 65 45.5 110.5t110.5 45.5z" />
    <glyph glyph-name="DZcaron" unicode="&#x1c4;" horiz-adv-x="3072" 
d="M131 0v48q8 5 28 16q38 21 70 44q11 134 11 435v164q0 132 -5 387q-3 141 -13 180q-3 9 -8 14q-8 8 -25 12t-126 18v81l363 -6q64 0 241 5q128 3 205 3q177 0 283.5 -21.5t185.5 -69t133.5 -112.5t82.5 -140q47 -126 47 -276q0 -191 -70 -341t-192.5 -251t-265.5 -145.5
t-345 -44.5l-297 6zM531 122q93 -14 178 -14q133 0 236 28q76 21 133 61t109.5 118t81.5 186t29 233q0 114 -29 220.5t-95 186.5t-167 116t-306 36q-77 0 -170 -13q-10 -142 -10 -535v-230q0 -298 10 -393zM1758 0v80q48 59 144 190q162 224 228 320l187 271q90 131 140 207
q124 187 138 207h-232q-128 -1 -256 -6q-94 -4 -116 -15q-8 -4 -11 -11q-11 -23 -24 -114q-6 -36 -10 -59h-81q8 141 8 206q0 35 -2 123q182 -5 204 -5q250 -1 443 -1q73 0 154 1l309 5v-70q-187 -249 -305 -421l-296 -428q-29 -42 -75.5 -113t-114.5 -175q-25 -37 -43 -66
l186 -2q283 0 410 10q93 7 106 19q19 18 40 124q12 59 18 84h81q-19 -170 -33 -357h-38l-191 -4l-129 3l-258 2l-263 3zM2022 1858h128l223 -188l221 188h131l-251 -357h-208z" />
    <glyph glyph-name="Dzcaron" unicode="&#x1c5;" horiz-adv-x="2730" 
d="M131 0v48q8 5 28 16q38 21 70 44q11 134 11 435v164q0 132 -5 387q-3 141 -13 180q-3 9 -8 14q-8 8 -25 12t-126 18v81l363 -6q64 0 241 5q128 3 205 3q177 0 283.5 -21.5t185.5 -69t133.5 -112.5t82.5 -140q47 -126 47 -276q0 -191 -70 -341t-192.5 -251t-265.5 -145.5
t-345 -44.5l-297 6zM531 122q93 -14 178 -14q133 0 236 28q76 21 133 61t109.5 118t81.5 186t29 233q0 114 -29 220.5t-95 186.5t-167 116t-306 36q-77 0 -170 -13q-10 -142 -10 -535v-230q0 -298 10 -393zM2573 321h82q-20 -192 -23 -307l-7 -8q-72 -5 -100 -5l-142 -1
q-15 0 -144 5q-67 3 -126 3q-24 0 -184 -3t-188 -5v67q26 29 141 183q191 254 416 577h-117q-121 0 -196 -6q-46 -3 -56 -13.5t-15 -47.5q-8 -55 -17 -103h-79q8 199 8 219q0 15 -1 56l9 9l15 1l94 -5l383 -4q43 0 307 7v-71q-222 -294 -373 -508.5t-172 -247.5l74 -1
q162 0 218 3q125 9 139 15q8 3 12 11q11 20 42 180zM1847 1404h128l223 -188l221 188h131l-251 -357h-208z" />
    <glyph glyph-name="dzcaron" unicode="&#x1c6;" horiz-adv-x="2275" 
d="M1200 72v-72l-210 3l-180 -3l-9 8l5 79l2 82q-69 -58 -151 -130q-32 -30 -63 -51q-38 -15 -101 -15q-166 0 -275 121.5t-109 332.5q0 117 32 209q24 70 56 108q23 28 134.5 106t160 96.5t125.5 18.5q48 0 79.5 -7t108.5 -37q3 58 3 123q0 76 -5 184q-2 52 -11 65
q-7 10 -20 13t-123 6v74q213 21 395 87l26 -15q-12 -268 -13 -315q-3 -261 -3 -731v-93q0 -68 5 -147q3 -56 10 -68.5t23 -18.5t108 -13zM805 711q-55 66 -90 86q-66 38 -145 38q-69 0 -112.5 -33.5t-65 -108.5t-21.5 -173q0 -182 78 -281q58 -73 156 -73q74 0 129.5 42
t66 81t10.5 238zM2118 321h82q-20 -192 -23 -307l-7 -8q-72 -5 -100 -5l-142 -1q-15 0 -144 5q-67 3 -126 3q-24 0 -184 -3t-188 -5v67q26 29 141 183q191 254 416 577h-117q-121 0 -196 -6q-46 -3 -56 -13.5t-15 -47.5q-8 -55 -17 -103h-79q8 199 8 219q0 15 -1 56l9 9
l15 1l94 -5l383 -4q43 0 307 7v-71q-222 -294 -373 -508.5t-172 -247.5l74 -1q162 0 218 3q125 9 139 15q8 3 12 11q11 20 42 180zM1392 1404h128l223 -188l221 188h131l-251 -357h-208z" />
    <glyph glyph-name="LJ" unicode="&#x1c7;" horiz-adv-x="2048" 
d="M137 0v51q26 11 73 39q21 12 27 20q4 5 5 11q5 25 9 178.5t4 368.5q0 316 -2 390q-4 188 -13 215q-4 12 -15 18q-23 15 -153 20v88q127 -6 290 -6q182 0 345 6v-88q-113 -5 -138 -18q-11 -6 -16 -19.5t-9.5 -123.5t-4.5 -278q0 -18 1 -289q1 -143 1.5 -283.5t1.5 -170.5
q138 -6 188 -6q152 0 265 18q41 6 49 13t17 37q20 76 39 174h83q-3 -28 -3 -33l-25 -202q-8 -95 -9 -114q-29 -8 -58 -11q-61 -5 -189 -5q-18 0 -235 5q-165 4 -230 4q-98 0 -298 -9zM1256 -239l23 13q48 -43 79 -57.5t64 -14.5q39 0 60 17t30.5 49t12.5 139q6 211 6 234
v783q0 129 -3.5 232.5t-11.5 122.5q-4 10 -13 16q-13 9 -39 11l-136 5v88q193 -7 390 -7q165 0 283 7v-87q-102 -3 -122 -6q-26 -5 -38.5 -19t-15.5 -51q-7 -82 -7 -229v-364l2 -427q0 -162 -29.5 -258t-97.5 -181q-47 -58 -113.5 -109.5t-130 -78t-117.5 -26.5
q-39 0 -81 15q5 69 5 183z" />
    <glyph glyph-name="Lj" unicode="&#x1c8;" horiz-adv-x="1933" 
d="M137 0v51q26 11 73 39q21 12 27 20q4 5 5 11q5 25 9 178.5t4 368.5q0 316 -2 390q-4 188 -13 215q-4 12 -15 18q-23 15 -153 20v88q127 -6 290 -6q182 0 345 6v-88q-113 -5 -138 -18q-11 -6 -16 -19.5t-9.5 -123.5t-4.5 -278q0 -18 1 -289q1 -143 1.5 -283.5t1.5 -170.5
q138 -6 188 -6q152 0 265 18q41 6 49 13t17 37q20 76 39 174h83q-3 -28 -3 -33l-25 -202q-8 -95 -9 -114q-29 -8 -58 -11q-61 -5 -189 -5q-18 0 -235 5q-165 4 -230 4q-98 0 -298 -9zM1608 1448q64 0 108.5 -45t44.5 -108q0 -64 -45 -109t-108 -45q-64 0 -109 45t-45 109
q0 63 45 108t109 45zM1301 -535l-23 75l8 10q19 -3 33 -3q55 0 94 32.5t56.5 118.5t17.5 457v275q0 100 -6 266q-2 73 -8 84.5t-18 16.5q-22 9 -125 9v76q151 17 227.5 35t168.5 55l24 -13q-8 -97 -10 -159.5t-2 -194.5l3 -413q0 -235 -27 -359.5t-86 -206t-130.5 -123.5
t-157.5 -42q-18 0 -39 4z" />
    <glyph glyph-name="lj" unicode="&#x1c9;" horiz-adv-x="1364" 
d="M622 80v-80q-125 8 -261 8t-306 -8v79q95 3 115 8q15 4 22.5 11.5t10.5 23.5q7 30 10 189t3 282v330q0 157 -7 287q-4 70 -10 83q-4 7 -11 11q-12 8 -38 12q-15 2 -90 5v74q124 13 198 28.5t199 54.5l21 -12l-8 -202q-5 -170 -6 -417v-256q0 -145 2 -217q4 -179 6 -216.5
t7 -47.5q3 -7 10 -12q9 -7 31 -11q9 -2 102 -7zM1039 1448q64 0 108.5 -45t44.5 -108q0 -64 -45 -109t-108 -45q-64 0 -109 45t-45 109q0 63 45 108t109 45zM732 -535l-23 75l8 10q19 -3 33 -3q55 0 94 32.5t56.5 118.5t17.5 457v275q0 100 -6 266q-2 73 -8 84.5t-18 16.5
q-22 9 -125 9v76q151 17 227.5 35t168.5 55l24 -13q-8 -97 -10 -159.5t-2 -194.5l3 -413q0 -235 -27 -359.5t-86 -206t-130.5 -123.5t-157.5 -42q-18 0 -39 4z" />
    <glyph glyph-name="NJ" unicode="&#x1ca;" horiz-adv-x="2503" 
d="M79 85q118 6 135 11q11 4 18.5 13t12.5 37q6 38 14 184q4 83 4 216v321l-4 291q-1 73 -6 95t-14.5 32.5t-31.5 16.5t-128 13v84q127 -6 187 -6l145 3l92 3q206 -269 499 -620q211 -253 350 -396v231q0 538 -12 633q-4 37 -18 48q-23 18 -156 20v84q122 -6 224 -6
q99 0 255 6v-84q-122 -3 -145 -18q-8 -5 -11 -15q-15 -50 -19.5 -228.5t-4.5 -263.5q0 -665 13 -807l-13 -9q-84 14 -171 26q-323 361 -916 1084v-498q0 -155 6 -323q4 -116 12 -141q4 -12 13.5 -19.5t33.5 -10.5q65 -8 95 -8q6 0 20 1v-81q-190 2 -216 2q-97 0 -263 -6v85z
M1711 -239l23 13q48 -43 79 -57.5t64 -14.5q39 0 60 17t30.5 49t12.5 139q6 211 6 234v783q0 129 -3.5 232.5t-11.5 122.5q-4 10 -13 16q-13 9 -39 11l-136 5v88q193 -7 390 -7q165 0 283 7v-87q-102 -3 -122 -6q-26 -5 -38.5 -19t-15.5 -51q-7 -82 -7 -229v-364l2 -427
q0 -162 -29.5 -258t-97.5 -181q-47 -58 -113.5 -109.5t-130 -78t-117.5 -26.5q-39 0 -81 15q5 69 5 183z" />
    <glyph glyph-name="Nj" unicode="&#x1cb;" horiz-adv-x="2388" 
d="M79 85q118 6 135 11q11 4 18.5 13t12.5 37q6 38 14 184q4 83 4 216v321l-4 291q-1 73 -6 95t-14.5 32.5t-31.5 16.5t-128 13v84q127 -6 187 -6l145 3l92 3q206 -269 499 -620q211 -253 350 -396v231q0 538 -12 633q-4 37 -18 48q-23 18 -156 20v84q122 -6 224 -6
q99 0 255 6v-84q-122 -3 -145 -18q-8 -5 -11 -15q-15 -50 -19.5 -228.5t-4.5 -263.5q0 -665 13 -807l-13 -9q-84 14 -171 26q-323 361 -916 1084v-498q0 -155 6 -323q4 -116 12 -141q4 -12 13.5 -19.5t33.5 -10.5q65 -8 95 -8q6 0 20 1v-81q-190 2 -216 2q-97 0 -263 -6v85z
M2063 1448q64 0 108.5 -45t44.5 -108q0 -64 -45 -109t-108 -45q-64 0 -109 45t-45 109q0 63 45 108t109 45zM1756 -535l-23 75l8 10q19 -3 33 -3q55 0 94 32.5t56.5 118.5t17.5 457v275q0 100 -6 266q-2 73 -8 84.5t-18 16.5q-22 9 -125 9v76q151 17 227.5 35t168.5 55
l24 -13q-8 -97 -10 -159.5t-2 -194.5l3 -413q0 -235 -27 -359.5t-86 -206t-130.5 -123.5t-157.5 -42q-18 0 -39 4z" />
    <glyph glyph-name="nj" unicode="&#x1cc;" horiz-adv-x="1933" 
d="M1209 77v-77q-136 7 -222 7q-99 0 -172 -7l-18 18q2 21 13 173l5 164v79q0 175 -13.5 230t-55.5 88.5t-112 33.5t-116 -33.5t-58 -67.5q-7 -20 -6 -160v-168q0 -73 4 -179q1 -47 8 -62q5 -11 13 -16q12 -8 47 -15q12 -2 84 -8v-77q-109 4 -267 4q-183 0 -284 -4v77
q78 0 108 11q14 5 21 17q10 19 11 72l4 89q1 28 1 91v131q0 89 -6 216q-3 64 -8.5 72.5t-17.5 12.5q-19 7 -113 10v77q182 31 239 46t129 48l27 -12v-161l182 146q33 13 55.5 17.5t62.5 4.5q107 0 160.5 -24t90.5 -67.5t52 -91t15 -148.5q0 -114 -2 -145q-1 -12 -1 -29
l1 -103q1 -169 5.5 -209t18 -51.5t59.5 -14.5q17 -1 56 -5zM1608 1448q64 0 108.5 -45t44.5 -108q0 -64 -45 -109t-108 -45q-64 0 -109 45t-45 109q0 63 45 108t109 45zM1301 -535l-23 75l8 10q19 -3 33 -3q55 0 94 32.5t56.5 118.5t17.5 457v275q0 100 -6 266
q-2 73 -8 84.5t-18 16.5q-22 9 -125 9v76q151 17 227.5 35t168.5 55l24 -13q-8 -97 -10 -159.5t-2 -194.5l3 -413q0 -235 -27 -359.5t-86 -206t-130.5 -123.5t-157.5 -42q-18 0 -39 4z" />
    <glyph glyph-name="Acaron" unicode="&#x1cd;" horiz-adv-x="1593" 
d="M49 0v83q81 6 96.5 10.5t26.5 14t22.5 30t68.5 152.5q26 62 100 245l261 644l88 227h142l447 -1044l62 -137l40 -92q10 -18 19 -26t20.5 -12t58.5 -7q15 -2 44 -5v-83l-278 6l-351 -6v83q121 5 136.5 13.5t15.5 28.5q0 25 -23 82l-86 220h-514l-44 -120
q-50 -138 -50 -172q0 -24 16 -34q24 -14 143 -18v-83l-231 6zM491 541q94 -3 213 -3q115 0 206 3l-214 516zM446 1865h128l223 -188l221 188h131l-251 -357h-208z" />
    <glyph glyph-name="acaron" unicode="&#x1ce;" horiz-adv-x="1024" 
d="M977 75v-75q-115 5 -204 5q-84 0 -163 -5l-9 11l9 131q-36 -23 -212 -158q-45 -10 -86 -10q-109 0 -170.5 64t-61.5 184q0 81 27.5 133t59 76.5t97.5 47.5q158 56 346 88q2 119 -49 181q-52 62 -158 62q-43 0 -82 -11q-17 -5 -40 -20l-42 -101l-68 15l6 129q74 50 141 87
t94 45q37 11 104 11q109 0 179.5 -31.5t104 -74.5t46 -92t12.5 -124q0 -32 -5 -167q-3 -90 -3 -147q0 -178 10 -216q4 -18 16 -24q16 -8 101 -14zM610 483q-85 -18 -155.5 -43.5t-97.5 -63t-27 -94.5q0 -64 32.5 -99t85.5 -35q45 0 90.5 26t71.5 66v243zM177 1427h128
l223 -188l221 188h131l-251 -357h-208z" />
    <glyph glyph-name="Icaron" unicode="&#x1cf;" horiz-adv-x="797" 
d="M732 1399v-88q-101 -3 -120 -7.5t-27 -11t-11 -16.5q-7 -17 -10 -65q-2 -26 -3 -98q-4 -246 -4 -265v-403l3 -183q0 -103 10 -134q4 -14 13.5 -21.5t30 -12t118.5 -6.5v-88q-163 6 -348 6q-161 0 -287 -6v88q104 4 120 7q21 4 28.5 11t9.5 16q3 12 8 94q8 120 8 222v418
q0 199 -2 256q-5 127 -12 159q-3 13 -9.5 20t-24 11.5t-126.5 8.5v88q126 -6 289 -6q183 0 346 6zM63 1858h128l223 -188l221 188h131l-251 -357h-208z" />
    <glyph glyph-name="icaron" unicode="&#x1d0;" horiz-adv-x="682" 
d="M69 0v74q112 8 128 17.5t20 35.5q10 55 10 283q0 313 -9 356q-4 20 -13 26q-20 13 -136 14v76q151 16 228 34t168 55l24 -13q-12 -156 -12 -293v-340q0 -174 8 -206q4 -18 16 -24q27 -13 131 -17v-78q-142 4 -309 4q-144 0 -254 -4zM-1 1433h128l223 -188l221 188h131
l-251 -357h-208z" />
    <glyph glyph-name="Ocaron" unicode="&#x1d1;" horiz-adv-x="1706" 
d="M108 683q0 183 55.5 319t158.5 231t224 137q155 53 338 53q182 0 330 -51q110 -39 194.5 -112.5t128.5 -150.5t66.5 -169t22.5 -203q0 -188 -65 -349q-48 -120 -140.5 -213t-210.5 -143q-162 -67 -370 -67q-225 0 -386.5 81.5t-253.5 240.5t-92 396zM416 742
q0 -233 64 -385.5t164 -215.5t236 -63q126 0 225.5 60t156 203t56.5 347q0 140 -30.5 256t-87.5 197.5t-134.5 124.5t-205.5 43q-146 0 -248.5 -68.5t-149 -202.5t-46.5 -296zM516 1882h128l223 -188l221 188h131l-251 -357h-208z" />
    <glyph glyph-name="ocaron" unicode="&#x1d2;" horiz-adv-x="1139" 
d="M86 472q0 170 58 281.5t174 168t270 56.5q231 0 351.5 -121t120.5 -355q0 -135 -35 -234t-94 -159.5t-124 -91.5q-111 -52 -250 -52q-226 0 -348.5 128.5t-122.5 378.5zM363 520q0 -266 78 -379q52 -75 148 -75q82 0 130 57q64 76 64 294q0 153 -25.5 262.5t-75 152.5
t-119.5 43q-60 0 -105 -31.5t-70 -106t-25 -217.5zM222 1440h128l223 -188l221 188h131l-251 -357h-208z" />
    <glyph glyph-name="Ucaron" unicode="&#x1d3;" horiz-adv-x="1593" 
d="M55 1316v83l325 -6l135 2l135 3l37 1v-83q-108 0 -137 -19q-15 -9 -20 -35q-14 -62 -14 -273v-232l1 -117q0 -183 4 -226q9 -94 47 -151.5t116.5 -93t199.5 -35.5q139 0 221.5 47.5t117.5 123.5t35 289v204q0 264 -1 322q-3 126 -14 152q-7 16 -23 24q-33 17 -144 20v83
q181 -7 215 -7q9 0 27 1l222 6v-83q-93 0 -117 -15q-12 -8 -19.5 -30.5t-14.5 -202.5t-7 -284v-235q0 -90 -13 -186t-52.5 -164t-111.5 -123t-171 -83t-229 -28q-152 0 -284 41q-96 30 -157 80.5t-93 113t-39 120.5q-5 36 -5 194l1 192v254q0 140 -6 252q-3 44 -12 64
q-5 11 -25 26zM446 1858h128l223 -188l221 188h131l-251 -357h-208z" />
    <glyph glyph-name="ucaron" unicode="&#x1d4;" 
d="M53 802v76q86 5 173 23t223 64l14 -11q-14 -198 -14 -366v-112q0 -143 7 -191q10 -63 48 -95t101 -32q72 0 121 37.5t68 77.5q12 26 12 108v171l-2 142q0 69 -9 83q-5 9 -20 14t-122 11v76q155 20 211 32t190 55l19 -11l-11 -184q-8 -196 -8 -219v-205q0 -183 9 -226
q4 -18 15 -25q19 -10 123 -15v-80l-206 5l-189 -5l-7 8l6 77q1 19 1 77q-39 -31 -68 -57l-113 -107q-69 -25 -139 -25q-135 0 -212 74t-77 197q0 15 3 111q1 51 1 132l-2 211q0 58 -7.5 72t-24.5 21t-114 11zM276 1427h128l223 -188l221 188h131l-251 -357h-208z" />
    <glyph glyph-name="Udieresismacron" unicode="&#x1d5;" horiz-adv-x="1593" 
d="M55 1316v83l325 -6l135 2l135 3l37 1v-83q-108 0 -137 -19q-15 -9 -20 -35q-14 -62 -14 -273v-232l1 -117q0 -183 4 -226q9 -94 47 -151.5t116.5 -93t199.5 -35.5q139 0 221.5 47.5t117.5 123.5t35 289v204q0 264 -1 322q-3 126 -14 152q-7 16 -23 24q-33 17 -144 20v83
q181 -7 215 -7q9 0 27 1l222 6v-83q-93 0 -117 -15q-12 -8 -19.5 -30.5t-14.5 -202.5t-7 -284v-235q0 -90 -13 -186t-52.5 -164t-111.5 -123t-171 -83t-229 -28q-152 0 -284 41q-96 30 -157 80.5t-93 113t-39 120.5q-5 36 -5 194l1 192v254q0 140 -6 252q-3 44 -12 64
q-5 11 -25 26zM577 1792q61 0 103 -43t42 -103t-42.5 -102.5t-102.5 -42.5t-102.5 42.5t-42.5 102.5q0 61 42.5 103.5t102.5 42.5zM1017 1792q60 0 102.5 -43t42.5 -103t-42.5 -102.5t-102.5 -42.5t-102.5 42.5t-42.5 102.5q0 61 42.5 103.5t102.5 42.5zM444 2058h706v-164
h-706v164z" />
    <glyph glyph-name="udieresismacron" unicode="&#x1d6;" 
d="M53 802v76q86 5 173 23t223 64l14 -11q-14 -198 -14 -366v-112q0 -143 7 -191q10 -63 48 -95t101 -32q72 0 121 37.5t68 77.5q12 26 12 108v171l-2 142q0 69 -9 83q-5 9 -20 14t-122 11v76q155 20 211 32t190 55l19 -11l-11 -184q-8 -196 -8 -219v-205q0 -183 9 -226
q4 -18 15 -25q19 -10 123 -15v-80l-206 5l-189 -5l-7 8l6 77q1 19 1 77q-39 -31 -68 -57l-113 -107q-69 -25 -139 -25q-135 0 -212 74t-77 197q0 15 3 111q1 51 1 132l-2 211q0 58 -7.5 72t-24.5 21t-114 11zM407 1361q61 0 103 -43t42 -103t-42.5 -102.5t-102.5 -42.5
t-102.5 42.5t-42.5 102.5q0 61 42.5 103.5t102.5 42.5zM847 1361q60 0 102.5 -43t42.5 -103t-42.5 -102.5t-102.5 -42.5t-102.5 42.5t-42.5 102.5q0 61 42.5 103.5t102.5 42.5zM274 1624h706v-164h-706v164z" />
    <glyph glyph-name="Udieresisacute" unicode="&#x1d7;" horiz-adv-x="1593" 
d="M55 1316v83l325 -6l135 2l135 3l37 1v-83q-108 0 -137 -19q-15 -9 -20 -35q-14 -62 -14 -273v-232l1 -117q0 -183 4 -226q9 -94 47 -151.5t116.5 -93t199.5 -35.5q139 0 221.5 47.5t117.5 123.5t35 289v204q0 264 -1 322q-3 126 -14 152q-7 16 -23 24q-33 17 -144 20v83
q181 -7 215 -7q9 0 27 1l222 6v-83q-93 0 -117 -15q-12 -8 -19.5 -30.5t-14.5 -202.5t-7 -284v-235q0 -90 -13 -186t-52.5 -164t-111.5 -123t-171 -83t-229 -28q-152 0 -284 41q-96 30 -157 80.5t-93 113t-39 120.5q-5 36 -5 194l1 192v254q0 140 -6 252q-3 44 -12 64
q-5 11 -25 26zM577 1792q61 0 103 -43t42 -103t-42.5 -102.5t-102.5 -42.5t-102.5 42.5t-42.5 102.5q0 61 42.5 103.5t102.5 42.5zM1017 1792q60 0 102.5 -43t42.5 -103t-42.5 -102.5t-102.5 -42.5t-102.5 42.5t-42.5 102.5q0 61 42.5 103.5t102.5 42.5zM667 1894h-121
l235 285q51 62 81.5 80.5t69.5 18.5q52 0 84 -30.5t32 -73.5q0 -29 -18 -53q-29 -37 -101 -78z" />
    </font>
</defs>
</svg>
